<svg xmlns="http://www.w3.org/2000/svg" xmlns:xlink="http://www.w3.org/1999/xlink" fill="none" version="1.1" width="32.000003814697266" height="32.000003814697266" viewBox="0 0 32.000003814697266 32.000003814697266"><defs><clipPath id="master_svg0_5166_24745"><rect x="0" y="0" width="32.000003814697266" height="32.000003814697266" rx="0"/></clipPath></defs><g clip-path="url(#master_svg0_5166_24745)"><g><path d="M15.8800478515625,9.2320082125L5.6700481515625,6.4580078125L4.0240478515625,7.1920081425L4.0240478515625,24.9020098125L5.6700481515625,25.6620078125L15.8760478515625,23.1160068125L15.8760478515625,9.2320082125L15.8800478515625,9.2320082125Z" fill="#E25444" fill-opacity="1" style="mix-blend-mode:passthrough"/></g><g><path d="M5.6720012765625,6.459991455078125L4.0260009765625,7.191991625078125L4.0260009765625,24.901992455078126L5.6720012765625,25.661993455078125L5.6720012765625,6.459991455078125ZM15.8780019765625,7.619991655078125L25.9500009765625,6.459991455078125L27.9740009765625,7.619991655078125L27.9740009765625,24.487993455078126L25.9500009765625,25.661993455078125L15.8780019765625,24.487993455078126L15.8780019765625,7.619991655078125Z" fill="#7B1D13" fill-opacity="1" style="mix-blend-mode:passthrough"/></g><g><path d="M25.94999758203125,6.459990978515625L27.97399758203125,7.619990778515625L27.97399758203125,24.487993478515627L25.94999758203125,25.661993478515626L25.94999758203125,6.459990978515625ZM15.879996782031249,1.433990478515625L11.53399658203125,3.739990978515625L11.53399658203125,10.099990878515625L15.877996882031251,10.831991178515626L20.233997382031248,10.117990478515624L20.233997382031248,3.739990978515625L15.877996882031251,1.435990600815625L15.879996782031249,1.433990478515625Z" fill="#E25444" fill-opacity="1" style="mix-blend-mode:passthrough"/></g><g><path d="M15.879996782031249,8.884002685546875L11.53399658203125,10.102002585546876L15.877996882031251,10.834002985546874L20.233997382031248,10.120002485546875L15.877996882031251,8.884002685546875L15.879996782031249,8.884002685546875Z" fill="#58150D" fill-opacity="1" style="mix-blend-mode:passthrough"/></g><g><path d="M15.88004445703125,1.436004638671875L11.53204345703125,3.740004738671875L11.53204345703125,10.100005138671875L15.876043757031251,8.882005238671875L15.876043757031251,1.436004638671875L15.88004445703125,1.436004638671875ZM15.88804485703125,30.564006638671874L20.23404505703125,28.260009638671875L20.23404505703125,21.900007638671877L15.88804485703125,21.168006638671876L11.53404418963125,21.882005638671874L11.53404418963125,28.262004638671876L15.88804485703125,30.566005638671875L15.88804485703125,30.564006638671874Z" fill="#7B1D13" fill-opacity="1" style="mix-blend-mode:passthrough"/></g><g><path d="M15.887997182031249,23.115985407421874L20.233997382031248,21.897984687421875L15.887997182031249,21.165985107421875L11.53399658203125,21.879984197421877L15.887997182031249,23.115985407421874Z" fill="#58150D" fill-opacity="1" style="mix-blend-mode:passthrough"/></g><g><path d="M15.887997182031249,30.564014671875L20.233997382031248,28.260014671875L20.233997382031248,21.900014871875L15.887997182031249,23.118015671875L15.887997182031249,30.566016671875L15.887997182031249,30.564014671875ZM15.877996882031251,12.366011962975L11.53399658203125,12.796012011875L11.53399658203125,19.198012371875002L15.877996882031251,19.718012371874998L20.233997382031248,19.218012371874998L20.233997382031248,12.794013711875L15.877996882031251,12.364013671875L15.877996882031251,12.366011962975Z" fill="#E25444" fill-opacity="1" style="mix-blend-mode:passthrough"/></g><g><path d="M15.879996782031249,12.365997314453125L11.53399658203125,12.795997354453124L11.53399658203125,19.197999014453124L15.87799738203125,19.717998514453125L15.87799738203125,12.367998047053126L15.879996782031249,12.365997314453125Z" fill="#7B1D13" fill-opacity="1" style="mix-blend-mode:passthrough"/></g></g></svg>