<svg xmlns="http://www.w3.org/2000/svg" xmlns:xlink="http://www.w3.org/1999/xlink" fill="none" version="1.1" width="32" height="32" viewBox="0 0 32 32"><defs><clipPath id="master_svg0_5181_23594"><rect x="0" y="0" width="32" height="32" rx="0"/></clipPath></defs><g clip-path="url(#master_svg0_5181_23594)"><g><path d="M4,0L28,0C30.209139,0,32,1.7908609,32,4L32,28C32,30.209139,30.209139,32,28,32L4,32C1.7908609,32,0,30.209139,0,28L0,4C0,1.7908609,1.7908609,0,4,0Z" fill="#FDB733" fill-opacity="1" style="mix-blend-mode:passthrough"/></g><g><path d="M7.2733335480932615,20.469334015441895C7.365200998093262,20.470911015441892,7.455322268093262,20.494699015441896,7.536000248093262,20.538668015441893L8.360000608093262,20.994667015441895C10.561333608093262,22.205334015441892,12.797333708093262,23.308000015441895,15.470666908093262,23.306668015441893L15.68000030809326,23.304002015441895C17.41866710809326,23.266667015441893,19.28400010809326,22.876000015441896,21.08666610809326,22.206667015441894L21.806665108093263,21.922667015441895L22.23866510809326,21.740000015441893C22.323309108093262,21.698484015441892,22.416386108093263,21.677040015441897,22.510664108093263,21.677334015441893C22.81059310809326,21.669844015441896,23.060511108093262,21.905483015441895,23.070662108093263,22.205334015441892C23.070662108093263,22.382668015441894,22.97199510809326,22.552000015441894,22.82399710809326,22.660000015441895C22.66666410809326,22.786667015441893,22.503998108093263,22.904000015441895,22.337332108093264,23.013333015441894L22.075998108093263,23.177331015441894C20.16399810809326,24.377332015441894,17.699999108093262,25.114667015441896,15.522665008093261,25.163999015441895L15.318664508093262,25.166665015441893C12.322664308093263,25.166665015441893,9.998664808093261,23.729329015441895,7.9079981080932615,22.018663015441895L7.317331318093261,21.522663015441893C7.219227788093262,21.439487015441895,7.121449468093262,21.355930015441892,7.023997788093261,21.271996015441893C6.906583786093262,21.181580015441895,6.8364701270932615,21.042824015441894,6.833331108093262,20.894663015441893C6.833331108093262,20.778664015441894,6.879997730093262,20.667995015441896,6.965331078093262,20.587996015441895C7.049514768093262,20.511105015441892,7.159318448093262,20.468323015441896,7.273331168093262,20.467995015441893L7.2733335480932615,20.469334015441895ZM23.720000108093263,19.771999015441892C24.16000310809326,19.773333015441892,24.524001108093263,19.825333015441895,24.77466910809326,19.921333015441895C24.830668108093263,19.946667015441896,24.884002108093263,19.969334015441895,24.93733510809326,20.007999015441897L25.01733310809326,20.080000015441897L25.034667108093263,20.105333015441893C25.09722010809326,20.202251015441895,25.13688910809326,20.312139015441893,25.15066810809326,20.426666015441896L25.16266510809326,20.562666015441895L25.16666710809326,20.678665015441894C25.153331108093262,21.402664015441893,24.842666108093262,22.686665015441896,23.948001108093262,23.491998015441894C23.877166108093263,23.550767015441895,23.79287610809326,23.591077015441893,23.70266610809326,23.609330015441895L23.61200210809326,23.619996015441895C23.511054108093262,23.620412015441893,23.413756108093263,23.582257015441893,23.34000310809326,23.513329015441894C23.263812108093262,23.439164015441893,23.221396108093263,23.336984015441896,23.22267010809326,23.230664015441896C23.22230010809326,23.169530015441893,23.23361510809326,23.108888015441895,23.25600310809326,23.051995015441893L23.449336108093263,22.527996015441893C23.49733610809326,22.394663015441893,23.54533710809326,22.254663015441892,23.589335108093263,22.114662015441894C23.700000108093263,21.762663015441895,23.783999108093262,21.402662015441894,23.78000210809326,21.207996015441893C23.78173710809326,21.173946015441892,23.778594108093262,21.139822015441894,23.77066710809326,21.106663015441896C23.73101310809326,21.087131015441894,23.688826108093263,21.073219015441893,23.645335108093263,21.065329015441897C23.509082108093263,21.039843015441896,23.37059710809326,21.028227015441892,23.23200110809326,21.030663015441895C22.981536108093263,21.034109015441892,22.731422108093263,21.050575015441893,22.48266810809326,21.079996015441893L21.90800110809326,21.157330015441893L21.764002108093262,21.183996015441895L21.734669108093264,21.186663015441894C21.617414108093264,21.204695015441892,21.497967108093263,21.172779015441897,21.405334108093264,21.098663015441893C21.320568108093262,21.027042015441893,21.271768108093262,20.921635015441893,21.272001108093264,20.810663015441897C21.277334108093264,20.623997015441894,21.37866810809326,20.503996015441892,21.50266810809326,20.410664015441895C21.63600110809326,20.313330015441892,21.77600110809326,20.227997015441893,21.922668108093262,20.153330015441895L22.145334108093262,20.049330015441896L22.145334108093262,20.041330015441893L22.702667108093262,19.855997015441893L22.70400010809326,19.878664015441892C23.054667108093263,19.802664015441895,23.404002108093263,19.771997015441894,23.720000108093263,19.771999015441892ZM15.726667408093261,6.8333330154418945C16.86000110809326,6.8333330154418945,18.317333108093262,7.158666615441895,19.24666810809326,8.006666215441895C20.11333510809326,8.811999315441895,20.24533510809326,9.829332315441894,20.26000210809326,10.951999615441895L20.257336108093263,12.014666515441895L20.257336108093263,15.656000115441895C20.257336108093263,16.385334015441895,20.45467010809326,16.845333015441895,20.718670108093264,17.237333015441894L20.926670108093262,17.524000015441892L21.146669108093263,17.804001015441894C21.26800310809326,18.004002015441895,21.309336108093262,18.248001015441893,21.10666810809326,18.409334015441893L20.644001108093263,18.820002015441894L19.55466810809326,19.756002015441894L19.326668108093262,19.948002015441894C19.16533510809326,20.068003015441896,18.962667108093264,20.068003015441896,18.760000108093262,19.988003015441894C18.424806108093264,19.719521015441895,18.12467910809326,19.409986015441895,17.86666710809326,19.066669015441896L17.42666610809326,18.449337015441895C16.65600010809326,19.260004015441893,16.010665908093262,19.704004015441896,15.239999808093263,19.948004015441896C14.755999608093262,20.068005015441894,14.229332908093262,20.149338015441895,13.582666408093262,20.149338015441895C11.639999408093262,20.149338015441895,10.102666808093261,18.936005015441893,10.102666808093261,16.546670915441894C10.102666808093261,14.745337515441895,11.009333608093261,13.488004715441894,12.378666908093262,12.845337915441895L12.610667208093261,12.744004215441894C13.38000110809326,12.377337415441895,14.30933380809326,12.216004415441894,15.240000708093262,12.093338015441894C15.544000608093262,12.053338015441895,15.848000508093262,12.024004915441894,16.141334508093262,11.998671515441895L16.981335108093262,11.933338115441895L16.981335108093262,11.173337915441895C16.97866810809326,10.729337715441895,16.940000108093262,10.274671515441895,16.69733430809326,9.909338015441895C16.449335108093262,9.554671315441894,16.01733400809326,9.356004715441895,15.586668008093262,9.310670815441895L15.404001208093261,9.301337215441894L15.241334908093261,9.301337215441894C14.494668008093262,9.376004215441895,13.814668608093262,9.761337315441894,13.556001708093262,10.521337515441894L13.500001908093262,10.718670815441895C13.466668108093263,10.890670815441894,13.373334908093263,11.065337215441895,13.193335508093263,11.136004415441896L13.096002608093261,11.162671115441896L10.832002608093262,10.880004915441894C10.66933630809326,10.840004915441895,10.426669108093261,10.720005015441895,10.506669008093262,10.396004715441894C10.974669408093263,7.9386711154418945,13.018669108093261,7.022671225441894,15.012002908093262,6.849338054441895L15.241335908093262,6.833338260650595L15.726667408093261,6.8333330154418945ZM16.98266810809326,13.793333015441895C16.373334908093263,13.793333015441895,15.768001508093262,13.834666215441896,15.241334908093261,13.954666115441896C14.270668008093262,14.238666515441896,13.501335108093262,14.845333115441894,13.501335108093262,16.141332615441897C13.501335108093262,17.151999015441895,14.028001808093261,17.841333015441894,14.916002308093262,17.841333015441894C15.040001908093261,17.841333015441894,15.160002708093261,17.801332015441893,15.241335908093262,17.801332015441893C15.708002108093261,17.691999015441894,16.144002908093263,17.391998015441892,16.43466950809326,16.929333015441895L16.53600310809326,16.749332415441895C16.922670108093264,16.101331715441894,16.976004108093264,15.505332915441894,16.98133610809326,14.815999015441895L16.98133610809326,13.791998815441895L16.98266810809326,13.793333015441895Z" fill="#FFFFFF" fill-opacity="1" style="mix-blend-mode:passthrough"/></g></g></svg>