<svg xmlns="http://www.w3.org/2000/svg" xmlns:xlink="http://www.w3.org/1999/xlink" fill="none" version="1.1" width="32" height="32" viewBox="0 0 32 32"><defs><clipPath id="master_svg0_5166_24839"><rect x="0" y="0" width="32" height="32" rx="0"/></clipPath></defs><g clip-path="url(#master_svg0_5166_24839)"><g><path d="M12.833999633789062,2L18.826000233789063,2L18.826000233789063,31.966L12.833999633789062,31.966L12.833999633789062,2Z" fill="#0073BE" fill-opacity="1" style="mix-blend-mode:passthrough"/></g><g><path d="M18.82599990081787,2L23.435999900817873,4.3059998L23.435999900817873,29.694L18.82599990081787,32L18.82599990081787,2ZM8.22400000081787,7.552L4.303999900817871,6.3800001L4.303999900817871,27.355999L8.22400000081787,26.453999L8.22400000081787,7.5539989L8.22400000081787,7.552ZM29.65999890081787,7.302L27.355997900817872,6.3800001L27.355997900817872,27.355999L29.65999890081787,26.433998L29.65999890081787,7.3000002L29.65999890081787,7.302Z" fill="#3695D4" fill-opacity="1" style="mix-blend-mode:passthrough"/></g><g style="opacity:0.9039999842643738;"><path d="M18.826000213623047,2L19.285999293623046,2.23000002L19.285999293623046,31.733999L18.826000213623047,31.966L18.826000213623047,2Z" fill="#3897D7" fill-opacity="1" style="mix-blend-mode:passthrough"/></g><g style="opacity:0.9010000228881836;"><path d="M12.833999633789062,2L13.293999673789063,2L13.293999673789063,31.966L12.833999633789062,31.966L12.833999633789062,2Z" fill="#0377C3" fill-opacity="1" style="mix-blend-mode:passthrough"/></g><g><path d="M12.834,2L8.224,4.3060002L8.224,29.66L12.834,31.966L12.834,2ZM23.436001,7.5679998L27.356001,6.3800001L27.356001,27.355999L23.436001,26.469999L23.436001,7.5699997L23.436001,7.5679998ZM2,7.302L4.3059998,6.3800001L4.3059998,27.355999L2,26.434L2,7.3000002L2,7.302Z" fill="#005B9D" fill-opacity="1" style="mix-blend-mode:passthrough"/></g></g></svg>