<svg xmlns="http://www.w3.org/2000/svg" xmlns:xlink="http://www.w3.org/1999/xlink" fill="none" version="1.1" width="32" height="32" viewBox="0 0 32 32"><defs><clipPath id="master_svg0_5166_24760"><rect x="0" y="0" width="32" height="32" rx="0"/></clipPath></defs><g clip-path="url(#master_svg0_5166_24760)"><g><path d="M12.66666219765625,16.999994296484374L11.26666259765625,15.599994696484375L13.86666199765625,12.999994276484376C13.99999519765625,12.866661071484375,14.19999499765625,12.866661071484375,14.33332919765625,12.999994276484376L15.26666259765625,13.933327696484374C15.39999579765625,14.066660896484375,15.39999579765625,14.266660696484376,15.26666259765625,14.399993896484375L12.66666219765625,16.999994296484374Z" fill="#297AFF" fill-opacity="1" style="mix-blend-mode:passthrough"/></g><g><path d="M18.999966781250002,17.733331298828126L18.066633781249998,16.799999298828126C17.93330078125,16.666666298828126,17.73329978125,16.666666298828126,17.59996678125,16.799999298828126L15.53330078125,18.866666298828125L10.06663418125,13.399999598828124L6.79996778125,16.666666298828126C4.7999677612500005,18.666666298828126,4.5333013512499996,21.799999298828126,5.9333009812499995,24.133333298828124L4.33330107125,25.733333298828125C4.06663417825,26.000000298828127,4.06663417825,26.399999298828124,4.33330107125,26.666666298828126L5.26663448125,27.599998298828126C5.53330138125,27.866665298828124,5.9333009812499995,27.866665298828124,6.19996788125,27.599998298828126L7.79996778125,25.999998298828125C10.13330078125,27.466665298828126,13.19996738125,27.199999298828125,15.26663478125,25.133331298828125L18.53330178125,21.866665298828124L16.93330078125,20.266664298828125L18.999966781250002,18.199999298828125C19.133299781250003,18.066665298828127,19.133299781250003,17.866665298828124,18.999966781250002,17.733331298828126ZM13.39996628125,24.266664298828125C12.066633181250001,25.599998298828126,9.99996658125,25.599998298828126,8.66663268125,24.266664298828125L7.73329978125,23.333332298828125C6.39996628125,21.999998298828125,6.39996628125,19.933332298828127,7.73329978125,18.599998298828126L10.066633181250001,16.266664298828125L15.73329978125,21.933330298828125L13.39996628125,24.266664298828125ZM27.66663378125,5.266664998828125L26.73329878125,4.333331588828125C26.46663278125,4.066664695828125,26.06663478125,4.066664695828125,25.79996878125,4.333331588828125L24.19996678125,5.9333314988281245C21.86663478125,4.466664788828125,18.79996778125,4.733331678828125,16.73329978125,6.799998298828125L13.46663378125,10.066664698828125L21.93329978125,18.533331298828124L25.19996678125,15.266664298828125C27.19996678125,13.266664498828124,27.46663278125,10.133331298828125,26.06663478125,7.799997798828125L27.66663378125,6.199997898828125C27.93329978125,5.999998098828125,27.93329978125,5.533331398828125,27.66663378125,5.266664998828125ZM24.26663178125,13.399997698828125L21.93329978125,15.733330298828125L16.26663278125,10.066663698828126L18.59996678125,7.733330698828125C19.93330078125,6.399997198828125,21.99996578125,6.399997198828125,23.33330178125,7.733330698828125L24.26663178125,8.666664098828125C25.59996778125,9.999997098828125,25.59996778125,12.066663698828126,24.26663178125,13.399997698828125Z" fill="#297AFF" fill-opacity="1" style="mix-blend-mode:passthrough"/></g></g></svg>