<svg xmlns="http://www.w3.org/2000/svg" xmlns:xlink="http://www.w3.org/1999/xlink" fill="none" version="1.1" width="32" height="32" viewBox="0 0 32 32"><defs><clipPath id="master_svg0_5166_25736"><rect x="0" y="0" width="32" height="32" rx="0"/></clipPath></defs><g clip-path="url(#master_svg0_5166_25736)"><g><path d="M15.99999950378418,9.137777343780517C9.706666903784178,9.137777343780517,4.60444450378418,7.359999643780517,4.60444450378418,5.013332843780518L4.60444450378418,26.986665843780518C4.60444450378418,29.244444843780517,9.617777803784179,31.075554843780516,15.84000050378418,31.11111084378052L15.99999950378418,31.11111084378052C22.29333350378418,31.11111084378052,27.39555550378418,29.333332843780518,27.39555550378418,26.986665843780518L27.39555550378418,5.013333320617678C27.39555550378418,7.306666343780518,22.29333350378418,9.137777343780517,15.99999950378418,9.137777343780517Z" fill="#0071C8" fill-opacity="1" style="mix-blend-mode:passthrough"/></g><g><path d="M27.39555550378418,5.013333395511627C27.39555550378418,7.306666395511627,22.29333350378418,9.137776895511628,15.99999950378418,9.137776895511628C9.706666903784178,9.137776895511628,4.60444450378418,7.359999695511627,4.60444450378418,5.013332895511628C4.60444450378418,2.6666660955116273,9.706666903784178,0.8888888955116272,15.99999950378418,0.8888888955116272C22.29333350378418,0.8888888955116272,27.39555550378418,2.6666667955116274,27.39555550378418,5.013333395511627Z" fill="#E8E8E8" fill-opacity="1" style="mix-blend-mode:passthrough"/></g><g><path d="M24.746666138061524,4.675555742355346C24.746666138061524,6.133332942355347,20.817777138061523,7.306667042355347,15.999999038061523,7.306667042355347C11.182220438061524,7.306667042355347,7.253332138061523,6.133333942355347,7.253332138061523,4.675555742355346C7.253332138061523,3.217777742355347,11.182222338061523,2.0622222423553467,16.000000038061522,2.0622222423553467C20.817777138061523,2.0622222423553467,24.746666138061524,3.2355556423553464,24.746666138061524,4.675555742355346Z" fill="#50E6FF" fill-opacity="1" style="mix-blend-mode:passthrough"/></g><g><path d="M16.000000046020507,5.333333492047608C13.653843846020507,5.273409843047608,11.314779246020507,5.616151805047608,9.084444046020508,6.346666855047608C11.316898346020508,7.063612455047608,13.656675346020508,7.388414355047607,16.000000046020507,7.306666855047608C18.348073946020506,7.375451055047607,20.689680046020506,7.026316655047608,22.915556046020505,6.275555615047607C20.67886504602051,5.578827385047608,18.341556546020506,5.260376453047607,16.000000046020507,5.333333492047608Z" fill="#198AB3" fill-opacity="1" style="mix-blend-mode:passthrough"/></g><g><path d="M22.933331573211667,20.266666450061035L22.933331573211667,14.222222328061035L21.333333573211668,14.222222328061035L21.333333573211668,21.564445450061037L25.70666657321167,21.564445450061037L25.70666657321167,20.266668350061035L22.933331573211667,20.266666450061035ZM10.23999977321167,17.297777150061034C9.90965657321167,17.164924650061035,9.60336117321167,16.978746450061035,9.33333297321167,16.746665950061036C9.18847277321167,16.593528750061036,9.11155127321167,16.388404850061036,9.11999987321167,16.177776350061034C9.10891337321167,15.965474150061034,9.21017267321167,15.762955650061034,9.38666627321167,15.644442550061035C9.60532097321167,15.493151650061035,9.86775587321167,15.418170950061036,10.13333317321167,15.431109450061035C10.76651187321167,15.402657550061035,11.39139367321167,15.583872750061035,11.911110873211669,15.946664850061035L11.911110873211669,14.417776110061036C11.34312817321167,14.206446648061036,10.73889737321167,14.109769821061034,10.13333317321167,14.133331298861036C9.43585777321167,14.096195221061036,8.74822707321167,14.310686110061035,8.19555568321167,14.737775800061035C7.70687246321167,15.114556310061035,7.4290618892116695,15.703248950061035,7.4488887786816695,16.319997750061034C7.4488887786816695,17.226663550061033,8.01777744321167,17.937774650061037,9.22666647321167,18.471109350061035C9.61929607321167,18.637701050061036,9.98957157321167,18.852699250061036,10.32888887321167,19.111108750061035C10.497117073211669,19.252292650061037,10.59465787321167,19.460378650061035,10.59555527321167,19.679998350061034C10.59564777321167,19.898941050061033,10.48962877321167,20.104352950061035,10.31111047321167,20.231109650061036C10.069167173211671,20.372785550061035,9.79112817321167,20.440750150061035,9.51111027321167,20.426664350061035C8.79605487321167,20.420764950061034,8.107464793211669,20.155437450061036,7.57333278321167,19.679998350061034L7.57333278321167,21.333333950061036C8.16042232321167,21.636066450061037,8.81541057321167,21.782978050061036,9.47555537321167,21.760000250061033C10.22070887321167,21.804193450061035,10.959208473211671,21.597663850061036,11.573333773211669,21.173334150061034C12.01313587321167,20.756809250061035,12.23058887321167,20.157167450061035,12.16000077321167,19.555557250061035C12.168545673211671,19.100425750061035,12.010485673211669,18.657859850061037,11.71555617321167,18.311113350061035C11.300189973211669,17.873619050061034,10.79745867321167,17.528367950061035,10.23999977321167,17.297777150061034ZM19.55555457321167,20.124444950061033C19.95916357321167,19.448347050061034,20.162599573211672,18.671586950061034,20.14222057321167,17.884445150061033C20.102055573211672,17.218074750061035,19.90073557321167,16.571413050061036,19.55555457321167,15.999999950061035C19.27801257321167,15.444837550061035,18.84583657321167,14.981790540061034,18.31111057321167,14.666666980061034C17.76923357321167,14.359536170061036,17.15618277321167,14.200142860061035,16.53333237321167,14.204444885061035C15.86190367321167,14.189682960061035,15.19882397321167,14.355452540061036,14.61333277321167,14.684444430061035C14.064505573211669,14.990715980061035,13.61433027321167,15.447057750061035,13.31555457321167,15.999999950061035C13.00083537321167,16.628587750061037,12.84228327321167,17.323780050061035,12.853332473211669,18.026666650061035C12.85704517321167,18.644172650061037,13.00304697321167,19.252515750061036,13.27999877321167,19.804445250061036C13.551311473211669,20.353574750061036,13.977827073211671,20.810997050061033,14.50666527321167,21.120000850061036C15.043629673211669,21.447486850061036,15.65588517321167,21.631162650061036,16.28444247321167,21.653333650061036L17.81333157321167,23.431112250061034L19.96444257321167,23.431112250061034L17.77777857321167,21.475555450061037C18.51411557321167,21.254701650061037,19.14561457321167,20.774763150061034,19.55555457321167,20.124444950061033ZM17.777776573211668,19.680000350061036C17.449634573211668,20.087467150061034,16.94960547321167,20.317743350061036,16.42666577321167,20.302223250061036C15.89944027321167,20.319252050061035,15.396367073211671,20.080955550061034,15.075554873211669,19.662223850061036C14.69976997321167,19.148805650061036,14.517199473211669,18.519252750061035,14.55999947321167,17.884445150061033C14.51872827321167,17.249801650061034,14.70114997321167,16.620761850061037,15.075554873211669,16.106666550061036C15.414452573211669,15.688903850061035,15.92428537321167,15.447059650061036,16.462220673211668,15.448888750061036C16.98981427321167,15.426147450061036,17.49254757321167,15.674162850061036,17.795554573211668,16.106666550061036C18.14579557321167,16.630762150061035,18.314418573211668,17.255290950061035,18.27555457321167,17.884445150061033C18.337581573211672,18.523942950061034,18.16021657321167,19.163721050061035,17.777776573211668,19.680000350061036Z" fill="#F0F0F0" fill-opacity="1" style="mix-blend-mode:passthrough"/></g></g></svg>