<svg xmlns="http://www.w3.org/2000/svg" xmlns:xlink="http://www.w3.org/1999/xlink" fill="none" version="1.1" width="32" height="32" viewBox="0 0 32 32"><defs><clipPath id="master_svg0_5166_26137"><rect x="0" y="0" width="32" height="32" rx="0"/></clipPath></defs><g clip-path="url(#master_svg0_5166_26137)"><g><path d="M31.999989,16.723978000000002C31.579264,17.437069,31.156353,18.141431,30.742899,18.854521C30.39999,19.437429,30.075266,20.027246,29.737083,20.609789C29.499264,21.019243,29.252356,21.419241,29.012356,21.826151L28.111629,23.353058C27.625084,24.191967,27.14254,25.03524,26.653448,25.871964C26.248722,26.564688,25.835268,27.254869,25.432722,27.947596C24.980829,28.718073,24.53512,29.492155,24.095633,30.269773C24.022543,30.397772,23.942543,30.427593,23.807632,30.427593C22.70109,30.422865,21.594908,30.425409,20.486183,30.425409C16.401463,30.425409,12.314561,30.422865,8.2298393,30.429773C8.0287485,30.429773,7.9280214,30.36141,7.8320212,30.196684C7.4592943,29.542868,7.0709319,28.898504,6.6891146,28.249052L6.0032973,27.06069C5.6352143,26.421597,5.2649102,25.783775,4.8923898,25.147236L4.0305734,23.670876C3.825119,23.318514,3.6236649,22.961786,3.416029,22.612333C3.0225754,21.944698,2.6225758,21.284334,2.2342126,20.616701C1.891304,20.0247,1.5596684,19.428339,1.2193055,18.836340999999997C0.98585159,18.433795,0.74148816,18.038525,0.50839776,17.638523C0.34839788,17.363977,0.19494393,17.089798000000002,0.030580383,16.815615C-0.019964706,16.735616,-0.0014194552,16.671615,0.039671268,16.602888L0.71603352,15.432708L1.3494871,14.362891L2.0876675,13.105439C2.368758,12.6254396,2.6567571,12.1501684,2.9334846,11.6701689C3.2145751,11.1901693,3.4891202,10.7101698,3.7676651,10.2276254C4.0993009,9.656354,4.4305735,9.0847187,4.766573,8.5134463L5.6465712,7.0229025L6.5382061,5.4916322C6.981842,4.7258149,7.4298415,3.9599984299999997,7.8640227,3.1872725C7.9371142,3.052727267,8.021841,3,8.1771135,3C9.7200203,3.0047271824,11.262926,3.0047271824,12.806196,3.0047271824L23.841816,3.0047271824C23.956362,2.9930906412,24.024725,3.036727022,24.079636,3.13709089C24.28587,3.50595611,24.496185,3.87252343,24.710545,4.2367252C24.902544,4.5658158,25.09927,4.890542,25.293453,5.219632600000001C25.583633,5.7087224,25.876362,6.1978133,26.162178,6.6894481C26.479631,7.2287202,26.792723,7.7705374,27.106176,8.3123541C27.405449,8.8312621,27.700357,9.3501706,28.004356,9.8665333C28.287992,10.351260199999999,28.575993,10.8356228,28.863991,11.3203497L29.780354,12.8861656L30.969078,14.954889C31.147261,15.265798,31.334896,15.57198,31.517803,15.882888L31.997803,16.726523L31.999989,16.726523L31.999989,16.723978000000002Z" fill="#2378BC" fill-opacity="1" style="mix-blend-mode:passthrough"/></g><g><path d="M20.477081556640627,8.435546875C20.649444556640624,8.435546875,20.759988556640625,8.497364376,20.868353556640624,8.606819125L20.879261556640625,8.618455675C21.080717556640625,8.828637775,21.290897556640623,9.027546165,21.496716556640624,9.231181745C21.697807556640626,9.430090125,21.894533556640624,9.633362875,22.095623556640625,9.830090375C22.529804556640627,10.255180475,22.970894556640623,10.671180275000001,23.407622556640625,11.096270275C23.563983556640625,11.247178775,23.712713556640622,11.406451675,23.866893556640626,11.559542175L23.944709556640625,11.635905274999999C24.013437556640625,11.699904875,24.031619556640624,11.772996175,24.031619556640624,11.859904775L24.031619556640624,22.600978875C24.031619556640624,22.706068875,24.031619556640624,22.813341875,24.026891556640624,22.920978875C24.000291556640626,23.676629875,23.571350556640624,24.360272875,22.902529556640623,24.712974875C22.531258556640623,24.910428875,22.113440556640626,25.003882875,21.693076556640627,24.982791875L10.252735656640624,24.982791875C9.938217256640625,24.999068875,9.623736856640624,24.950038875,9.329100056640625,24.838790875C8.735649466640625,24.606317875,8.274285556640624,24.124876874999998,8.067284376640625,23.522067874999998C7.980296417640625,23.253548875,7.939355246140625,22.972247875,7.946193079940625,22.690067875L7.946193079940625,10.762814774999999C7.892385128640625,9.983736175,8.265504806640624,9.236798465,8.920736496640625,8.811908635L8.940736356640626,8.799180985C9.345099656640626,8.536272925,9.797825856640625,8.4402727569,10.277825356640625,8.4402727569C13.676729156640626,8.4402727569,17.077814056640626,8.4402727569,20.477081556640627,8.435546875ZM10.005825756640625,9.626453475C9.712735256640626,9.657725675,9.449463156640626,9.819180875,9.288009256640624,10.065362375C9.173502356640626,10.269032975,9.122590456640625,10.502320575,9.141828156640624,10.735179875L9.141828156640624,22.762795875000002C9.141828156640624,22.836249875,9.142192356640624,22.911159875,9.150919656640625,22.984612875C9.193838956640626,23.375875875,9.483492256640625,23.695167875,9.868736156640626,23.775884875C10.035645456640625,23.807882875,10.206917756640625,23.819155875,10.378554056640624,23.819155875C14.065457356640625,23.821338875000002,17.750176456640624,23.821338875000002,21.434897556640625,23.819155875C21.620351556640625,23.819155875,21.805079556640624,23.803154875,21.990533556640624,23.789338875C22.351622556640624,23.762065874999998,22.586896556640625,23.560974875,22.746895556640624,23.250068875C22.829441556640624,23.092977875000003,22.837805556640625,22.926067875,22.838531556640625,22.755886875L22.838531556640625,12.563902375C22.838531556640625,12.481357075,22.826894556640625,12.399175375,22.817804556640624,12.296267275L20.175264556640627,12.296267275L20.175264556640627,9.615181075L10.349098456640625,9.615181075C10.234916656640625,9.615181075,10.120371856640626,9.607908975,10.005825756640625,9.626453475L10.005825756640625,9.626453475ZM14.899636256640626,17.654438974999998C15.192362756640625,17.786803275,15.425454156640626,18.003894775,15.537453656640626,18.326437974999997C15.782179856640624,19.028256875,15.825452756640626,19.743526875,15.743271356640625,20.475161874999998C15.709090256640625,20.783524874999998,15.651635656640625,21.087523875000002,15.535271656640624,21.375523875C15.349306556640624,21.903142875,14.865971556640625,22.268504874999998,14.307637256640625,22.303520875C14.059364356640625,22.335228875,13.807540456640625,22.325275875000003,13.562547256640624,22.274065874999998C13.191326656640625,22.191808875,12.878131856640625,21.944254875,12.712367056640625,21.602066875C12.585812556640626,21.355418874999998,12.503592056640624,21.088449875000002,12.469459056640625,20.813341875L12.465458856640625,20.779160875000002C12.430913456640624,20.507160875,12.419641056640625,20.230434875,12.398912956640626,19.956252875L12.401457756640625,19.956252875L12.403275956640625,19.874436875C12.415275056640624,19.441344875,12.456367056640625,19.012982875,12.600366156640625,18.602801875C12.769456356640625,18.118439674999998,13.062183856640626,17.740984875000002,13.589819456640626,17.583530475C14.040364756640624,17.446440674999998,14.481454356640626,17.468985574999998,14.899636256640626,17.654438974999998ZM18.049449556640624,17.548984575C18.189085556640627,17.551530874999997,18.330903556640624,17.576621975000002,18.497813556640626,17.594802875L18.497813556640626,21.512615875C18.611993556640627,21.519887875000002,18.703267556640625,21.530798875000002,18.794903556640627,21.533342875000002C18.920356556640627,21.535524875,19.050902556640626,21.528613874999998,19.178901556640625,21.533342875000002C19.359265556640626,21.540250874999998,19.416356556640626,21.599523875,19.430174556640623,21.780251874999998C19.448357556640623,21.940977875,19.410173556640625,22.103522875,19.322901556640623,22.239522875L19.320355556640624,22.239522875C19.261083556640624,22.242068875,19.190174556640628,22.251159875,19.119265556640627,22.251159875C18.451267556640623,22.251159875,17.781450256640625,22.245705875,17.113085756640626,22.250794875L16.826540956640628,22.253341875C16.606905956640624,22.257705875,16.539269456640625,22.177703875,16.534540156640624,21.992614875L16.534176856640627,21.970069875C16.534176856640627,21.892251875,16.529447556640626,21.814432875,16.534176856640627,21.736614875C16.545449256640623,21.590432874999998,16.595994956640624,21.538071875,16.751268356640622,21.533342875000002C16.934178356640626,21.528613874999998,17.121449456640626,21.533342875000002,17.306539556640622,21.533342875000002L17.507994656640626,21.533342875000002L17.509812356640623,21.526434875C17.538539856640625,21.400981875,17.555266356640622,20.561709875,17.556358356640626,19.796619874999998L17.556358356640626,19.567529874999998C17.555268256640623,19.067165875,17.546904556640627,18.636257875,17.530902856640623,18.515894875C17.469084756640626,18.538802875000002,17.409447656640623,18.554804875000002,17.357086156640626,18.584985875C17.192358956640625,18.680621875,17.032360056640627,18.783529875,16.865450856640624,18.874804875000002C16.807783156640625,18.902282874999997,16.745990756640623,18.920096875,16.682543756640626,18.927529874999998C16.598179856640627,18.941348875,16.538543656640627,18.906802875,16.534178756640625,18.817710875C16.527325656640627,18.683737875,16.527325656640627,18.549502875,16.534178756640625,18.415530175C16.538543656640627,18.367529875000002,16.579997056640625,18.312622075,16.618542656640624,18.278440475C16.701087956640627,18.209713975,16.790177356640626,18.154805175,16.879269556640622,18.097712475C17.080360456640626,17.969713175000003,17.290541656640627,17.850804375,17.487270356640625,17.709350575000002C17.651740056640627,17.595161474999998,17.849500656640625,17.538877475,18.049449556640624,17.548984575L18.049449556640624,17.548984575ZM13.635638756640624,18.479892875C13.576823756640625,18.582725875,13.527178756640625,18.690533875,13.487275156640624,18.802074875000002C13.421820656640625,18.976983875000002,13.407639056640626,19.158801875,13.399275756640625,19.343163875000002L13.395639456640625,19.426072875C13.369094356640625,19.941344875,13.355639956640626,20.452252875,13.469821956640626,20.958798875L13.480367156640625,21.003526875C13.571640056640625,21.394434875,13.736367256640625,21.627524875,14.200366056640625,21.572616875C14.381628556640624,21.562382875,14.541223556640624,21.449774875,14.611638556640624,21.282435874999997C14.665819656640625,21.167892875,14.703638556640625,21.046072875,14.723638556640626,20.920982875C14.767273856640625,20.578074875,14.792365056640625,20.235530875000002,14.824365656640625,19.880984875L14.824365656640625,19.878802874999998C14.792365056640625,19.544984875,14.769456356640625,19.199893875,14.716729156640625,18.859166875C14.694920056640626,18.706053875000002,14.636957156640625,18.560336875,14.547638856640624,18.434077275C14.367275256640625,18.194076575,13.825458056640624,18.164259875,13.635638756640624,18.479892875ZM18.653085556640626,11.242814275C18.823557556640623,11.311515374999999,18.973194556640625,11.423430475,19.087265556640624,11.567541075C19.343264556640626,11.887540775,19.466901556640625,12.253358575,19.498901556640625,12.655539475000001C19.521810556640624,12.929721375,19.558174556640623,13.199538675,19.590172556640624,13.471538575L19.587990556640626,13.474083375C19.579051556640625,13.939892275,19.505124556640624,14.402171575,19.368355556640623,14.847536075C19.197082556640623,15.362081074999999,18.879264556640624,15.741353075,18.333085556640626,15.867170375C17.800358756640627,15.988261675,17.272360756640623,15.967897875,16.810543056640626,15.615897675C16.581172956640625,15.425598175000001,16.421957056640625,15.164120675,16.358180056640627,14.872990175C16.189686756640626,14.208423575000001,16.151650456640624,13.517491775,16.246178656640623,12.838448475C16.269256556640627,12.441830675,16.396983156640623,12.058403475,16.616360656640623,11.727176875C16.890454256640623,11.346558775,17.327086456640625,11.116399075,17.795994756640624,11.105359275C18.088406556640624,11.085122775,18.381572556640627,11.132014975,18.653085556640626,11.242814275L18.653085556640626,11.242814275ZM14.719274056640625,11.183541775L14.719274056640625,15.130807875L15.359273456640626,15.130807875L15.392727856640626,15.131535075C15.573818656640626,15.136989074999999,15.611273256640626,15.176626174999999,15.621818556640626,15.375171675C15.624000556640624,15.482079975000001,15.617091156640626,15.588989775,15.600363756640625,15.694444175000001L15.594545356640625,15.729716775C15.583272956640625,15.809716175,15.526181256640626,15.850808175000001,15.441817756640624,15.848625675000001L13.040003256640624,15.848625675000001C12.822913156640624,15.846807975,12.802549356640625,15.817353775,12.776366756640625,15.587898775C12.773044156640626,15.566676574999999,12.770617456640625,15.545324375,12.769094956640625,15.523899075L12.767640556640625,15.483899075C12.757095356640626,15.177354375,12.803277456640625,15.132990375,13.115276856640625,15.131172175L13.612730956640625,15.130807875L13.630912756640626,15.129716875C13.752004156640625,15.122444675,13.770548856640625,15.101354075,13.772730856640624,14.963898675L13.772730856640624,12.120267875C13.715276256640625,12.140994575,13.666913556640626,12.150449075000001,13.626185456640625,12.170450175L13.612730956640625,12.177722175C13.429821956640625,12.273358375,13.253822756640625,12.378812775,13.070913756640625,12.474812974999999C12.998187056640624,12.511176575,12.913459256640625,12.527176375,12.830914956640626,12.554812475C12.747791756640625,12.382472275,12.729962356640625,12.185841074999999,12.780732656640625,12.001358775C12.799202956640624,11.934694275,12.840356356640626,11.876566375,12.897096656640624,11.836995875C13.202169456640625,11.631059675,13.510947656640624,11.430663575,13.823276956640626,11.235906374999999C13.873226656640625,11.208465375,13.927859256640625,11.190582475,13.984368356640626,11.183179175L14.034913056640626,11.174451574999999L14.085822556640625,11.164997375C14.291640256640626,11.119179275,14.490548656640625,11.187906275,14.719274056640625,11.183541775L14.719274056640625,11.183541775ZM17.313449856640624,12.264631075C17.176361056640623,12.671903175,17.165085756640625,13.094447174999999,17.171631856640623,13.544628175L17.174178156640625,13.544628175C17.160359356640626,13.949354675,17.183268556640627,14.374444475,17.311267856640626,14.790444375C17.371630656640626,14.973353375,17.479267156640624,15.119171575,17.666903456640625,15.157715775L17.681447056640625,15.160989275C17.901082956640625,15.202079775,18.122899556640625,15.206444274999999,18.291991556640625,15.012261875C18.436152556640625,14.836664175,18.523754556640625,14.621524775000001,18.543264556640626,14.395171175C18.618854556640628,13.840315775,18.621299556640626,13.277938375,18.550536556640623,12.722447375L18.543264556640626,12.667174775C18.521692556640623,12.492811175,18.472339556640627,12.323025675,18.397081556640625,12.164266375C18.339991556640626,12.054448875,18.232355556640627,11.928630375000001,18.118173556640627,11.894448975C17.798173856640624,11.791539475,17.450901056640625,11.862448475,17.313449856640624,12.264631075Z" fill="#FAFDFE" fill-opacity="1" style="mix-blend-mode:passthrough"/></g></g></svg>