<svg xmlns="http://www.w3.org/2000/svg" xmlns:xlink="http://www.w3.org/1999/xlink" fill="none" version="1.1" width="32" height="32" viewBox="0 0 32 32"><defs><clipPath id="master_svg0_5181_23574"><rect x="0" y="0" width="32" height="32" rx="0"/></clipPath></defs><g clip-path="url(#master_svg0_5181_23574)"><g><path d="M7.828363418588379,8.159999711967469C7.909132957588379,4.0413111119674685,11.27106476558838,0.7446612119674683,15.390544865588378,0.7446612119674683C19.51002466558838,0.7446612119674683,22.87195766558838,4.0413111119674685,22.95272866558838,8.159999711967469L22.95272866558838,16.68072721196747C22.95272866558838,20.858007211967468,19.566371665588377,24.24436221196747,15.389091465588379,24.24436221196747C11.211811065588378,24.24436221196747,7.825455665588379,20.858007211967468,7.825455665588379,16.68072721196747L7.825455665588379,8.159999711967469L7.828363418588379,8.159999711967469ZM15.38909056558838,2.512000111967468C12.270589865588379,2.5119998119674682,9.742545165588378,5.040043711967468,9.742545165588378,8.158545411967468L9.742545165588378,16.679271211967468C9.79202456558838,19.762045211967468,12.305192965588379,22.235201211967468,15.388363865588378,22.235201211967468C18.47153466558838,22.235201211967468,20.98470266558838,19.762045211967468,21.034181665588378,16.679271211967468L21.034181665588378,8.159999711967469C21.03498466558838,5.042066011967468,18.50847766558838,2.5136058119674685,15.390544865588378,2.512000111967468L15.38909056558838,2.512000111967468Z" fill="#1B1B1B" fill-opacity="1" style="mix-blend-mode:passthrough"/></g><g><path d="M2.1818182468414307,8.264727592468262L7.720727246841431,8.264727592468262L7.720727246841431,31.272726592468263C4.66167164684143,31.272726592468263,2.1818180084228507,28.79287259246826,2.1818182468414307,25.733817592468263L2.1818182468414307,8.264727592468262Z" fill="#D44340" fill-opacity="1" style="mix-blend-mode:passthrough"/></g><g><path d="M7.720727443695068,8.264727592468262L15.389090543695069,8.264727592468262L15.389090543695069,31.272726592468263L7.720727443695068,31.272726592468263L7.720727443695068,8.264727592468262Z" fill="#2465CB" fill-opacity="1" style="mix-blend-mode:passthrough"/></g><g><path d="M15.389090538024902,8.264727592468262L23.0589084380249,8.264727592468262L23.0589084380249,31.272726592468263L15.389090538024902,31.272726592468263L15.389090538024902,8.264727592468262Z" fill="#ECB13D" fill-opacity="1" style="mix-blend-mode:passthrough"/></g><g><path d="M23.058908462524382,8.264727592468262L28.59781645517578,8.264727592468262L28.59781645517578,25.733817592468263C28.59781455517578,28.79287259246826,26.117961855175782,31.272726592468263,23.05890655517578,31.272726592468263L23.058908462524382,8.264727592468262Z" fill="#91B63D" fill-opacity="1" style="mix-blend-mode:passthrough"/></g></g></svg>