<svg xmlns="http://www.w3.org/2000/svg" xmlns:xlink="http://www.w3.org/1999/xlink" fill="none" version="1.1" width="32" height="32" viewBox="0 0 32 32"><defs><clipPath id="master_svg0_5166_25814"><rect x="0" y="0" width="32" height="32" rx="0"/></clipPath></defs><g clip-path="url(#master_svg0_5166_25814)"><g><path d="M30.237543,32C31.208693,32,32,31.208693,32,30.237541L32,1.7624578C32,0.79130757,31.208693,0,30.237541,0L1.7624578,0C0.79130757,0,0,0.79130757,0,1.7624578L0,30.225552C0,31.196701,0.79130757,31.98801,1.7624578,31.98801L30.237541,31.98801L30.237543,32Z" fill="#3C5A99" fill-opacity="1" style="mix-blend-mode:passthrough"/></g><g><path d="M22.084676714953613,32.000000327423095L22.084676714953613,19.602848327423096L26.245037014953613,19.602848327423096L26.868492014953613,14.771076727423095L22.084678614953614,14.771076727423095L22.084678614953614,11.689771627423095C22.084678614953614,10.286998727423097,22.468343714953612,9.339827527423097,24.482580014953612,9.339827527423097L27.036346014953615,9.339827527423097L27.036346014953615,5.023604397423096C26.59273501495361,4.963656897423096,25.070066014953614,4.831772327423096,23.307610014953614,4.831772327423096C19.614841414953613,4.831772327423096,17.097044014953614,7.085800127423095,17.097044014953614,11.210191727423096L17.097044014953614,14.771076727423095L12.924695014953613,14.771076727423095L12.924695014953613,19.602848327423096L17.097044014953614,19.602848327423096L17.097044014953614,32.000000327423095L22.084676714953613,32.000000327423095Z" fill="#FFFFFF" fill-opacity="1" style="mix-blend-mode:passthrough"/></g></g></svg>