<svg xmlns="http://www.w3.org/2000/svg" xmlns:xlink="http://www.w3.org/1999/xlink" fill="none" version="1.1" width="32" height="32" viewBox="0 0 32 32"><defs><clipPath id="master_svg0_5166_26042"><rect x="0" y="0" width="32" height="32" rx="0"/></clipPath></defs><g clip-path="url(#master_svg0_5166_26042)"><g><path d="M15.998666626930238,0.6666666269302368C7.532000226930236,0.6666666269302368,0.6666666269302368,7.530666926930237,0.6666666269302368,15.999999626930236C0.6666666269302368,22.77600162693024,5.058666826930237,28.522667626930236,11.153333626930237,30.552000626930237C11.918666626930237,30.689333626930235,12.161333626930237,30.237333626930237,12.161333626930237,29.830667626930236C12.161333626930237,29.465334626930236,12.169333626930237,28.448000626930238,12.161333626930237,27.168001626930238C7.897334226930237,28.093334626930236,7.0133344269302365,25.148001626930238,7.0133344269302365,25.148001626930238C6.316001026930237,23.376001626930236,5.313334626930237,22.905334626930237,5.313334626930237,22.905334626930237C3.9200011269302366,21.953335626930237,5.416001426930237,21.973335626930236,5.416001426930237,21.973335626930236C6.9533349269302365,22.080002626930238,7.765334726930237,23.552002626930236,7.765334726930237,23.552002626930236C9.133334726930237,25.896002626930237,11.353333626930237,25.21866862693024,12.226666626930237,24.826668626930235C12.368000626930236,23.837334626930236,12.762667626930236,23.158668626930236,13.201333626930237,22.778667626930236C9.796000126930236,22.389334626930236,6.217333926930237,21.076000626930238,6.217333926930237,15.197333626930236C6.217333926930237,13.524000626930237,6.814667326930237,12.156000626930236,7.796000626930237,11.082667626930236C7.638667226930237,10.697334626930237,7.110667326930237,9.136001226930237,7.945334026930237,7.0253349269302365C7.945334026930237,7.0253349269302365,9.234666426930238,6.613334726930237,12.161333626930237,8.598668226930236C13.412858626930237,8.257331026930236,14.704100626930236,8.083372226930237,16.001332626930235,8.081335226930236C17.302666626930236,8.088001326930236,18.614666626930237,8.257334826930236,19.841333626930236,8.598668226930236C22.768000626930238,6.614668026930237,24.053333626930236,7.0253349269302365,24.053333626930236,7.0253349269302365C24.889334626930236,9.136001226930237,24.362667626930236,10.697333626930236,24.205334626930238,11.082667626930236C25.186666626930236,12.156001626930237,25.782667626930238,13.524001626930238,25.782667626930238,15.197333626930236C25.782667626930238,21.09066862693024,22.197334626930235,22.385334626930238,18.78133462693024,22.762669626930236C19.330667626930236,23.238668626930238,19.830667626930236,24.158668626930236,19.830667626930236,25.58933462693024L19.830667626930236,29.834667626930237C19.830667626930236,30.24533562693024,20.078667626930237,30.697334626930235,20.857334626930236,30.549334626930236C26.945333626930235,28.518667626930238,31.333334626930238,22.77333362693024,31.333334626930238,15.999999626930236C31.333334626930238,7.530666926930237,24.469334626930237,0.6666666269302368,15.998666626930238,0.6666666269302368Z" fill="#000000" fill-opacity="1" style="mix-blend-mode:passthrough"/></g></g></svg>