<svg xmlns="http://www.w3.org/2000/svg" xmlns:xlink="http://www.w3.org/1999/xlink" fill="none" version="1.1" width="32" height="32" viewBox="0 0 32 32"><defs><clipPath id="master_svg0_5166_26162"><rect x="0" y="0" width="32" height="32" rx="0"/></clipPath></defs><g clip-path="url(#master_svg0_5166_26162)"><g><path d="M25.750704455261232,32L6.25070665526123,32C4.99748611526123,31.991934,3.9889483452612304,30.967863,4.00004005432123,29.714666L4.00004005432123,2.2853334C4.00004005432123,1.0213333,5.00537345526123,0,6.25070665526123,0L20.50004145526123,0L28.00004145526123,7.6186666L28.00004145526123,29.714668C28.00004145526123,30.978668,26.99470845526123,32,25.74937345526123,32L25.750704455261232,32Z" fill="#43A047" fill-opacity="1" style="mix-blend-mode:passthrough"/></g><g><path d="M28.00004005432129,7.6186666L20.50004005432129,7.6186666L20.50004005432129,0L28.00004005432129,7.6186666Z" fill="#C8E6C9" fill-opacity="1" style="mix-blend-mode:passthrough"/></g><g><path d="M20.50004005432129,7.618666648864746L28.00004005432129,15.239999748864747L28.00004005432129,7.618666648864746L20.50004005432129,7.618666648864746Z" fill="#2E7D32" fill-opacity="1" style="mix-blend-mode:passthrough"/></g><g><path d="M21.25070571899414,15.238666534423828L9.25070571899414,15.238666534423828L9.25070571899414,25.90533453442383L22.749372718994138,25.90533453442383L22.749372718994138,15.238667488098148L21.25070571899414,15.238666534423828ZM10.748040218994142,16.760000234423828L13.748040218994142,16.760000234423828L13.748040218994142,18.284000434423827L10.748040218994142,18.284000434423827L10.748040218994142,16.760000234423828ZM10.748040218994142,19.808000534423826L13.748040218994142,19.808000534423826L13.748040218994142,21.333333934423827L10.748040218994142,21.333333934423827L10.748040218994142,19.80933383442383L10.748040218994142,19.808000534423826ZM10.748040218994142,22.85600093442383L13.748040218994142,22.85600093442383L13.748040218994142,24.380001034423827L10.748040218994142,24.380001034423827L10.748040218994142,22.85600093442383ZM21.248039718994143,24.380001034423827L15.24803921899414,24.380001034423827L15.24803921899414,22.85600093442383L21.248039718994143,22.85600093442383L21.248039718994143,24.380001034423827ZM21.248039718994143,21.33200073442383L15.24803921899414,21.33200073442383L15.24803921899414,19.808000534423826L21.248039718994143,19.808000534423826L21.248039718994143,21.333333934423827L21.248039718994143,21.33200073442383ZM21.248039718994143,18.284000434423827L15.24803921899414,18.284000434423827L15.24803921899414,16.760000234423828L21.248039718994143,16.760000234423828L21.248039718994143,18.284000434423827Z" fill="#E8F5E9" fill-opacity="1" style="mix-blend-mode:passthrough"/></g></g></svg>