<svg xmlns="http://www.w3.org/2000/svg" xmlns:xlink="http://www.w3.org/1999/xlink" fill="none" version="1.1" width="32" height="32" viewBox="0 0 32 32"><defs><clipPath id="master_svg0_5166_25788"><rect x="0" y="0" width="32" height="32" rx="0"/></clipPath></defs><g clip-path="url(#master_svg0_5166_25788)"><g><path d="M1.7599999904632568,22.201599029541015L11.638399790463257,5.097599029541016L20.195199990463255,10.038398729541015L10.321599690463257,27.142399029541014L1.7599999904632568,22.201599029541015Z" fill="#FBBC04" fill-opacity="1" style="mix-blend-mode:passthrough"/></g><g><path d="M30.152000270141603,22.142401256484984L20.2719993701416,5.032000056484986C19.017982470141604,2.577952386484985,15.998690570141601,1.6242113064849852,13.562508570141603,2.9125900264849856C11.126327510141602,4.200968756484985,10.2151117301416,7.233365256484985,11.5375995601416,9.651200556484985C11.593599320141601,9.756800856484986,11.652799610141601,9.859200756484984,11.715199470141602,9.961600556484985L21.6000002701416,27.072000256484987C22.960867270141602,29.395136256484985,25.9312172701416,30.201015256484986,28.279623270141602,28.884235256484985C30.628029270141603,27.567455256484987,31.489826270141602,24.612843256484986,30.2176022701416,22.240002256484985C30.196802270141603,22.200001256484985,30.174402270141602,22.163202256484986,30.1520022701416,22.124802256484987L30.1520022701416,22.136002256484986L30.152000270141603,22.142401256484984Z" fill="#4285F4" fill-opacity="1" style="mix-blend-mode:passthrough"/></g><g><path d="M11.034542192781068,24.634453821850585Q11.034542192781068,24.755764921850584,11.028589392781067,24.876929721850587Q11.022636492781066,24.998094521850586,11.010746092781067,25.118821121850587Q10.998854792781067,25.239547721850585,10.981054392781067,25.359545221850585Q10.963254092781067,25.479542721850585,10.939586792781068,25.598522621850584Q10.915919392781067,25.717502621850585,10.886443292781067,25.835177421850588Q10.856967092781067,25.952853221850585,10.821751692781067,26.068940121850588Q10.786536292781067,26.185027121850588,10.745667592781066,26.299246321850585Q10.704797892781066,26.413466021850585,10.658372992781066,26.525542221850586Q10.611949092781067,26.637619021850586,10.560080692781067,26.747283021850585Q10.508212192781066,26.856946421850587,10.451026092781067,26.963933021850586Q10.393839992781066,27.070919021850585,10.331472492781067,27.174971121850586Q10.269105092781066,27.279022221850585,10.201706992781068,27.379888521850585Q10.134308892781068,27.480754821850585,10.062043292781066,27.578192721850584Q9.989777692781066,27.675630521850586,9.912818092781066,27.769405321850584Q9.835857492781066,27.863179221850586,9.754387992781067,27.953064921850586Q9.672919392781067,28.042949721850587,9.587138292781066,28.128729821850584Q9.501357192781066,28.21450902185059,9.411470492781067,28.295976621850585Q9.321583892781067,28.377443321850585,9.227807192781066,28.454402921850587Q9.134030892781066,28.531361621850586,9.036591192781067,28.603626221850586Q8.939151892781066,28.675890921850588,8.838283692781067,28.743287121850585Q8.737415892781067,28.810684221850586,8.633362392781066,28.873049721850585Q8.529308892781067,28.935416221850588,8.422320492781067,28.992602321850583Q8.315332092781066,29.049787521850586,8.205666692781067,29.101655021850586Q8.096000792781066,29.153521521850585,7.983922092781067,29.199945421850586Q7.871843492781067,29.246368421850583,7.757622392781067,29.287238121850585Q7.643401292781067,29.328105921850586,7.527311892781067,29.363321321850584Q7.411222592781067,29.398536721850586,7.293544892781067,29.428012821850587Q7.1758676927810665,29.457488021850587,7.056885792781067,29.481154421850587Q6.937903992781067,29.504820821850586,6.817903592781067,29.522621121850584Q6.697904192781067,29.540421521850586,6.5771752927810665,29.552312821850585Q6.456446792781067,29.564202321850587,6.335279592781067,29.570154221850586Q6.214112892781067,29.576107021850586,6.092799792781067,29.576107021850586Q5.971486692781067,29.576107021850586,5.850319992781067,29.570154221850586Q5.729152792781067,29.564201321850586,5.608424292781067,29.55231192185059Q5.4876952927810665,29.540420521850585,5.367695492781067,29.522621121850584Q5.247695092781067,29.504820821850586,5.128713292781066,29.481154421850587Q5.009731392781067,29.457488021850587,4.892053992781067,29.428011921850587Q4.774376792781067,29.398536721850586,4.658287692781067,29.363321321850584Q4.542198292781067,29.328105921850586,4.427976492781067,29.287238121850585Q4.313755192781067,29.246368421850583,4.201676492781067,29.199945421850586Q4.089597792781067,29.153521521850585,3.979932192781067,29.101654021850585Q3.870266592781067,29.049787521850586,3.763278092781067,28.992602321850583Q3.656289692781067,28.935416221850588,3.552236192781067,28.873050721850586Q3.448182692781067,28.810684221850586,3.347314492781067,28.743287121850585Q3.246446492781067,28.675890921850588,3.149006992781067,28.603626221850586Q3.0515676927810667,28.531361621850586,2.957791592781067,28.454402921850587Q2.864015192781067,28.377443321850585,2.774128292781067,28.295976621850585Q2.684241292781067,28.21450902185059,2.5984600927810666,28.128729821850584Q2.512678692781067,28.042949721850587,2.431209992781067,27.953063921850585Q2.349741192781067,27.863179221850586,2.272781092781067,27.769405321850584Q2.195821092781067,27.675630521850586,2.123554942781067,27.578192721850584Q2.0512888427810667,27.480754821850585,1.983891012781067,27.379889021850587Q1.9164931227810669,27.279022721850588,1.8541257927810668,27.174970621850587Q1.791758532781067,27.070919021850585,1.734571992781067,26.963932521850587Q1.677385452781067,26.856946021850586,1.625517452781067,26.747282021850587Q1.5736494627810669,26.637618021850585,1.527225012781067,26.525541821850588Q1.480800572781067,26.413465521850586,1.439931452781067,26.299246321850585Q1.3990623827810669,26.185027121850588,1.3638470927810669,26.068940121850588Q1.328631792781067,25.952853221850585,1.2991551427810668,25.835177921850587Q1.2696785027810669,25.717502121850586,1.2460115257810669,25.598522221850587Q1.2223445477810668,25.479542721850585,1.204544245781067,25.359545221850585Q1.186743940781067,25.239547721850585,1.174853196781067,25.118821121850587Q1.1629624497810669,24.998094521850586,1.1570099061810668,24.876929721850587Q1.151057362561067,24.755764921850584,1.151057362561067,24.634453821850585Q1.151057362561067,24.513142621850587,1.1570099070810669,24.391978221850586Q1.1629624517810668,24.270813421850587,1.174853199781067,24.150086921850587Q1.186743948781067,24.029360321850586,1.2045442537810669,23.909362321850587Q1.222344562781067,23.789364821850587,1.2460115407810668,23.670384921850587Q1.269678522781067,23.551404921850587,1.299155162781067,23.433729921850585Q1.328631822781067,23.316054621850586,1.3638471027810668,23.199967421850587Q1.3990623927810668,23.083879921850585,1.439931482781067,22.969660721850587Q1.480800572781067,22.855441121850586,1.527225042781067,22.743364621850585Q1.5736494627810669,22.631288021850587,1.6255174327810669,22.521624321850584Q1.677385452781067,22.411960621850586,1.734571992781067,22.304974321850587Q1.791758532781067,22.197987521850585,1.8541257927810668,22.093935921850587Q1.9164931227810669,21.989884421850586,1.983891012781067,21.889018021850585Q2.0512888427810667,21.788151721850586,2.123554942781067,21.690714121850586Q2.195821092781067,21.593276521850587,2.272781092781067,21.499502021850585Q2.349741192781067,21.405727621850588,2.431209892781067,21.315842121850586Q2.512678692781067,21.225956821850588,2.5984600927810666,21.140177121850584Q2.684241292781067,21.054397421850584,2.774128292781067,20.972930221850586Q2.864015192781067,20.891462821850585,2.957791492781067,20.814504121850586Q3.051567592781067,20.737545321850586,3.149006992781067,20.665280581850585Q3.246446492781067,20.593015791850586,3.347314492781067,20.525619151850584Q3.448182692781067,20.458222511850586,3.552236192781067,20.395856261850586Q3.656289692781067,20.333490071850587,3.763278392781067,20.276304601850587Q3.870266592781067,20.219119071850585,3.979932192781067,20.167252061850586Q4.089597792781067,20.115385051850588,4.201676492781067,20.068961411850587Q4.313755192781067,20.022537801850586,4.427976492781067,19.981669421850587Q4.542198292781067,19.940801081850587,4.658287692781067,19.905586431850587Q4.774376792781067,19.870371761850585,4.8920541927810675,19.840895651850587Q5.009731392781067,19.811419541850587,5.128713492781067,19.787752985850585Q5.247695092781067,19.764086432850586,5.367695492781067,19.746286447850586Q5.4876952927810665,19.728486463850587,5.608424292781067,19.716595930850588Q5.729152792781067,19.704705395850585,5.850319992781067,19.698752958750585Q5.971486692781067,19.692800521850586,6.092799792781067,19.692800521850586Q6.214112892781067,19.692800521850586,6.335280092781067,19.698752958750585Q6.456446792781067,19.704705395850585,6.577175692781067,19.716595930850588Q6.697904192781067,19.728486463850587,6.817903592781067,19.746286447850586Q6.937903492781067,19.764086432850586,7.056885392781067,19.787752985850585Q7.175867192781067,19.811419541850587,7.293544892781067,19.840895651850587Q7.411222592781067,19.870371761850585,7.527311892781067,19.905586421850586Q7.643401292781067,19.940801081850587,7.757622792781067,19.981669421850587Q7.871843492781067,20.022537801850586,7.983922092781067,20.068961411850587Q8.096000792781066,20.115385051850588,8.205666192781067,20.167252061850586Q8.315332492781067,20.219119071850585,8.422320992781067,20.276304601850587Q8.529309392781066,20.333490071850587,8.633362892781067,20.395856261850586Q8.737416392781068,20.458222511850586,8.838284592781067,20.525619151850584Q8.939152792781066,20.593015791850586,9.036592092781067,20.665280581850585Q9.134031392781067,20.737545321850586,9.227808092781068,20.814504121850586Q9.321583892781067,20.891462821850585,9.411470492781067,20.972930221850586Q9.501357192781066,21.054397421850584,9.587139292781067,21.140177121850584Q9.672920392781068,21.225956821850588,9.754388892781067,21.315842121850586Q9.835858492781067,21.405727621850588,9.912818092781066,21.499502021850585Q9.989777692781066,21.593276521850587,10.062044292781067,21.690714121850586Q10.134309892781067,21.788151721850586,10.201707992781067,21.889018021850585Q10.269105092781066,21.989884421850586,10.331472492781067,22.093935921850587Q10.393839992781066,22.197987521850585,10.451026992781067,22.304974321850587Q10.508213192781067,22.411960621850586,10.560081592781067,22.521624321850584Q10.611949092781067,22.631288021850587,10.658373992781067,22.743364621850585Q10.704798792781068,22.855441121850586,10.745667592781066,22.969660521850585Q10.786536292781067,23.083879921850585,10.821751692781067,23.199967421850587Q10.856967092781067,23.316054621850586,10.886444192781067,23.433729921850585Q10.915921292781066,23.551404921850587,10.939587692781068,23.670384921850587Q10.963255092781067,23.789364821850587,10.981055392781068,23.909362821850586Q10.998854792781067,24.029360721850587,11.010746092781067,24.150087321850584Q11.022636492781066,24.270813921850586,11.028589392781067,24.391978221850586Q11.034542192781068,24.513142621850587,11.034542192781068,24.634453821850585Z" fill="#34A853" fill-opacity="1" style="mix-blend-mode:passthrough"/></g></g></svg>