<svg xmlns="http://www.w3.org/2000/svg" xmlns:xlink="http://www.w3.org/1999/xlink" fill="none" version="1.1" width="32" height="28.591062545776367" viewBox="0 0 32 28.591062545776367"><defs><clipPath id="master_svg0_4583_74670"><rect x="0" y="0" width="32" height="28.591062545776367" rx="0"/></clipPath></defs><g clip-path="url(#master_svg0_4583_74670)"><g><path d="M2.4192438,24.50399209375L3.8304696,26.94156359375C4.1237111,27.454737693749998,4.5452461,27.85794449375,5.0400915,28.15118689375L10.080183,19.42724609375L0,19.42724609375C0,19.99540156375,0.14662085,20.56355699375,0.43986255,21.07673049375L2.4192438,24.50399209375Z" fill="#0066DA" fill-opacity="1" style="mix-blend-mode:passthrough"/></g><g><path d="M16,9.163788753515625L10.959908,0.439849853515625C10.465062,0.733091503515625,10.043529,1.136298773515625,9.7502861,1.649471753515625L0.43986282,17.777763853515626C0.15201405,18.279868853515627,0.00038328013,18.848483853515624,0,19.427247853515624L10.080183,19.427247853515624L16,9.163788753515625Z" fill="#00AC47" fill-opacity="1" style="mix-blend-mode:passthrough"/></g><g><path d="M26.9598927828125,28.15118689375C27.4547381828125,27.85794449375,27.8762735828125,27.454737693749998,28.1695160828125,26.94156359375L28.7559990828125,25.93354609375L31.5601205828125,21.07673049375C31.8533630828125,20.56355699375,31.9999813828125,19.99540156375,31.9999813828125,19.42724609375L21.9190673828125,19.42724609375L24.0641307828125,23.64259529375L26.9598927828125,28.15118689375Z" fill="#EA4335" fill-opacity="1" style="mix-blend-mode:passthrough"/></g><g><path d="M15.999991402343749,9.1638021L21.040082902343748,0.43986252C20.54523660234375,0.14662084,19.97708130234375,0,19.39059830234375,0L12.60938440234375,0C12.02290170234375,0,11.45474541234375,0.16494845,10.95989990234375,0.43986252L15.999991402343749,9.1638021Z" fill="#00832D" fill-opacity="1" style="mix-blend-mode:passthrough"/></g><g><path d="M21.91982509765625,19.42724609375L10.080191597656249,19.42724609375L5.04010009765625,28.15118689375C5.53494560765625,28.44442939375,6.10310109765625,28.591048193749998,6.68958459765625,28.591048193749998L25.31043409765625,28.591048193749998C25.89691509765625,28.591048193749998,26.46507309765625,28.42610069375,26.95991709765625,28.15118689375L21.91982509765625,19.42724609375Z" fill="#2684FC" fill-opacity="1" style="mix-blend-mode:passthrough"/></g><g><path d="M26.904925,9.713617353515625L22.2497134,1.649471753515625C21.9564719,1.136298773515625,21.5349364,0.733091503515625,21.0400915,0.439849853515625L16,9.163788753515625L21.919816,19.427247853515624L31.981671,19.427247853515624C31.981671,18.859092853515627,31.835051,18.290937853515626,31.541811,17.777763853515626L26.904925,9.713617353515625Z" fill="#FFBA00" fill-opacity="1" style="mix-blend-mode:passthrough"/></g></g></svg>