<svg xmlns="http://www.w3.org/2000/svg" xmlns:xlink="http://www.w3.org/1999/xlink" fill="none" version="1.1" width="32" height="32" viewBox="0 0 32 32"><defs><clipPath id="master_svg0_5166_25752"><rect x="0" y="0" width="32" height="32" rx="0"/></clipPath></defs><g clip-path="url(#master_svg0_5166_25752)"><g><path d="M24.216175787612915,10.571367095672608L24.216175787612915,6.777670395672607C25.238847787612915,6.297187295672607,25.895042787612915,5.272465695672607,25.903594787612914,4.142576195672607L25.903594787612914,4.052607095672608C25.899206787612915,2.4408823956726073,24.594320787612915,1.1351034956726074,22.982599787612916,1.1296116956726074L22.892629787612915,1.1296116956726074C21.280904787612915,1.1339995956726074,19.975126787612915,2.4388861956726076,19.969634787612915,4.050607695672608L19.969634787612915,4.140576795672607C19.974111787612916,5.258288395672608,20.614955787612914,6.275804495672608,21.621066787612914,6.762675295672607L21.638061787612916,6.7706722956726075L21.655055787612916,6.778669395672607L21.655055787612916,10.580362095672607C20.197929787612914,10.802417095672608,18.826499787612914,11.409448095672607,17.682422787612914,12.338758095672608L17.697418787612914,12.326761095672607L17.713413787612915,12.314765095672607L7.279997087612915,4.189559895672607C7.844833587612915,2.0712286956726076,6.243272087612915,-0.0052021099273925776,4.050944287612915,0.003080595284607422C1.858616587612915,0.011363350772607422,0.27279036761291503,2.0998360956726074,0.8536164176129151,4.213839495672607C1.434442277612915,6.327842695672607,3.864721787612915,7.312882895672607,5.753522187612915,6.199868695672607L5.737528087612915,6.2078656956726075L5.721533087612915,6.215863195672608L15.979007787612915,14.201118095672607C15.072823787612915,15.551631095672608,14.591025787612915,17.14219209567261,14.595483787612915,18.768548095672607L14.595483787612915,18.79553909567261L14.595483787612915,18.79553909567261C14.595483787612915,20.58492409567261,15.162288787612916,22.24435409567261,16.123958787612914,23.600887095672608L16.106964787612917,23.575895095672607L12.985036787612914,26.697822095672606C12.735745787612915,26.616504095672607,12.475506787612915,26.57369209567261,12.213302787612916,26.57086509567261L12.208304787612915,26.57086509567261C10.711575787612915,26.570863095672607,9.498235987612915,27.784202095672608,9.498235987612915,29.280931095672607C9.498235987612915,30.77766009567261,10.711574787612916,31.990999095672606,12.208304787612915,31.990999095672606C13.705034787612915,31.990999095672606,14.918373787612914,30.777662095672607,14.918373787612914,29.28093309567261C14.915313787612915,29.004875095672606,14.869104787612915,28.730991095672607,14.781419787612915,28.46921109567261L14.786417787612915,28.488204095672607L14.791416787612915,28.507198095672607L17.879354787612915,25.419259095672608C19.328664787612915,26.531570095672606,21.105674787612916,27.132343095672606,22.932617787612916,27.127672095672608C27.267797787612913,27.131687095672607,30.880651787612916,23.808505095672608,31.238117787612914,19.48808809567261C31.595582787612916,15.167671095672608,28.578035787612915,11.295896095672607,24.301147787612916,10.587358095672608L24.205181787612915,10.574363095672608L24.216175787612915,10.571367095672608ZM22.930616787612916,23.06906809567261C20.571851787612914,23.063001095672607,18.664043787612915,21.146997095672607,18.668086787612914,18.788227095672607C18.672130787612915,16.429456095672606,20.586496787612916,14.520006095672608,22.945268787612914,14.522024095672608C25.304048787612913,14.524049095672607,27.215143787612917,16.436773095672606,27.215143787612917,18.795537095672607L27.215143787612917,18.798536095672606C27.215143787612917,21.158742095672608,25.301818787612916,23.072067095672608,22.941612787612915,23.072067095672608L22.930616787612916,23.06906809567261Z" fill="#FF7A59" fill-opacity="1" style="mix-blend-mode:passthrough"/></g></g></svg>