<svg xmlns="http://www.w3.org/2000/svg" xmlns:xlink="http://www.w3.org/1999/xlink" fill="none" version="1.1" width="32" height="32" viewBox="0 0 32 32"><defs><clipPath id="master_svg0_5166_25004"><rect x="0" y="0" width="32" height="32" rx="0"/></clipPath></defs><g clip-path="url(#master_svg0_5166_25004)"><g><path d="M15.31204227993164,28.718250133687974C9.84037587993164,24.910482133687974,7.248533279931641,18.190891133687973,8.656448359931641,11.663290133687973C9.64838697993164,7.199561233687973,11.680263479931641,3.4077924336879732,15.248045879931642,0.47997075368797304C15.61602307993164,0.19198832368797303,15.99999997993164,-0.399975596312027,16.49596977993164,0.41597467368797303C16.55996517993164,1.007938633687973,16.68795777993164,1.599902633687973,16.68795777993164,2.223864633687973L16.68795777993164,25.310459133687974C16.68795777993164,25.806428133687973,16.68795777993164,26.25440213368797,16.59196277993164,26.750371133687974C16.127990679931642,27.342336133687972,16.27198217993164,28.350275133687973,15.31204227993164,28.718250133687974Z" fill="#4AAC52" fill-opacity="1" style="mix-blend-mode:passthrough"/></g><g><path d="M16.271984098188476,27.006353778839113C16.271984098188476,18.542869778839112,16.271984098188476,10.111383878839112,16.303981778188476,1.6319007788391113C16.303981778188476,1.1999270888391114,16.175989151188478,0.7519544388391113,16.463972088188477,0.35197877883911133C17.679897268188476,1.9518812788391113,19.215805068188477,3.2318031788391113,20.335735368188477,4.9756970788391115C23.183561368188478,9.407427278839112,24.431486168188478,14.159137778839112,23.279556268188475,19.342821778839113C22.431608168188475,23.21458477883911,20.031753568188478,26.190403778839112,17.023937228188476,28.71825077883911C16.623962398188475,28.782245778839112,16.527967448188477,28.49426477883911,16.367977138188476,28.22228077883911C16.239984512188478,27.83830477883911,15.999999998188477,27.43832777883911,16.271984098188476,27.006353778839113Z" fill="#1C8A2F" fill-opacity="1" style="mix-blend-mode:passthrough"/></g><g><path d="M16.559965129321288,28.19028091620117C16.68795772932129,28.350271226201173,16.847948029321287,28.558258056201172,17.02393722932129,28.718248366201173C17.05593492932129,29.59819415620117,16.92794222932129,30.49414065620117,16.76795192932129,31.34208865620117C16.70395662932129,31.662069356201172,16.63995932932129,32.03004835620117,16.23998450932129,31.99804875620117C15.92000388932129,31.966051056201174,15.872007369321288,31.598073956201173,15.872007369321288,31.34208865620117C15.872007369321288,30.526138256201172,15.744014739321289,29.74218555620117,15.584024429321289,28.974233626201173C15.744014739321289,28.494262696201172,15.712017059321289,27.726308826201173,16.559965129321288,28.19028091620117Z" fill="#AEB18D" fill-opacity="1" style="mix-blend-mode:passthrough"/></g><g><path d="M16.55996518265381,28.19028088564453C15.936002732653808,28.06228828564453,15.840008732653809,28.654252985644533,15.53602791265381,28.94223598564453L15.312041282653809,28.71825028564453C15.840008732653809,28.28627588564453,15.56802559265381,27.374332425644532,16.287981032653807,27.00635528564453C16.36797528265381,27.406330105644532,16.46397018265381,27.80630683564453,16.55996518265381,28.19028088564453Z" fill="#80A96D" fill-opacity="1" style="mix-blend-mode:passthrough"/></g></g></svg>