<svg xmlns="http://www.w3.org/2000/svg" xmlns:xlink="http://www.w3.org/1999/xlink" fill="none" version="1.1" width="32" height="31.5" viewBox="0 0 32 31.5"><defs><clipPath id="master_svg0_4383_059285"><rect x="0" y="0" width="32" height="31.5" rx="0"/></clipPath></defs><g clip-path="url(#master_svg0_4383_059285)"><g><path d="M29.49998665625,24.250006185546876C27.74998665625,24.250006185546876,26.37498665625,24.375006185546876,25.24998665625,24.875006185546876C24.87498665625,25.000006185546876,24.37498665625,25.000006185546876,24.37498665625,25.375006185546876L24.74998665625,26.125006185546876C24.99998665625,26.500006185546876,25.37498665625,27.125006185546876,25.87498665625,27.500006185546876L27.24998665625,28.500006185546876L29.87498665625,29.750006185546876L31.24998665625,30.875006185546876L31.999988656249997,31.375006185546876L31.62498665625,30.625006185546876L30.99998665625,30.000006185546876C30.37498665625,29.125006185546876,29.62498665625,28.375006185546876,28.74998665625,27.750006185546876C27.99998665625,27.375006185546876,26.49998665625,26.625006185546876,26.24998665625,25.875006185546876L26.12498665625,25.875006185546876L27.62498665625,25.500006185546876L29.87498665625,25.125006185546876L30.87498665625,24.875006185546876L30.87498665625,24.625006185546876L29.74998665625,23.375006185546876C28.74998665625,22.375006185546876,27.49998665625,21.500006185546876,26.24998665625,20.625006185546876L23.99998665625,19.625006185546876C23.74998665625,19.500006185546876,23.24998665625,19.375006185546876,23.12498665625,19.125006185546876L22.24998665625,17.500006185546876L20.37498665625,13.750006185546875L19.37498665625,11.250006185546875C17.12498665625,7.500005685546875,14.62498765625,5.250005685546875,10.87498765625,3.125005685546875C10.12498765625,2.625005685546875,9.12498755625,2.500005685546875,8.12498755625,2.250005685546875L6.49998755625,2.125005685546875L5.49998755625,1.375005885546875C4.24998755625,0.625005845546875,0.99998755625,-1.124994114453125,0.12498755624999999,1.125005885546875C-0.5000124537499999,2.500005685546875,0.99998755625,3.875005685546875,1.49998755625,4.625005685546875L2.62498755625,6.250005685546875L2.99998755625,7.375005685546875C3.37498755625,8.375005685546874,3.62498755625,9.500005685546874,4.12498755625,10.375006185546875L4.87498755625,11.625006185546875C5.12498755625,11.875006185546875,5.37498755625,12.000006185546875,5.49998755625,12.375006185546875C5.12498755625,12.875006185546875,5.12498755625,13.500006185546875,4.99998755625,14.000006185546875C4.12498755625,16.500006185546876,4.49998755625,19.500006185546876,5.62498755625,21.375006185546876C5.87498755625,21.875006185546876,6.74998755625,23.125006185546876,7.87498755625,22.625006185546876C8.87498755625,22.250006185546876,8.62498755625,21.000006185546876,8.87498755625,19.875006185546876L8.99998755625,19.375006185546876L9.99998765625,21.125006185546876C10.62498765625,22.250006185546876,11.74998765625,23.375006185546876,12.74998765625,24.125006185546876C13.24998765625,24.500006185546876,13.74998765625,25.125006185546876,14.37498765625,25.375006185546876L13.87498765625,24.875006185546876L12.74998765625,23.625006185546876C11.74998765625,22.375006185546876,10.99998765625,21.000006185546876,10.24998765625,19.625006185546876L9.37498755625,17.500006185546876L8.99998755625,16.750006185546876C8.62498755625,17.250006185546876,8.12498755625,17.625006185546876,7.87498755625,18.250006185546876C7.49998755625,19.125006185546876,7.49998755625,20.375006185546876,7.37498755625,21.500006185546876L7.24998755625,21.500006185546876C6.49998755625,21.375006185546876,6.24998755625,20.625006185546876,5.99998755625,20.000006185546876C5.37498755625,18.500006185546876,5.24998755625,16.000006185546873,5.87498755625,14.250006185546875C5.99998755625,13.750006185546875,6.62498755625,12.375006185546875,6.37498755625,11.875006185546875C6.24998755625,11.500006185546875,5.87498755625,11.250006185546875,5.62498755625,11.000006185546875L4.74998755625,9.500005685546874L3.49998755625,5.750005685546875L2.37498755625,4.125005685546875C1.9999875562499998,3.500005685546875,1.49998755625,3.125005685546875,1.12498755625,2.375005685546875C0.99998755625,2.125005685546875,0.87498754625,1.750005885546875,1.12498755625,1.500005885546875L1.37498755625,1.250005885546875C1.62498755625,1.000005845546875,2.49998755625,1.250005885546875,2.74998755625,1.375005885546875C3.49998755625,1.750005885546875,4.24998755625,2.0000058855468748,4.87498755625,2.500005685546875L5.87498755625,3.250005685546875L6.37498755625,3.250005685546875C7.12498755625,3.375005685546875,7.87498755625,3.250005685546875,8.49998755625,3.500005685546875C9.62498755625,3.875005685546875,10.74998765625,4.375005685546875,11.62498765625,5.000005685546875C14.49998765625,6.750005685546875,16.87498665625,9.375005685546874,18.37498665625,12.375006185546875C18.74998665625,12.875006185546875,18.74998665625,13.375006185546875,18.99998665625,13.875006185546875L20.49998665625,17.125006185546876C20.99998665625,18.125006185546876,21.37498665625,19.125006185546876,21.99998665625,20.000006185546876C22.37498665625,20.500006185546876,23.74998665625,20.750006185546876,24.24998665625,21.000006185546876L25.74998665625,21.500006185546876L27.99998665625,23.000006185546876C28.24998665625,23.250006185546876,29.37498665625,23.875006185546876,29.49998665625,24.250006185546876Z" fill="#00546B" fill-opacity="1" style="mix-blend-mode:passthrough"/></g><g><path d="M7.25,5.375L6.375,5.5L7.125,6.375L7.625,7.5L7.625,7.375C8,7.25,8.125,6.875,8.125,6.375L7.875,5.875L7.25,5.375Z" fill="#00546B" fill-opacity="1" style="mix-blend-mode:passthrough"/></g></g></svg>