<svg xmlns="http://www.w3.org/2000/svg" xmlns:xlink="http://www.w3.org/1999/xlink" fill="none" version="1.1" width="32" height="32" viewBox="0 0 32 32"><defs><clipPath id="master_svg0_5166_24765"><rect x="0" y="0" width="32" height="32" rx="0"/></clipPath></defs><g clip-path="url(#master_svg0_5166_24765)"><g><path d="M20.342665123535156,0.073339298828125L2.595996823535156,1.380005798828125C1.1653308235351563,1.504006098828125,0.6666641235351562,2.440005998828125,0.6666641235351562,3.556006198828125L0.6666641235351562,22.968005798828123C0.6666641235351562,23.840003798828125,0.9773307735351562,24.585338798828126,1.7253308235351563,25.581340798828126L5.897330723535156,30.994672798828127C6.581330823535156,31.865338798828127,7.203997623535156,32.053340798828124,8.513330423535155,31.988006798828124L29.122663123535155,30.745341798828125C30.865330123535156,30.621341798828126,31.363996123535156,29.812007798828127,31.363996123535156,28.442676798828124L31.363996123535156,6.605339098828125C31.363996123535156,5.898672098828125,31.083998123535157,5.693339298828125,30.258663123535158,5.092006198828125L30.117329123535157,4.988006098828125L24.453331123535158,1.006672598828125C23.083998123535157,0.012005964828125,22.519997123535155,-0.113327351171875,20.342665123535156,0.073339298828125ZM8.981330823535156,6.246672598828125C7.297330823535156,6.361339098828125,6.915998023535156,6.386672498828125,5.959998123535156,5.610672998828125L3.529330923535156,3.680005998828125C3.281330823535156,3.430672598828125,3.406664323535156,3.120006098828125,4.029330923535156,3.058672698828125L21.090664123535156,1.814672498828125C22.522665123535155,1.689338998828125,23.269331123535157,2.188005898828125,23.829330123535158,2.622672598828125L26.755997123535156,4.738672698828125C26.879997123535155,4.801339198828125,27.190664123535157,5.173339398828125,26.818664123535157,5.173339398828125L9.197332423535157,6.232005598828125L8.981330823535156,6.246672598828125L8.981330823535156,6.246672598828125ZM7.017331123535156,28.257339798828124L7.017331123535156,9.716006298828125C7.017331123535156,8.908006698828125,7.2666640235351565,8.534672698828125,8.014664623535158,8.472005798828125L28.249332123535158,7.290672298828125C28.935997123535156,7.228005898828125,29.246664123535155,7.664006198828125,29.246664123535155,8.472005798828125L29.246664123535155,26.885341798828126C29.246664123535155,27.697339798828125,29.122663123535155,28.381339798828126,28.001331123535156,28.442672798828124L8.637330523535155,29.562673798828126C7.514663723535156,29.625341798828124,7.017330123535157,29.253339798828126,7.017331123535156,28.257339798828124L7.017331123535156,28.257339798828124ZM26.134664123535156,10.710673798828125C26.258665123535156,11.273340798828125,26.134664123535156,11.833341798828124,25.571997123535155,11.897341798828124L24.639997123535156,12.082674798828124L24.639997123535156,25.768005798828124C23.829330123535158,26.204005798828124,23.082664123535157,26.452006798828126,22.459997123535157,26.452006798828126C21.463997123535155,26.452006798828126,21.214664123535155,26.142673798828124,20.466663123535156,25.209340798828126L14.365330123535156,15.629342798828125L14.365330123535156,24.898673798828124L16.29599712353516,25.334674798828125C16.29599712353516,25.334674798828125,16.29599712353516,26.454673798828125,14.737330123535155,26.454673798828125L10.442664123535156,26.702674798828124C10.317331323535155,26.453342798828125,10.442664123535156,25.830676798828126,10.878664123535156,25.706676798828124L11.998664123535157,25.397342798828124L11.998664123535157,13.137339798828124L10.442664123535156,13.013339798828126C10.318664523535157,12.453340798828124,10.629330623535155,11.645339798828125,11.501330123535157,11.582673798828125L16.109331123535156,11.273339798828125L22.459997123535157,20.978671798828124L22.459997123535157,12.392004798828125L20.841331123535156,12.205337798828126C20.715998123535158,11.521338798828126,21.214664123535155,11.022670798828125,21.837332123535155,10.961337798828126L26.134664123535156,10.710673798828125L26.134664123535156,10.710673798828125Z" fill-rule="evenodd" fill="#000000" fill-opacity="1" style="mix-blend-mode:passthrough"/></g></g></svg>