<svg xmlns="http://www.w3.org/2000/svg" xmlns:xlink="http://www.w3.org/1999/xlink" fill="none" version="1.1" width="32" height="32" viewBox="0 0 32 32"><defs><clipPath id="master_svg0_5166_24769"><rect x="0" y="0" width="32" height="32" rx="0"/></clipPath></defs><g clip-path="url(#master_svg0_5166_24769)"><g><path d="M15.667200388076783,5.907199859617432C23.03360038807678,5.8207998276174315,29.222401388076783,7.740799926617432,29.48160038807678,10.185600326617433C29.74079938807678,12.633600226617432,23.96800038807678,14.691200726617431,16.601600388076783,14.774401226617432C9.235200188076782,14.864000826617431,3.0432000180767824,12.944000226617431,2.787199974076782,10.49600032661743C2.528000118076782,8.051199926617432,8.297599988076783,5.993599891617432,15.667200388076783,5.907199859617432Z" fill="#FF0000" fill-opacity="1" style="mix-blend-mode:passthrough"/></g><g><path d="M2.7871999740725344,16.04800032277832C2.774399995772534,15.94240002277832,2.774399995772534,15.83680062277832,2.7871999740725344,15.734400722778322L2.7871999740725344,10.88640022277832L2.793600081972534,10.88640022277832C2.7808001041725343,10.98880005277832,2.784000158272534,11.09119987277832,2.793600081972534,11.19680023277832C3.049600119972534,13.64480022277832,9.241599749972533,15.56159972277832,16.60800004997253,15.478400222778319C23.657601049972534,15.39519982277832,29.244801049972533,13.51039982277832,29.488000049972534,11.20320034277832L29.488000049972534,16.05120082277832L29.478400049972535,16.05120082277832C29.241601049972534,18.35840032277832,23.651200049972534,20.249601322778318,16.598400049972533,20.332801822778322C9.235199649972534,20.412799822778318,3.0432000199725344,18.496000322778322,2.7871999740725344,16.04800032277832Z" fill="#FF0000" fill-opacity="1" style="mix-blend-mode:passthrough"/></g><g><path d="M2.7871999740725344,21.721599565942384C2.774399995772534,21.615999265942385,2.774399995772534,21.510398865942385,2.7871999740725344,21.407999065942384L2.7871999740725344,16.559999465942383L2.793600081972534,16.559999465942383C2.7808001041725343,16.662399295942382,2.784000158272534,16.767999645942382,2.793600081972534,16.87039947594238C3.049600119972534,19.318399465942385,9.241599749972533,21.23519896594238,16.60800004997253,21.152000465942383C23.657601049972534,21.068799965942382,29.244801049972533,19.180801365942383,29.488000049972534,16.876800535942383L29.488000049972534,21.721599565942384L29.478400049972535,21.721599565942384C29.244799049972535,24.03199956594238,23.654401049972535,25.920000065942382,16.601600049972532,26.003200565942382C9.235200649972533,26.08640096594238,3.046401019972534,24.16960146594238,2.7871999740725344,21.721599565942384Z" fill="#FF0000" fill-opacity="1" style="mix-blend-mode:passthrough"/></g><g><path d="M2.78719997392334,27.395200873638153C2.77439999392334,27.289600873638154,2.77439999392334,27.183999873638154,2.78719997392334,27.081599873638154L2.78719997392334,22.233600873638153L2.79360008392334,22.233600873638153C2.78080010392334,22.336000873638152,2.7840001539233397,22.44160087363815,2.79360008392334,22.544000873638154C3.04960012392334,24.992000873638155,9.24160008392334,26.908799873638152,16.60800008392334,26.825599873638154C23.65759908392334,26.742399873638153,29.24480008392334,24.857599873638154,29.48799808392334,22.550399873638153L29.48799808392334,27.39839987363815L29.47840008392334,27.39839987363815C29.24159908392334,29.708799873638153,23.65119808392334,31.596799873638155,16.598400083923337,31.680000873638154C9.23519988392334,31.76320087363815,3.0464000739233397,29.843200873638153,2.78719997392334,27.395200873638153ZM22.42240008392334,0.31999999284744307L21.85600208392334,0.31999999284744307L21.85600208392334,4.038400073638153L24.51520108392334,4.038400073638153L24.87680308392334,3.430400073638153L22.42560108392334,3.430400073638153L22.42560108392334,0.31999999284744307L22.42240008392334,0.31999999284744307ZM14.66560008392334,0.5055999736381531L12.59200008392334,4.0416001736381535L13.276800083923339,4.0416001736381535L13.90080008392334,2.972800173638153L15.23839908392334,2.972800173638153L15.59040008392334,2.364800173638153L14.25280008392334,2.364800173638153L14.98240008392334,1.1392002136381532L16.688000083923342,4.038400073638153L17.37599908392334,4.038400073638153L15.28320008392334,0.49599999363815306C15.15520008392334,0.26559999563815306,14.81280008392334,0.26559999563815306,14.66560008392334,0.5055999736381531ZM18.68799908392334,0.9279999736381531L21.06560008392334,0.9279999736381531L21.41759808392334,0.3231999874381531L18.67200008392334,0.3231999874381531C17.71519808392334,0.3231999874381531,17.08479908392334,1.1552000036381531,17.08479908392334,2.182399973638153C17.08479908392334,3.2095998736381532,17.71519808392334,4.0416001736381535,18.67200008392334,4.0416001736381535L20.99520008392334,4.038400073638153L21.36000008392334,3.436800173638153L18.68799908392334,3.436800173638153C18.04480008392334,3.436800173638153,17.66720008392334,2.8768002736381533,17.66720008392334,2.182400173638153C17.66720008392334,1.4880000736381531,18.041599083923337,0.9280002136381531,18.68799908392334,0.9279999736381531ZM6.54720018392334,0.31999999284744307L4.09600018392334,0.31999999284744307C3.1392002139233397,0.31999999284744307,2.51200008392334,1.151999953638153,2.51200008392334,2.179199873638153C2.51200008392334,3.206399873638153,3.14240002392334,4.038399673638153,4.09600018392334,4.038399673638153L6.54720018392334,4.038399673638153C7.50400018392334,4.038399673638153,8.13119988392334,3.206399573638153,8.13119988392334,2.179199673638153C8.13119988392334,1.151999713638153,7.50080008392334,0.31999999284744307,6.54720018392334,0.31999999284744307ZM6.54720018392334,3.433599873638153L4.09600018392334,3.433599873638153C3.45280027392334,3.433599873638153,3.07520008392334,2.8735999736381532,3.07520008392334,2.179199873638153C3.07520008392334,1.484799773638153,3.4495999839233398,0.9279999736381531,4.09600018392334,0.9279999736381531L6.54720018392334,0.9279999736381531C7.19040008392334,0.9279999736381531,7.56800028392334,1.487999873638153,7.56800028392334,2.182399973638153C7.56800028392334,2.876799973638153,7.19040008392334,3.433599873638153,6.54720018392334,3.433599873638153ZM25.49760008392334,2.473599873638153L28.49280108392334,2.473599873638153L28.85440008392334,1.865599773638153L25.49760008392334,1.865599773638153C25.59360008392334,1.327999773638153,25.94880208392334,0.924799863638153,26.49280108392334,0.924799863638153L28.873599083923338,0.924799863638153L29.22560008392334,0.3199998736381531L26.47999908392334,0.3199998736381531C25.52320008392334,0.31999999284744307,24.89599908392334,1.151999953638153,24.89599908392334,2.179199873638153C24.89599908392334,3.206399873638153,25.52640008392334,4.038399673638153,26.47999908392334,4.038399673638153L28.80319908392334,4.0351995736381525L29.16799808392334,3.433599673638153L26.49600108392334,3.433599673638153C25.94240108392334,3.433599673638153,25.59040008392334,3.023999673638153,25.49760008392334,2.473599873638153ZM11.35680008392334,2.528000073638153C11.92319968392334,2.528000073638153,12.38399978392334,2.035200073638153,12.38399978392334,1.4240001736381531C12.38399978392334,0.8160001636381531,11.92319968392334,0.32000017166137307,11.35680008392334,0.32000017166137307L8.470399883923339,0.32000017166137307L8.470399883923339,4.038400073638153L9.104000083923339,4.038400073638153L9.104000083923339,0.9279999736381531L11.353599583923339,0.9279999736381531C11.60959908392334,0.9279999736381531,11.81759928392334,1.148800013638153,11.81759928392334,1.427199973638153C11.81759928392334,1.7023998736381531,11.60959908392334,1.9263998736381531,11.353599583923339,1.9263998736381531L9.54879948392334,1.9263998736381531L11.58399958392334,4.038399673638153L12.40319918392334,4.038399673638153L10.94719888392334,2.534399673638153L11.35680008392334,2.528000073638153Z" fill="#FF0000" fill-opacity="1" style="mix-blend-mode:passthrough"/></g></g></svg>