<svg xmlns="http://www.w3.org/2000/svg" xmlns:xlink="http://www.w3.org/1999/xlink" fill="none" version="1.1" width="31.043556213378906" height="32" viewBox="0 0 31.043556213378906 32"><defs><clipPath id="master_svg0_4383_059244"><rect x="0" y="0" width="31.043556213378906" height="32" rx="0"/></clipPath></defs><g clip-path="url(#master_svg0_4383_059244)"><g><g><path d="M23.22176355566406,23.295150603759765C23.425310555664062,21.599458603759764,23.364311555664063,21.350791603759767,24.627330555664063,21.625467603759766L24.947990555664063,21.653633603759765C25.919162555664062,21.697818603759767,27.189584555664062,21.497432603759766,27.935943555664064,21.150693603759766C29.542615555664064,20.405197603759767,30.49532355566406,19.160495603759767,28.91106755566406,19.487550603759765Q25.297315555664063,20.233047603759765,25.048864555664064,19.009399603759764C28.86479755566406,13.347539603759765,30.45997455566406,6.1603422037597655,29.083072555664064,4.401064903759766C25.32756455566406,-0.39760949624023434,18.82687355566406,1.8715745237597656,18.718095555664064,1.9304900737597657L18.683465555664064,1.9368846437597655C17.969438555664063,1.7887334837597657,17.170341555664063,1.7002163837597657,16.272668555664062,1.6857030737597656C14.637329555664062,1.6588317737597658,13.396439555664063,2.1144217837597656,12.455155555664062,2.828378103759766Q0.8582687356640625,-1.9493884962402346,1.3977776006640625,8.836905003759766C1.5125192956640625,11.131451603759766,4.6867759556640625,26.199399603759765,8.472677255664063,21.648170603759766Q9.856403355664062,19.983949603759765,11.193643555664062,18.576801603759765C11.857665555664063,19.017949603759767,12.652666555664062,19.242978603759767,13.486465555664063,19.162149603759765L13.550913555664062,19.107185603759767C13.530723555664062,19.313819603759764,13.539633555664063,19.515928603759765,13.576706555664062,19.755185603759767C12.601581555664062,20.844907603759765,12.888112555664062,21.036239603759764,10.938222855664062,21.437585603759764C8.965485055664063,21.844175603759766,10.124469755664062,22.568046603759765,10.880960455664063,22.757223603759765C11.798319555664062,22.986633603759767,13.920500555664063,23.311605603759766,15.354808555664063,21.304162603759767L15.297689555664062,21.533214603759767C15.680281555664063,21.839288603759766,15.654416555664062,23.733137603759765,15.708661555664062,25.086255603759767C15.762978555664063,26.439447603759767,15.853579555664062,27.702178603759766,16.129405555664064,28.446670603759767C16.405231555664063,29.191017603759764,16.73070455566406,31.108648603759764,19.293317555664064,30.559442603759766C21.435041555664064,30.100475603759765,23.072536555664062,29.439901603759765,23.22176355566406,23.295150603759765Z" fill="#000000" fill-opacity="1" style="mix-blend-mode:passthrough"/><path d="M14.937558555664063,29.114740603759767Q16.08203655566406,32.621564603759765,19.574832555664063,31.873008603759764Q22.04155955566406,31.344390603759766,23.104068555664064,29.831575603759767Q24.444011555664062,27.923746603759767,24.56313855566406,23.391902603759764Q24.575139555664062,23.290742603759767,24.592897555664063,23.138126603759765Q24.603061555664063,23.050765603759764,24.612466555664064,22.972726603759767L24.85864855566406,22.994350603759766L24.886932555664064,22.995637603759764Q26.95102655566406,23.089549603759767,28.501953555664063,22.369027603759765Q30.09684955566406,21.628995603759765,30.739780555664062,20.659232603759765Q31.628591555664062,19.318597603759766,30.465799555664063,18.434993603759764Q29.803380555664063,17.931621603759766,28.63946355566406,18.171899603759766Q27.674301555664062,18.371007603759764,27.020177555664063,18.415214603759765Q29.244630555664063,14.717997603759766,30.313991555664064,10.577713003759765Q31.631328555664062,5.477321603759766,30.140979555664064,3.5730903037597654Q27.390563555664063,0.05869380375976552,22.54910055566406,0.0008825037597657293Q19.961355555664063,-0.030017396240234362,18.527488555664064,0.5405570837597656Q17.477889555664063,0.3616192337597657,16.294384555664063,0.34248480375976564Q14.016029555664062,0.3050476037597656,12.296901555664062,1.3192046307597656Q6.400547955664062,-0.9502274962402342,3.2509547556640626,0.7612465637597656Q-0.2559095443359376,2.666860103759766,0.05606045566406248,8.904014603759766Q0.2454281556640625,12.690884603759766,2.2976540356640625,18.273239603759766Q3.4980800556640625,21.538574603759766,4.849857855664062,22.852458603759764Q5.920004855664063,23.892606603759766,7.143383455664062,23.840682603759767Q8.085022955664062,23.800716603759767,8.902908355664064,23.117761603759767Q9.431326855664063,23.779472603759764,10.555050855664062,24.060485603759766Q12.717783555664063,24.601333603759766,14.326777555664062,23.887735603759765Q14.334846555664063,24.116432603759765,14.342210555664062,24.380674603759765Q14.356597555664063,24.896905603759766,14.366346555664062,25.140067603759764Q14.475048555664063,27.848194603759765,14.869687555664063,28.913381603759767Q14.887755555664063,28.962139603759766,14.937558555664063,29.114740603759767ZM16.691865555664062,21.494548603759764L18.366851555664063,14.777724603759765L14.913740555664063,19.610666603759764L14.904258555664063,19.549478603759766Q14.875575555664062,19.364372603759765,14.887940555664063,19.237823603759765L15.211610555664063,15.925235603759766L12.979169555664063,17.829187603759767Q12.432022555664062,17.786689603759765,11.937033555664062,17.457839603759766L10.997155155664062,16.833424603759767L10.219839055664062,17.651376603759765Q8.851908255664062,19.090820603759767,7.439896155664062,20.789056603759764Q7.138239855664063,21.151693603759767,7.029449955664062,21.156310603759767Q6.962586355664063,21.159147603759767,6.722506955664063,20.925798603759766Q5.808978555664062,20.037879603759766,4.819431255664062,17.346164603759764Q2.9084225556640626,12.147941603759765,2.7394936556640626,8.769794903759767Q2.5119548556640625,4.220656603759766,4.5337805556640625,3.1220063037597656Q6.736244655664063,1.9251979037597655,11.943422555664062,4.070487703759765L12.654369555664063,4.363388503759765L13.266997555664062,3.8987145037597655Q14.452693555664062,2.9993731037597655,16.250951555664063,3.028921503759766Q17.425664555664063,3.0479138037597657,18.410543555664063,3.2522629037597657L18.668422555664062,3.3057693037597655L19.171016555664064,3.2129598037597655L19.357879555664063,3.1117531037597654Q20.192491555664063,2.6597216037597655,22.517021555664062,2.687478803759766Q26.06930155566406,2.7298962037597656,28.025165555664064,5.229035103759766Q28.698343555664064,6.089161403759766,27.71257355566406,9.905814203759766Q26.561973555664064,14.360639603759765,23.934863555664062,18.258594603759764L23.620363555664063,18.725232603759764L23.732334555664064,19.276710603759767Q23.843660555664062,19.825004603759766,24.153905555664064,20.209936603759765Q23.10944355566406,20.167713603759765,22.559944555664064,20.782714603759764Q22.10247255566406,21.294721603759765,21.92411455566406,22.827600603759766Q21.90089955566406,23.027112603759765,21.887943555664062,23.135042603759764L21.880317555664064,23.198570603759766L21.878765555664064,23.262534603759764Q21.787229555664062,27.031772603759766,20.90538555566406,28.287353603759765Q20.448402555664064,28.938014603759765,19.011821555664064,29.245874603759766Q17.885393555664063,29.487283603759767,17.491764555664062,28.281156603759765Q17.425521555664062,28.078184603759766,17.38912155566406,27.979959603759767Q17.142578555664063,27.314498603759766,17.050977555664062,25.032443603759766Q17.041881555664062,24.805539603759765,17.02795455566406,24.305824603759767Q16.977163555664063,22.483339603759767,16.691865555664062,21.494548603759764Z" fill-rule="evenodd" fill="#000000" fill-opacity="1" style="mix-blend-mode:passthrough"/></g><g><path d="M28.911407344726562,19.48741705102539Q25.29729634472656,20.23291405102539,25.048843344726563,19.009266051025392C28.86477634472656,13.34704905102539,30.459955344726563,6.15970615102539,29.083339344726564,4.400644751025391C25.32783134472656,-0.39774234897460947,18.82685234472656,1.8715854910253906,18.718364344726563,1.9305010410253907L18.683447344726563,1.9367518410253908C17.969417344726562,1.7885288610253907,17.170321344726563,1.7002273510253907,16.27221834472656,1.6855702710253906C14.636880344726562,1.6587709210253907,13.396419344726562,2.1142888110253906,12.455135344726562,2.828101551025391Q0.8580340747265625,-1.9494495489746093,1.3973982337265625,8.83677245102539C1.5121399347265625,11.13146305102539,4.686324844726562,26.19940905102539,8.472369644726562,21.64818205102539Q9.856167744726562,19.98396105102539,11.193191544726563,18.57681305102539C11.857284344726562,19.01796305102539,12.652286344726562,19.24299005102539,13.485726344726562,19.16216105102539L13.550461344726562,19.10719705102539C13.530345344726562,19.31383305102539,13.539541344726562,19.51594205102539,13.576399344726562,19.75519705102539C12.601059344726563,20.84491905102539,12.887661344726563,21.036251051025392,10.937913844726562,21.437597051025392C8.965032144726562,21.84418705102539,10.124016744726562,22.56805805102539,10.880722044726562,22.75723505102539C11.798081344726562,22.98664505102539,13.920406344726562,23.31161705102539,15.354427344726563,21.30417405102539L15.297235344726563,21.53322605102539C15.679396344726563,21.83930005102539,15.947750344726563,23.52421405102539,15.902773344726562,25.05156305102539C15.857794344726562,26.57898705102539,15.827762344726562,27.627613051025392,16.128879344726563,28.44668205102539C16.429995344726564,29.265753051025392,16.73010534472656,31.108660051025392,19.293220344726564,30.55945405102539C21.434944344726564,30.10048705102539,22.544786344726564,28.91111205102539,22.69918834472656,26.92716405102539C22.80875634472656,25.51671005102539,23.056705344726563,25.72521405102539,23.072368344726563,24.46420505102539L23.27124434472656,23.86721805102539C23.50058334472656,21.95526505102539,23.307670344726564,21.33844605102539,24.627164344726562,21.62533805102539L24.947824344726563,21.65350105102539C25.918998344726564,21.69768705102539,27.19006734472656,21.49730305102539,27.936067344726563,21.15056405102539C29.54245034472656,20.405065051025392,30.495159344726563,19.16036605102539,28.911262344726563,19.48741905102539L28.911407344726562,19.48741705102539Z" fill="#336791" fill-opacity="1" style="mix-blend-mode:passthrough"/></g><g><path d="M25.419393579101563,19.178453904541016Q25.390472579101562,19.231988904541016,25.348367579101563,19.275916904541017Q25.306262579101563,19.319842904541016,25.25399757910156,19.351005904541015Q25.201740579101564,19.382171904541014,25.14307757910156,19.398334904541016Q25.084415579101563,19.414495904541017,25.023567579101563,19.414495904541017Q24.979253579101563,19.414493904541015,24.935792579101562,19.405849904541014Q24.89233057910156,19.397203904541016,24.851392579101564,19.380244904541016Q24.810451579101564,19.363286904541017,24.773609579101564,19.338668904541017Q24.736762579101562,19.314050904541016,24.705430579101563,19.282718904541017Q24.674096579101562,19.251384904541016,24.64947857910156,19.214540904541014Q24.624858579101563,19.177695904541014,24.607902579101562,19.136756904541016Q24.590944579101564,19.095817904541015,24.58230257910156,19.052358904541016Q24.573656579101563,19.008897904541016,24.573657579101564,18.964585904541014Q24.573657579101564,18.803098904541017,24.676353579101562,18.678472904541017Q27.370534579101562,14.667981904541016,28.55439757910156,10.084470704541015Q29.650741579101563,5.839792204541015,28.705400579101564,4.631706004541016Q26.417728579101563,1.7085463145410156,22.27401157910156,1.7470375345410156Q20.987975579101562,1.7589837045410155,19.70766457910156,2.0582551945410157Q19.319686579101564,2.1489444945410154,19.011979579101563,2.2475562145410155Q18.95988057910156,2.2642527245410156,18.922580579101563,2.2771050945410156Q18.846694579101563,2.3188724045410156,18.760717579101563,2.329474004541016Q18.732768579101563,2.333940404541016,18.704847579101564,2.3349138045410154Q18.465549579101562,2.3432568045410154,18.325618579101562,2.1492852545410157Q18.08573757910156,1.8167648345410157,18.39595257910156,1.5483528045410155Q18.457567579101564,1.4950407045410157,18.55275557910156,1.4585854445410156Q18.621911579101564,1.4321002245410157,18.738656579101562,1.3946863565410157Q19.080709579101562,1.2850680145410156,19.50381457910156,1.1861672445410156Q20.880592579101563,0.8643466245410156,22.265695579101564,0.8514802445410157Q26.85090657910156,0.8088876645410157,29.410718579101562,4.079785604541016Q30.628393579101562,5.635896204541016,29.421535579101562,10.308441204541015Q28.19928357910156,15.040585904541016,25.419393579101563,19.178453904541016ZM19.155525579101564,1.8767777645410155L19.15556757910156,1.8829456545410155Q19.15556757910156,1.9643568945410155,19.127038579101562,2.0406058445410156Q19.16201357910156,1.9611188745410155,19.155525579101564,1.8767777645410155ZM10.728065479101563,18.355342904541015Q10.792043679101562,18.274045904541016,10.885107079101562,18.228858904541017Q10.978169479101563,18.183671904541015,11.081623079101563,18.183671904541015Q11.125934579101562,18.183671904541015,11.169395479101562,18.192317904541017Q11.212855379101562,18.200961904541014,11.253794679101562,18.217917904541014Q11.294733979101563,18.234876904541014,11.331578279101562,18.259494904541015Q11.368423579101563,18.284114904541017,11.399756579101563,18.315446904541016Q11.431089579101563,18.346778904541015,11.455708579101563,18.383622904541017Q11.480327579101562,18.420466904541016,11.497284579101562,18.461406904541015Q11.514242579101563,18.502345904541016,11.522888579101563,18.545806904541017Q11.531532579101562,18.589267904541014,11.531533579101563,18.633580904541017Q11.531534579101562,18.731902904541016,11.490518579101563,18.821260904541017Q11.449502579101562,18.910617904541017,11.374951579101563,18.974721904541017Q10.148059879101563,20.257350904541017,8.791241179101561,21.889674904541014Q7.981690379101562,22.862903904541017,7.079578379101562,22.901202904541016Q6.241687279101562,22.936776904541016,5.448208779101562,22.165544904541015Q4.242479779101563,20.993617904541015,3.1123089791015626,17.919393904541014Q2.2374412391015626,15.539626904541016,1.5562863191015626,12.499581904541015Q0.9802545291015625,9.928710004541015,0.9245200491015625,8.814090704541016Q0.6407269791015625,3.140310004541016,3.6537487791015626,1.4948396345410155Q6.597033479101563,-0.11254619545898437,12.566073579101563,2.3175710045410156Q12.635661579101562,2.3383663045410157,12.695173579101562,2.380002704541016Q12.754684579101562,2.4216390045410154,12.798070579101562,2.4798864045410154Q12.841456579101562,2.5381336045410157,12.864311579101562,2.6070745045410155Q12.887164579101562,2.6760153045410155,12.887165579101563,2.748645504541016Q12.887164579101562,2.7929578045410155,12.878519579101562,2.8364185045410153Q12.869874579101563,2.8798792045410155,12.852916579101562,2.9208184045410155Q12.835958579101563,2.9617577045410157,12.811340579101563,2.9986019045410157Q12.786722579101562,3.0354464045410157,12.755389579101562,3.0667800045410156Q12.724054579101562,3.0981134045410155,12.687210579101562,3.1227319045410153Q12.650365579101562,3.1473505045410155,12.609427579101563,3.1643081045410155Q12.568488579101562,3.1812656045410157,12.525028579101562,3.1899106045410157Q12.481567579101563,3.198555504541016,12.437255579101562,3.1985556045410157Q12.326136579101563,3.1985556045410157,12.227793579101563,3.1468222045410155Q6.653251179101563,0.8772001245410157,4.083009679101563,2.2808594145410157Q1.5632830591015625,3.6569321045410157,1.8189984591015624,8.769363904541017Q1.8709117191015625,9.807561904541016,2.4302137791015626,12.303768904541016Q3.0984393791015625,15.286108904541015,3.9529013791015624,17.610368904541016Q5.012779479101562,20.493386904541016,6.072424379101562,21.523324904541017Q6.589208579101562,22.025621904541016,7.041589779101563,22.006414904541014Q7.5470485791015625,21.984954904541016,8.102509979101562,21.317185904541017Q9.479443579101563,19.660661904541016,10.728065479101563,18.355342904541015ZM15.956045579101563,20.639379904541016Q15.959541579101563,20.611497904541014,15.959541579101563,20.583398904541017Q15.959541579101563,20.539084904541017,15.950896579101563,20.495624904541014Q15.942251579101562,20.452163904541017,15.925292579101562,20.411223904541014Q15.908334579101563,20.370284904541016,15.883716579101563,20.333442904541016Q15.859098579101563,20.296596904541016,15.827764579101563,20.265264904541016Q15.796430579101562,20.233930904541015,15.759586579101562,20.209312904541015Q15.722742579101563,20.184691904541015,15.681802579101563,20.167735904541015Q15.640863579101563,20.150779904541015,15.597404579101562,20.142133904541016Q15.553943579101562,20.133489904541015,15.509631579101562,20.133489904541015Q15.465318579101563,20.133489904541015,15.421856579101563,20.142133904541016Q15.378395579101563,20.150779904541015,15.337455579101562,20.167735904541015Q15.296516579101562,20.184691904541015,15.259673579101563,20.209312904541015Q15.222829579101562,20.233930904541015,15.191495579101563,20.265264904541016Q15.160161579101562,20.296596904541016,15.135543579101563,20.333442904541016Q15.110925579101563,20.370284904541016,15.093967579101562,20.411223904541014Q15.077010579101563,20.452163904541017,15.068365579101563,20.495624904541014Q15.059720579101562,20.539084904541017,15.059720579101562,20.583398904541017Q15.059720579101562,20.598962904541015,15.060796579101563,20.614490904541015Q14.876327579101563,27.283155904541015,15.466978579101562,28.760455904541015Q16.63843857910156,31.688619904541017,19.633685579101563,31.046958904541015Q21.349899579101564,30.679023904541015,22.16819957910156,29.828473904541017Q22.958869579101563,29.006640904541015,23.23991357910156,27.376586904541014Q23.806034579101564,24.096486904541017,24.032588579101564,21.106500904541015Q24.039237579101563,21.068254904541014,24.039237579101563,21.029433904541015Q24.03923557910156,20.985122904541015,24.030589579101562,20.941661904541014Q24.021945579101562,20.898200904541017,24.004987579101563,20.857261904541016Q23.988031579101563,20.816321904541017,23.963413579101562,20.779475904541016Q23.938795579101562,20.742633904541016,23.90746157910156,20.711299904541015Q23.87612557910156,20.679965904541017,23.839281579101563,20.655347904541017Q23.802436579101563,20.630729904541017,23.76149757910156,20.613771904541014Q23.720558579101564,20.596812904541014,23.67709957910156,20.588168904541014Q23.633640579101563,20.579524904541017,23.58932857910156,20.579524904541017Q23.545015579101563,20.579524904541017,23.501554579101562,20.588168904541014Q23.458091579101563,20.596812904541014,23.417154579101563,20.613771904541014Q23.376212579101562,20.630729904541017,23.339370579101562,20.655345904541015Q23.302526579101563,20.679965904541017,23.27119457910156,20.711299904541015Q23.239860579101563,20.742633904541016,23.21524057910156,20.779475904541016Q23.19062257910156,20.816320904541016,23.173664579101562,20.857259904541017Q23.156707579101564,20.898198904541015,23.14806157910156,20.941661904541014Q23.13941757910156,20.985122904541015,23.139419579101563,21.029433904541015L23.139526579101563,21.039212904541017Q22.916192579101562,23.986411904541015,22.357364579101564,27.224263904541015Q22.122981579101562,28.583709904541017,21.52279857910156,29.207545904541014Q20.89437657910156,29.860734904541015,19.44594557910156,30.171260904541015Q17.189400579101562,30.654674904541015,16.298500579101564,28.427791904541017Q15.776575579101562,27.122384904541015,15.956045579101563,20.639379904541016Z" fill-rule="evenodd" fill="#FFFFFF" fill-opacity="1" style="mix-blend-mode:passthrough"/></g><g><path d="M9.925722901757812,10.19032858305664Q9.929080781757813,10.21765898305664,9.929080781757813,10.245194483056641Q9.929080751757812,10.28950688305664,9.920435841757813,10.33296678305664Q9.911790911757812,10.376426683056641,9.894833351757812,10.41736598305664Q9.877875771757813,10.45830538305664,9.853257211757812,10.49514958305664Q9.828638641757813,10.531993883056641,9.797305161757812,10.563327783056641Q9.765971661757813,10.594661683056641,9.729127351757812,10.61927988305664Q9.692283031757812,10.643897983056641,9.651343851757812,10.66085628305664Q9.610404671757813,10.677814483056641,9.566943846757813,10.68645958305664Q9.523483033757813,10.69510458305664,9.479170769457813,10.69510458305664Q9.434858500757812,10.69510458305664,9.391397684757813,10.68645958305664Q9.347936871757813,10.677814483056641,9.306997681757812,10.66085628305664Q9.266058491757812,10.64389898305664,9.229214171757812,10.61928078305664Q9.192369881757813,10.594661683056641,9.161036371757813,10.56332878305664Q9.129702861757812,10.53199578305664,9.105084301757813,10.49515058305664Q9.080465731757812,10.45830538305664,9.063508151757812,10.41736598305664Q9.046550571757813,10.376426683056641,9.037905691757812,10.33296678305664Q9.029260781757813,10.28950688305664,9.029260751757812,10.245194483056641Q9.029260751757812,10.22907738305664,9.030413981757812,10.213001283056641Q8.921221141757812,5.724600283056641,10.704258651757812,3.4574788830566403Q12.533388151757812,1.1317523730566408,16.253902451757813,1.1927643430566406Q20.881977051757815,1.2686417730566406,23.800912051757813,5.00031038305664Q24.750960051757815,6.214885283056641,25.31038305175781,7.559185983056641Q25.520039051757813,8.06299118305664,25.611788051757813,8.440458783056641Q25.65731005175781,8.62774178305664,25.664164051757812,8.755041083056641Q25.68937905175781,9.22345118305664,25.286217051757813,9.306873783056641L25.124679051757813,9.310532083056641Q23.042975051757814,8.97720478305664,22.247121051757812,9.58863498305664Q21.64908505175781,10.048087083056641,21.76974705175781,11.17439938305664Q21.936125051757813,12.72744438305664,23.669349051757813,15.83568538305664Q24.01349905175781,16.45285938305664,24.079998051757812,16.61404638305664L24.080012051757812,16.61407638305664Q24.334725051757815,17.23161438305664,24.934883051757815,17.98146438305664Q25.344130051757812,18.49278638305664,25.44248605175781,18.800699383056642Q25.461675051757812,18.84976938305664,25.469007051757814,18.90194738305664Q25.551931051757812,19.17535638305664,26.168514051757814,19.25165338305664Q27.06097805175781,19.362093383056642,28.795752051757812,19.00402238305664L28.79580305175781,19.00401138305664Q29.560858051757812,18.84601038305664,29.898968051757812,19.10328338305664Q30.392628051757814,19.47891238305664,29.96788205175781,20.11950538305664Q29.464777051757814,20.87828038305664,28.099459051757812,21.51235238305664L28.099356051757812,21.51239938305664Q26.954908051757812,22.043541383056642,25.27890505175781,22.06196038305664Q23.201212051757814,22.08479538305664,23.14238705175781,21.054943383056642L23.14238305175781,21.05487238305664Q23.042353051757814,19.29868938305664,24.470893051757812,18.85232938305664Q24.384786051757814,18.727409383056642,24.23566605175781,18.54109538305664Q23.55559005175781,17.69139438305664,23.252094051757812,16.955605383056643Q23.205669051757813,16.843081383056642,22.887144051757815,16.27186138305664Q21.065059051757814,13.00426338305664,20.87924605175781,11.269798283056641Q20.70506905175781,9.643956183056641,21.701494051757813,8.878433683056642Q22.660747051757813,8.14146948305664,24.651275051757814,8.344878683056642Q24.583481051757815,8.143472183056641,24.483525051757812,7.90327788305664Q23.97074205175781,6.67105338305664,23.095488051757812,5.552097583056641Q20.439907051757814,2.1571102730566407,16.239217751757813,2.0882398530566406Q12.962785751757814,2.0345102530566406,11.408221451757813,4.0111291830566405Q9.824468341757813,6.02486178305664,9.925722901757812,10.19032858305664ZM24.89679605175781,19.65866238305664Q24.844896051757814,19.67636838305664,24.788379051757815,19.69223738305664Q23.974854051757813,19.92065838305664,24.036527051757812,21.00387038305664L24.03652905175781,21.00394038305664Q24.046823051757812,21.179853383056642,25.269064051757812,21.16642038305664Q26.75245305175781,21.15011638305664,27.72222905175781,20.70007538305664L27.722332051757814,20.70002738305664Q28.599239051757813,20.29276838305664,29.01568605175781,19.87332738305664Q28.996668051757812,19.877023383056642,28.976900051757813,19.881105383056642L28.97684705175781,19.88111638305664Q27.097479051757812,20.26903738305664,26.058529051757812,20.14047238305664Q25.27264605175781,20.04322238305664,24.89679605175781,19.65866238305664Z" fill-rule="evenodd" fill="#FFFFFF" fill-opacity="1" style="mix-blend-mode:passthrough"/></g><g><path d="M15.836211697070311,20.049595178759766Q15.551246197070313,19.280646344759766,14.897868197070313,19.009794708759767L14.897757497070312,19.009748788759765Q14.487315697070311,18.839732468759767,14.177781097070312,18.866765918759764Q13.664113797070312,18.911627558759765,13.216961897070313,19.412053978759765Q13.001736597070312,19.652467908759764,12.716865997070313,20.014136908759767Q12.381621597070312,20.439759978759767,12.171745997070312,20.557116478759767Q11.834098097070314,20.745919378759766,10.822085997070312,20.954295078759767Q10.022512587070313,21.119107478759766,9.681751177070312,21.396997878759766Q9.176233227070313,21.809247478759765,9.466109217070313,22.346773178759765Q9.765274905070312,22.901524778759764,10.746534647070312,23.146815278759767Q11.934098997070313,23.443986378759767,12.973748197070313,23.266122578759767Q14.650519397070312,22.979260178759766,15.693242997070312,21.519216078759765Q16.14596219707031,20.885424478759766,15.836211697070311,20.049595178759766ZM14.554907797070314,19.837121848759764L14.555018397070313,19.837167618759764Q14.847295797070313,19.958392738759766,14.996427997070313,20.360811278759765Q15.141145197070312,20.751316178759765,14.964427497070313,20.998715878759764Q13.582776297070312,22.933333178759767,10.963728197070312,22.277954778759767Q10.707436447070313,22.213888178759767,10.482436897070313,22.090781678759765Q10.412892457070313,22.052731078759766,10.363907277070313,22.020239878759767Q10.569727897070312,21.920736078759766,11.002702497070313,21.831489278759765Q12.150338197070312,21.595188378759765,12.608843597070312,21.338805478759767Q12.974643197070312,21.134260878759765,13.420425897070313,20.568299278759767Q13.687835697070312,20.228798148759765,13.884793297070313,20.008789178759766Q14.095520997070313,19.772955268759766,14.255701997070313,19.758965668759764Q14.346958197070313,19.750995728759765,14.554907797070314,19.837121848759764Z" fill-rule="evenodd" fill="#FFFFFF" fill-opacity="1" style="mix-blend-mode:passthrough"/></g><g><path d="M13.143450012695313,18.68759820805664Q13.271752612695312,18.144038208056642,13.542266412695312,17.41882990805664Q13.586463912695312,17.30034260805664,13.608695012695312,17.24043080805664Q13.694279712695312,17.01013470805664,13.900599512695312,16.55175450805664Q14.445664912695314,15.340785008056642,14.577730612695312,14.43085960805664Q14.808640012695314,12.839910008056641,14.317654612695312,10.56929620805664Q14.132459212695313,9.713056028056641,13.481364712695314,9.46164077805664Q12.893029912695312,9.23445966805664,11.962356112695312,9.44913780805664Q11.171522612695313,9.63155895805664,10.426339312695312,10.046491008056641Q10.132805172695312,10.20993640805664,9.961107552695312,10.34958110805664Q9.944574352695312,10.363027808056641,9.930834112695312,10.374859808056641Q9.935535492695312,10.47736800805664,9.945797982695312,10.65044810805664Q10.076921402695312,12.86188510805664,9.845903452695312,14.51381210805664Q9.598798202695313,16.28083850805664,10.738703412695312,17.56841180805664Q11.751554512695312,18.71247200805664,13.143450012695313,18.68759820805664ZM13.028744412695312,19.584368008056643Q11.312812812695313,19.567989008056642,10.068137232695312,18.16207310805664Q8.654678462695312,16.56550980805664,8.958938332695313,14.389776208056642Q9.177626062695312,12.82601930805664,9.051772322695312,10.70345760805664Q9.030613212695313,10.34660300805664,9.031294882695313,10.242294508056641Q9.034279852695313,9.796541098056641,9.990644392695312,9.26401936805664Q10.846637212695313,8.78738648805664,11.761055512695313,8.57645800805664Q12.959390912695312,8.30003845805664,13.803976012695312,8.62616857805664Q14.905695412695312,9.051589368056641,15.193008912695312,10.379966608056641Q15.718164012695311,12.808599508056641,15.464039812695312,14.559497308056642Q15.313924312695313,15.59378580805664,14.717280412695313,16.919347808056642Q14.523304012695313,17.35030360805664,14.448194012695312,17.552413908056643Q14.425781212695313,17.61281580805664,14.381385312695311,17.73183540805664Q13.873381612695312,19.093719008056638,13.925303412695312,19.58988900805664Q13.936904912695312,19.63998200805664,13.936904912695312,19.69140100805664Q13.936904912695312,19.73571200805664,13.928259812695313,19.779173008056638Q13.919615312695313,19.82263400805664,13.902657512695313,19.863572008056643Q13.885700212695312,19.90451100805664,13.861081112695313,19.94135700805664Q13.836463012695312,19.97820100805664,13.805129012695312,20.00953500805664Q13.773795612695313,20.04086800805664,13.736951312695313,20.06548500805664Q13.700106612695311,20.09010400805664,13.659167312695313,20.10706100805664Q13.618227912695312,20.12402000805664,13.574767612695313,20.13266600805664Q13.531307212695314,20.141310008056642,13.486994712695314,20.14131100805664Q13.443587812695313,20.141310008056642,13.400981412695312,20.13301200805664Q13.358375112695313,20.124714008056642,13.318141212695313,20.10842300805664Q13.277907112695313,20.092133008056642,13.241529912695313,20.06845100805664Q13.205152512695312,20.04476700805664,13.173973512695312,20.014568008056642Q13.142794612695312,19.98436700805664,13.117964712695311,19.948764008056642Q13.093134412695314,19.913160008056643,13.075569112695312,19.87346600805664Q13.058003712695312,19.83377300805664,13.048350812695313,19.79145100805664Q13.038697712695313,19.74913200805664,13.037313712695312,19.70574700805664Q13.030868512695312,19.647814008056642,13.028744412695312,19.584368008056643Z" fill-rule="evenodd" fill="#FFFFFF" fill-opacity="1" style="mix-blend-mode:passthrough"/></g><g><path d="M12.395043079382813,10.180912390009766C12.374351181382812,10.327411140009765,12.663252802382813,10.718337180009765,13.039953052382813,10.770571230009766C13.416006492382813,10.823020160009765,13.737887492382812,10.517521380009766,13.758292192382813,10.371166260009765C13.778696792382812,10.224667530009766,13.490154792382812,10.063296154009766,13.113309862382813,10.010847218009765C12.737040462382813,9.958325930009766,12.415016891382813,10.034772158009766,12.395043079382813,10.180912390009766L12.395043079382813,10.180912390009766Z" fill="#FFFFFF" fill-opacity="1" style="mix-blend-mode:passthrough"/><path d="M13.133944812382813,9.863015620009765L13.133886102382812,9.863007460009765Q12.824042762382813,9.819766660009766,12.586148322382812,9.876139100009766Q12.276000922382812,9.949632876009765,12.247153182382812,10.160699460009766Q12.232687562382813,10.263105450009766,12.301552079382812,10.396128000009766Q12.359531626382813,10.508124470009765,12.460383370382813,10.614027800009765Q12.709303052382813,10.875415560009765,13.019451792382812,10.918421390009765Q13.331483362382812,10.961941180009765,13.616225292382813,10.768986170009766Q13.729400292382813,10.692293290009765,13.806647492382812,10.596229970009766Q13.892508992382812,10.489454150009765,13.906127092382812,10.391777280009766Q13.935517992382813,10.180758880009765,13.657585692382813,10.025439246009766Q13.444233992382813,9.906209886009766,13.133944812382813,9.863015620009765ZM12.654982892382812,10.166624400009766Q12.838333902382812,10.123176810009765,13.092674972382813,10.158678810009766L13.092733622382813,10.158687000009765Q13.347527082382813,10.194148910009766,13.511953492382812,10.286036910009766Q13.576619392382813,10.322174850009766,13.603847492382812,10.355270330009766Q13.605951892382812,10.357828290009765,13.607492692382813,10.359895440009765Q13.599924492382812,10.376921210009765,13.574004392382813,10.409154920009765Q13.524836992382813,10.470298500009765,13.448756592382813,10.521854340009765Q13.259036722382813,10.650417690009766,13.060454192382812,10.622721020009765Q12.853583722382812,10.594035980009766,12.676568652382812,10.408154460009765Q12.605072472382812,10.333077100009765,12.566662702382812,10.258882670009765Q12.552015232382812,10.230588810009765,12.546010912382812,10.209243360009765Q12.546824042382813,10.208665160009765,12.547709952382812,10.208052250009766Q12.582902032382812,10.183704970009765,12.654982892382812,10.166624400009766Z" fill-rule="evenodd" fill="#FFFFFF" fill-opacity="1" style="mix-blend-mode:passthrough"/></g><g><path d="M23.849420234570314,9.882238880478516C23.86982473457031,10.028737600478516,23.581282734570312,10.419663670478515,23.204509074570314,10.471897720478516C22.828167374570313,10.524346650478515,22.506288506570314,10.218847870478516,22.48566677200031,10.072492750478515C22.465764220570314,9.925994010478515,22.754378614570314,9.764622628478516,23.130792674570312,9.712173694478516C23.50720683457031,9.659724760478516,23.829013334570313,9.736098635478516,23.849420234570314,9.882238880478516L23.849420234570314,9.882238880478516Z" fill="#FFFFFF" fill-opacity="1" style="mix-blend-mode:passthrough"/><path d="M23.640810734570312,9.650112349478515Q23.416575964570313,9.596999697478516,23.12049305457031,9.638255413478516Q22.824380074570314,9.679515332478516,22.623209294570312,9.791911549478515Q22.389936700570313,9.922243370478515,22.411764323570313,10.082905530478516Q22.422647375570314,10.160143850478516,22.495622199570313,10.250812950478515Q22.56591303657031,10.338147220478515,22.669839594570313,10.408539060478516Q22.93092671457031,10.585379300478516,23.214757744570313,10.545823100478515Q23.49909093457031,10.506404580478515,23.729962734570314,10.263875540478516Q23.82341183457031,10.165708030478516,23.876518834570312,10.063150200478516Q23.93440173457031,9.951369610478515,23.92333533457031,9.871917490478516Q23.900967434570312,9.711733549478515,23.640810734570312,9.650112349478515ZM22.696012644570313,9.922217560478515Q22.87272653457031,9.823485660478516,23.141092304570314,9.786091983478515Q23.40943086457031,9.748702116478515,23.606407534570312,9.795358352478516Q23.76725163457031,9.833456170478515,23.775504834570313,9.892560330478515Q23.780011134570312,9.924914050478515,23.743970834570312,9.994513420478516Q23.70064023457031,10.078191460478516,23.62185033457031,10.160959600478515Q23.426936154570313,10.365715380478516,23.194260474570314,10.397972340478516Q22.967138524570313,10.429625270478516,22.753546294570313,10.284954370478516Q22.668156384570313,10.227117900478516,22.611902934570313,10.157224620478516Q22.564714081570312,10.098593860478516,22.559569120570313,10.062079490478515Q22.551535464570314,10.002938480478516,22.696012644570313,9.922217560478515Z" fill-rule="evenodd" fill="#FFFFFF" fill-opacity="1" style="mix-blend-mode:passthrough"/></g><g><path d="M25.644894008007814,8.88952646624414Q25.645391208007812,8.87895982824414,25.645391208007812,8.86838150024414Q25.645391208007812,8.82406923224414,25.636746208007814,8.78060841524414Q25.628101308007814,8.73714760024414,25.611143708007813,8.69620840024414Q25.59418610800781,8.65526921024414,25.569567608007812,8.61842489024414Q25.544949008007812,8.581580580244141,25.513615508007813,8.55024707024414Q25.482281908007813,8.51891360024414,25.445437708007812,8.49429503024414Q25.408593408007814,8.46967643024414,25.367654208007814,8.45271885024414Q25.326715048007813,8.435761270244141,25.283254268007813,8.42711639024414Q25.23979347800781,8.41847151024414,25.19548123800781,8.41847149024414Q25.151168938007814,8.41847151024414,25.107708098007812,8.42711639024414Q25.064247248007813,8.43576130024414,25.023308038007812,8.452718880244142Q24.98236882800781,8.46967643024414,24.945524578007813,8.49429503024414Q24.908680258007813,8.51891360024414,24.877346788007813,8.55024707024414Q24.84601324800781,8.581580580244141,24.821394678007813,8.61842489024414Q24.796776118007813,8.65526921024414,24.779818538007813,8.69620840024414Q24.762860988007812,8.73714760024414,24.754216108007814,8.78060841524414Q24.745571198007813,8.82406923224414,24.74557122800781,8.86838150024414Q24.74557122800781,8.901438322244141,24.750402808007813,8.934140146244141Q24.767521498007813,9.310704080244141,24.728694438007814,9.72063863024414Q24.70328372800781,9.98892370024414,24.62099566800781,10.523173800244141Q24.47946973900781,11.44202230024414,24.46138735100781,12.00898690024414Q24.443462487007814,12.56074570024414,24.579051908007813,13.689030600244141Q24.659577968007813,14.359115100244141,24.682778178007812,14.69565770024414Q24.720623608007813,15.24464420024414,24.685204978007814,15.68412400024414Q24.600073288007813,16.74045130024414,24.043022598007813,17.59088520024414Q23.942378198007813,17.71483230024414,23.942378198007813,17.874490700244138Q23.942378218007814,17.91880230024414,23.951023098007813,17.96226310024414Q23.959668008007814,18.005724000244143,23.976625588007813,18.04666330024414Q23.993583138007814,18.08760260024414,24.01820173800781,18.12444690024414Q24.042820308007812,18.161291100244142,24.074153778007812,18.192625000244142Q24.10548728800781,18.22395800024414,24.14233159800781,18.24857620024414Q24.17917591800781,18.27319530024414,24.220115108007814,18.29015250024414Q24.26105430800781,18.30710980024414,24.304515123007814,18.31575580024414Q24.347975940007814,18.32439990024414,24.392288208007812,18.324400900244143Q24.453532450007813,18.324400900244143,24.512548248007814,18.30803110024414Q24.57156404800781,18.29166030024414,24.62405672800781,18.26011090024414Q24.676549378007813,18.22856140024414,24.718698858007812,18.18412780024414Q24.76084837800781,18.13969420024414,24.789587438007814,18.08561230024414Q25.474201608007814,17.04285430024414,25.577906408007813,15.75606820024414Q25.61870380800781,15.249848800244141,25.576253508007813,14.63406420024414Q25.551489308007813,14.27483460024414,25.468250008007814,13.58217290024414Q25.34080159800781,12.52163100024414,25.356510998007813,12.038066900244141Q25.37288206800781,11.52476720024414,25.506153508007813,10.65951060024414Q25.592423008007813,10.099411500244141,25.620299908007812,9.80508733024414Q25.665242408007813,9.33058587024414,25.644894008007814,8.88952646624414Z" fill-rule="evenodd" fill="#FFFFFF" fill-opacity="1" style="mix-blend-mode:passthrough"/></g></g></g></svg>