<svg xmlns="http://www.w3.org/2000/svg" xmlns:xlink="http://www.w3.org/1999/xlink" fill="none" version="1.1" width="32" height="32" viewBox="0 0 32 32"><defs><clipPath id="master_svg0_5166_24804"><rect x="0" y="0" width="32" height="32" rx="0"/></clipPath><clipPath id="master_svg1_5166_25851"><rect x="0" y="4" width="32" height="22.398141860961914" rx="0"/></clipPath></defs><g clip-path="url(#master_svg0_5166_24804)"><g clip-path="url(#master_svg1_5166_25851)"><g><path d="M13.316484,6.4428589C14.348524,5.3675436,15.785321,4.70060468,17.374367,4.70060468C19.486752,4.70060468,21.329681,5.8784866000000005,22.311144,7.6270833C23.164026,7.2460303,24.108076,7.034042100000001,25.101326,7.034042100000001C28.911217,7.034042100000001,32,10.149733999999999,32,13.9929047C32,17.836524,28.911217,20.952217,25.101326,20.952217C24.644989,20.952482,24.189772,20.907125,23.742464,20.816818C22.878206,22.358454,21.231247,23.400072,19.340878,23.400072C18.549526,23.400072,17.801033,23.217299,17.134607,22.892267C16.258469,24.953112,14.217226,26.398109,11.838174,26.398109C9.3606892,26.398109,7.2492332,24.830492,6.4387589,22.631975C6.0845804,22.707188,5.7176218,22.746395,5.3410845,22.746395C2.3913515,22.746428,0,20.330475,0,17.349733C0,15.352247,1.0744184,13.6081676,2.6707668,12.6750755C2.342118,11.9188633,2.1593113,11.0842047,2.1593113,10.206687500000001C2.1593113,6.7787787999999995,4.9422221,4,8.3747101,4C10.389974,4,12.180982,4.95817417,13.316484,6.4428589Z" fill="#00A1E0" fill-opacity="1" style="mix-blend-mode:passthrough"/></g><g><path d="M4.634898707785937,15.615161928125C4.6148464290859375,15.667598028125,4.642201911085937,15.678553328125,4.6485764480859375,15.687650428125C4.708732791085938,15.731405928125,4.769849588085938,15.762893628125,4.831383288085937,15.797968628125C5.157757518085938,15.971166328125,5.465937798085937,16.021744228125,5.788212188085938,16.021744228125C6.444612788085937,16.021744228125,6.852124188085938,15.672595228125001,6.852124188085938,15.110529228125L6.852124188085938,15.099606228125C6.852124188085938,14.579918628125,6.392208288085937,14.391218028125,5.960512988085938,14.254921628125L5.904456888085938,14.236695428125C5.578979548085938,14.130925528125,5.298186478085937,14.039794428125,5.298186478085937,13.825532318125L5.298186478085937,13.814160588125C5.298186478085937,13.630905088125001,5.462286648085938,13.495954688125,5.716652888085937,13.495954688125C5.999271388085937,13.495954688125,6.334774888085938,13.589872838125,6.550830888085938,13.709288118125C6.550830888085938,13.709288118125,6.614189988085938,13.750321388125,6.6374451880859375,13.688787158125C6.650193888085937,13.655954538125,6.759615388085937,13.361484288125,6.771018788085938,13.329580308125C6.783319188085938,13.294921638125,6.7614411880859375,13.269392188125,6.739114788085938,13.255714478125C6.492500088085937,13.105740268125,6.151519288085938,13.003173828125,5.798718188085937,13.003173828125L5.733084788085938,13.003622518995C5.132292088085937,13.003622518995,4.712928399085937,13.366481478125,4.712928399085937,13.886585538125L4.712928399085937,13.897540808125001C4.712928399085937,14.445896828125,5.175599098085938,14.623675228125,5.609120488085938,14.747671328125L5.678854388085938,14.769100928125C5.994754188085937,14.866190228125,6.266898388085938,14.949601728125,6.266898388085938,15.172063328125L6.266898388085938,15.183018728124999C6.266898388085938,15.386325628125,6.090049788085937,15.537645828125001,5.804676388085937,15.537645828125001C5.693909888085938,15.537645828125001,5.340628388085937,15.535371328125,4.959094968085937,15.294202328125C4.913032798085937,15.267295328125,4.8861582580859375,15.247724028124999,4.850602698085938,15.226294528124999C4.831928258085938,15.214442728125,4.784969178085937,15.193910628125,4.764468718085937,15.255923728125L4.634898707785937,15.615161928125ZM14.244443888085938,15.615161928125C14.224390988085938,15.667598028125,14.251746188085937,15.678553328125,14.258121488085937,15.687650428125C14.318277388085937,15.731405928125,14.379394488085937,15.762893628125,14.440895988085938,15.797968628125C14.767270288085937,15.971166328125,15.075482288085938,16.021744228125,15.397725288085937,16.021744228125C16.054125288085938,16.021744228125,16.46166828808594,15.672595228125001,16.46166828808594,15.110529228125L16.46166828808594,15.099606228125C16.46166828808594,14.579918628125,16.001720288085938,14.391218028125,15.570025288085937,14.254921628125L15.513969288085937,14.236695428125C15.188491288085938,14.130925528125,14.907666288085938,14.039794428125,14.907666288085938,13.825532318125L14.907666288085938,13.814160588125C14.907666288085938,13.630905088125001,15.071766288085938,13.495954688125,15.326132288085937,13.495954688125C15.608751288085937,13.495954688125,15.944255288085937,13.589872838125,16.16034328808594,13.709288118125C16.16034328808594,13.709288118125,16.22370228808594,13.750321388125,16.24692528808594,13.688787158125C16.259675288085937,13.655954538125,16.369096288085938,13.361484288125,16.380500288085937,13.329580308125C16.392832288085938,13.294921638125,16.370922288085936,13.269392188125,16.348594288085938,13.255714478125C16.101981288085938,13.105740268125,15.761000288085938,13.003173828125,15.408199288085937,13.003173828125L15.342534288085938,13.003622518995C14.741740288085937,13.003622518995,14.322377188085937,13.366481478125,14.322377188085937,13.886585538125L14.322377188085937,13.897540808125001C14.322377188085937,14.445896828125,14.785048288085937,14.623675228125,15.218569288085938,14.747671328125L15.288303288085938,14.769100928125C15.604204288085937,14.866190228125,15.876827288085938,14.949601728125,15.876827288085938,15.172063328125L15.876827288085938,15.183018728124999C15.876827288085938,15.386325628125,15.699498288085938,15.537645828125001,15.414125288085938,15.537645828125001C15.303390288085938,15.537645828125001,14.950108288085938,15.535371328125,14.568574888085937,15.294202328125C14.522513388085937,15.267295328125,14.495190588085938,15.248620528125,14.460562688085938,15.226294528124999C14.448678988085938,15.218542528124999,14.393072088085937,15.197113028124999,14.373916588085937,15.255923728125L14.244443888085938,15.615161928125ZM20.804638288085936,14.514221028125C20.804638288085936,14.831946928125,20.745378288085938,15.082180528125,20.628685288085936,15.259061528125C20.513337288085935,15.434116628125,20.338762288085938,15.519354128125,20.09538428808594,15.519354128125C19.851524288085937,15.519354128125,19.67784828808594,15.434565028125,19.56432528808594,15.259061528125C19.449427288085936,15.082661628124999,19.391129288085935,14.831946928125,19.391129288085935,14.514221028125C19.391129288085935,14.196976028125,19.449427288085936,13.947157858125,19.56432528808594,13.772102948125C19.67784828808594,13.598905328125,19.851524288085937,13.514565108125,20.09538428808594,13.514565108125C20.338795288085937,13.514565108125,20.513370288085937,13.598905328125,20.629165288085936,13.772102948125C20.745411288085936,13.947125618125,20.804638288085936,14.196943928125,20.804638288085936,14.514221028125ZM21.352579288085938,13.925280508125C21.29876528808594,13.743371128125,21.21490628808594,13.582922518125,21.103241288085936,13.449380788125C20.99154628808594,13.315359058125,20.850252288085937,13.207795438125,20.682470288085938,13.129381088125C20.515166288085936,13.051446713125,20.317368288085937,13.011791821525,20.095385288085936,13.011791821525C19.872924288085937,13.011791821525,19.675094288085937,13.051447689125,19.50779128808594,13.129381088125C19.34003928808594,13.207795438125,19.198745288085938,13.315391328125,19.086601288085937,13.449380788125C18.975387288085937,13.583402518125,18.891494288085937,13.743851068125,18.837265288085938,13.925280508125C18.783931288085938,14.106229028125,18.757024288085937,14.304059728125,18.757024288085937,14.514221028125C18.757024288085937,14.724382428125,18.783931288085938,14.922661628125,18.837265288085938,15.103161528125C18.891494288085937,15.284590928125,18.974938288085937,15.445071928125,19.08708428808594,15.579061228125C19.198746288085935,15.713083028125,19.340520288085937,15.820198728125,19.50782528808594,15.896306028125C19.675544288085938,15.972446728125,19.872925288085938,16.011173028125,20.095419288085935,16.011173028125C20.31740128808594,16.011173028125,20.514783288085937,15.972445728124999,20.68250228808594,15.896306028125C20.849806288085937,15.820197828125,20.991548288085937,15.713050828125,21.10327528808594,15.579061228125C21.214939288085937,15.445487228125,21.298797288085936,15.285039628125,21.35261128808594,15.103161528125C21.406425288085938,14.922213028125,21.43330028808594,14.723902428125,21.43330028808594,14.514221028125C21.43330028808594,14.304539728125,21.406362288085937,14.106229028125,21.352579288085938,13.925280508125ZM25.852022288085937,15.434501628125C25.833797288085936,15.381167928125,25.782289288085938,15.401220328125,25.782289288085938,15.401220328125C25.702528288085936,15.431779428125001,25.617706288085937,15.460031028125,25.527471288085938,15.474157528125C25.435829288085937,15.488251728125,25.335088288085938,15.495587128124999,25.227043288085937,15.495587128124999C24.96178628808594,15.495587128124999,24.75117528808594,15.416724228125,24.600305288085938,15.260824228125C24.448955288085937,15.104923928125,24.364164288085938,14.852864528125,24.365062288085937,14.511882828125C24.365989288085938,14.201460028125,24.44072128808594,13.968043028125,24.575224288085938,13.790296908125C24.708795288085938,13.613448138125,24.912105288085936,13.522701148125,25.18332128808594,13.522701148125C25.409435288085938,13.522701148125,25.581735288085937,13.548679288125,25.76220328808594,13.605664018125C25.76220328808594,13.605664018125,25.805509288085936,13.624338928125,25.826011288085937,13.567834198125C25.873869288085938,13.434708898125,25.90942228808594,13.339445648125,25.960481288085937,13.193123548125C25.97508828808594,13.151641638125,25.939533288085936,13.133864088125,25.926752288085936,13.128835618125C25.85564228808594,13.101031452125,25.687891288085936,13.055930689125,25.561170288085936,13.036775790125C25.442651288085937,13.018549555125,25.30408128808594,13.008971618025,25.150007288085938,13.008971618025C24.919761288085937,13.008971618025,24.714660288085938,13.048178796125,24.539186288085936,13.126593148125C24.364132288085937,13.204527528125,24.21553628808594,13.312090158125,24.097946288085936,13.446145148125C23.98032428808594,13.580166818125,23.890987288085938,13.740583118125,23.831279288085938,13.922012568125C23.772020288085937,14.102961228125,23.741941288085936,14.301720428125,23.741941288085936,14.511882828125C23.741941288085936,14.966352828125,23.86455928808594,15.333729028125,24.106626288085938,15.602702128125C24.349109288085938,15.872571428125,24.713342288085936,16.009765628125,25.188348288085937,16.009765628125C25.469141288085936,16.009765628125,25.757238288085937,15.952811928125,25.964197288085938,15.871195028125C25.964197288085938,15.871195028125,26.00385328808594,15.852040528125,25.986522288085936,15.806042228125L25.852022288085937,15.434501628125ZM26.81070928808594,14.209853128125C26.83668528808594,14.033453128125,26.885471288085938,13.886650148125,26.960684288085936,13.772263228125C27.074203288085936,13.598585668125,27.247400288085938,13.503322418125,27.490846288085937,13.503322418125C27.734291288085938,13.503322418125,27.895185288085937,13.599034368125,28.01050328808594,13.772263228125C28.087091288085936,13.886650148125,28.120371288085938,14.039858928125,28.13360228808594,14.209853128125L26.81070928808594,14.209853128125ZM28.655498288085937,13.821913418125C28.609020288085937,13.646409868125,28.493671288085938,13.469080178125001,28.418010288085938,13.387943358125C28.298563288085937,13.259398788125,28.181905288085936,13.169612738125,28.066107288085938,13.119451238125C27.914756288085936,13.054714627125,27.733326288085937,13.011887620225,27.53459928808594,13.011887620225C27.303039288085937,13.011887620225,27.092878288085938,13.050646104125,26.92240328808594,13.130854248125C26.751480288085936,13.211094648125,26.607912288085938,13.320515568125,26.49528928808594,13.456812058125C26.382663288085936,13.592627528125,26.29790828808594,13.754453478125,26.244095288085937,13.938157618125C26.189863288085938,14.120964528125,26.162508288085938,14.320171428125,26.162508288085938,14.530270328125C26.162508288085938,14.744083728125,26.190792288085937,14.943291828125,26.246849288085937,15.122414128125C26.303384288085937,15.302946328125,26.393617288085938,15.462017528125,26.515789288085937,15.593733028125C26.637479288085938,15.726409628125,26.79430728808594,15.830353528125,26.98211128808594,15.902778628125C27.168569288085937,15.974818428125,27.395130288085937,16.012199428125,27.655391288085937,16.011719428125C28.19103228808594,16.009893428125,28.473169288085938,15.890478128125,28.589414288085937,15.826190228125C28.609947288085937,15.814818628125,28.62955128808594,15.794767128125,28.60488528808594,15.737333728125L28.483644288085937,15.397698128125C28.465450288085936,15.347119328125,28.413910288085937,15.365794228125,28.413910288085937,15.365794228125C28.281233288085936,15.415027128125,28.092565288085936,15.503468028124999,27.652637288085938,15.502570828125C27.365020288085937,15.502121928125,27.151655288085937,15.417333128125,27.018081288085938,15.284656528125C26.880890288085936,15.148840928125,26.81387928808594,14.949153028125,26.802026288085937,14.667463228125L28.65684128808594,14.669289228125C28.65684128808594,14.669289228125,28.705591288085937,14.668391928125,28.710653288085936,14.620952828125C28.71248028808594,14.600965028125,28.774492288085938,14.239932028125,28.655498288085937,13.821913418125ZM11.956330788085937,14.209853128125C11.982758088085937,14.033453128125,12.031094088085936,13.886650148125,12.106305088085938,13.772263228125C12.219795188085937,13.598585668125,12.393023488085937,13.503322418125,12.636434588085937,13.503322418125C12.879846588085938,13.503322418125,13.040775288085937,13.599034368125,13.156538988085938,13.772263228125C13.232646988085937,13.886650148125,13.265929188085938,14.039858928125,13.279157688085938,14.209853128125L11.956330788085937,14.209853128125ZM13.800639188085938,13.821913418125C13.754161788085938,13.646409868125,13.639294588085937,13.469080178125001,13.563634888085938,13.387943358125C13.444187188085937,13.259398788125,13.327494588085937,13.169612738125,13.211730988085938,13.119451238125C13.060378988085937,13.054714627125,12.878982588085938,13.011887620225,12.680224388085938,13.011887620225C12.449112888085939,13.011887620225,12.238501988085938,13.050646104125,12.068027988085937,13.130854248125C11.897104788085937,13.211094648125,11.753505188085938,13.320515568125,11.640912088085937,13.456812058125C11.528319388085936,13.592627528125,11.443530988085937,13.754453478125,11.389748588085936,13.938157618125C11.335967588085937,14.120964528125,11.308163688085937,14.320171428125,11.308163688085937,14.530270328125C11.308163688085937,14.744083728125,11.336415288085938,14.943291828125,11.392503788085937,15.122414128125C11.449040888085937,15.302946328125,11.539306688085937,15.462017528125,11.661444688085938,15.593733028125C11.783165488085938,15.726409628125,11.939963388085937,15.830353528125,12.127767088085937,15.902778628125C12.314226188085938,15.974818428125,12.540756188085936,16.012199428125,12.801049188085937,16.011719428125C13.336656588085937,16.009893428125,13.618826888085938,15.890478128125,13.735071188085938,15.826190228125C13.755602788085938,15.814818628125,13.775175088085938,15.794767128125,13.750575088085938,15.737333728125L13.629781688085938,15.397698128125C13.611074488085938,15.347119328125,13.559599888085938,15.365794228125,13.559599888085938,15.365794228125C13.426955188085937,15.415027128125,13.238670388085938,15.503468028124999,12.797877288085937,15.502570828125C12.510710688085936,15.502121928125,12.297377088085938,15.417333128125,12.163803088085938,15.284656528125C12.026578388085937,15.148840928125,11.959598988085936,14.949153028125,11.947715288085938,14.667463228125L13.802529288085937,14.669289228125C13.802529288085937,14.669289228125,13.851282088085938,14.668391928125,13.856311788085938,14.620952828125C13.858072288085937,14.600965028125,13.920054388085937,14.239932028125,13.800639188085938,13.821913418125ZM7.947169588085938,15.424347828125C7.874681188085937,15.366433628125,7.864654788085938,15.351859528125,7.840054788085938,15.314478428125C7.803569988085938,15.257493728125,7.784895388085937,15.176355828125,7.784895388085937,15.073340628124999C7.784895388085937,14.910137428125001,7.838677388085937,14.792995928125,7.950372888085937,14.714133828125C7.949027288085937,14.714614728125,8.109924788085937,14.575114928125,8.488254588085937,14.580112128125C8.753992088085937,14.583764028125,8.991477488085938,14.622971428125,8.991477488085938,14.622971428125L8.991477488085938,15.466278528125L8.991926188085937,15.466278528125C8.991926188085937,15.466278528125,8.756266588085937,15.516857428125,8.490977088085938,15.532809028125C8.113543288085937,15.555615928125,7.945791688085937,15.423900128125,7.947169588085938,15.424347828125ZM8.685154388085937,14.121093528125C8.609943888085937,14.115616328125,8.512373488085938,14.112412928125,8.395681588085937,14.112412928125C8.236610388085937,14.112412928125,8.082985188085937,14.132465228125,7.9389366880859376,14.171223728125C7.793991788085938,14.209950928125,7.663621388085938,14.270619028125001,7.551477188085938,14.350794928125C7.439504188085937,14.430717628125,7.347472188085938,14.535388728125,7.282536788085937,14.656669128125C7.216903188085937,14.778839228125,7.183621688085937,14.922887428125,7.183621688085937,15.084264728125C7.183621688085937,15.248364428125,7.211874288085937,15.391035328125,7.268410688085938,15.507760528125C7.3249470880859375,15.624902028125,7.406532788085937,15.722439028125,7.510444688085938,15.797682328125C7.613459788085938,15.872893328125,7.740658788085938,15.928020428125,7.888326688085938,15.961301828125C8.033751688085937,15.994583328125,8.198749088085938,16.011431928125,8.379281288085938,16.011431928125C8.569359088085937,16.011431928125,8.758989288085939,15.995960728125,8.942692288085937,15.964473028125C9.124570888085938,15.933466428125,9.347929988085937,15.888332628125,9.409911588085937,15.874239428125C9.453374888085937,15.863766928124999,9.496686888085938,15.852671828125,9.539833588085937,15.840957928125C9.585895088085937,15.829586228125,9.582244388085938,15.780321128125,9.582244388085938,15.780321128125L9.581315488085938,14.084161028125C9.581315488085938,13.712172868125,9.481952688085936,13.436377528125,9.286396488085938,13.265454678125C9.091737788085936,13.094980478125,8.805019388085938,13.008781975625,8.434439888085937,13.008781975625C8.295388888085938,13.008781975625,8.071580888085938,13.027969133125,7.937559088085937,13.054843664125C7.937559088085937,13.054843664125,7.532321888085937,13.133258018125,7.365467288085938,13.263628628125C7.365467288085938,13.263628628125,7.329014788085937,13.286435608125,7.349066988085937,13.337494488125L7.480366488085938,13.690327828125C7.496766588085937,13.735909518125,7.541002988085937,13.720405698124999,7.541002988085937,13.720405698124999C7.541002988085937,13.720405698124999,7.555129088085938,13.714928568125,7.571561588085938,13.705350578125C7.928494688085937,13.511172058125,8.379761188085936,13.517097888125,8.379761188085936,13.517097888125C8.580345588085937,13.517097888125,8.734419788085937,13.557202458125,8.838332188085937,13.636961938125C8.939521288085938,13.714447618125,8.991028788085938,13.831588208125,8.991028788085938,14.078651628125L8.991028788085938,14.157066028125C8.831477688085936,14.134291328125,8.685154388085937,14.121094428125,8.685154388085937,14.121093528125ZM23.64504228808594,13.165386828125C23.659137288085937,13.123424938125,23.629539288085937,13.103372668125,23.61720628808594,13.098824166125C23.58578328808594,13.086523779125,23.428056288085937,13.053242452125,23.306335288085936,13.045490559125C23.07343128808594,13.031364128125,22.943989288085938,13.070571303125,22.828161288085937,13.122527558125C22.713295288085938,13.174483808125,22.58568028808594,13.258343068125,22.51453628808594,13.353638558125L22.51453628808594,13.128004718125C22.51453628808594,13.096549436125,22.492208288085937,13.071467712125,22.461204288085938,13.071467712125L21.985752288085937,13.071467712125C21.954776288085938,13.071467712125,21.932451288085936,13.096517175125,21.932451288085936,13.128004718125L21.932451288085936,15.894483128125C21.932451288085936,15.925489628125,21.957979288085937,15.951020028125,21.988952288085937,15.951020028125L22.476257288085936,15.951020028125C22.507332288085937,15.950843328125,22.532402288085937,15.925557328125,22.532312288085937,15.894483128125L22.532312288085937,14.512396928125C22.532312288085937,14.326867728125,22.552845288085937,14.141818428125,22.593879288085937,14.025574228125C22.633983288085936,13.910675048125,22.688694288085937,13.818615258125,22.756153288085937,13.752501308125C22.82406028808594,13.686867298125,22.901098288085937,13.640837848125,22.985437288085937,13.614859758125C23.071573288085936,13.588401678125,23.166837288085937,13.579752388125,23.234329288085938,13.579752388125C23.331417288085937,13.579752388125,23.438085288085936,13.604801838125,23.438085288085936,13.604801838125C23.473610288085936,13.608901618125,23.49369228808594,13.587024268124999,23.505510288085937,13.554671648125C23.537447288085936,13.469882728125,23.627712288085938,13.215964748125,23.64504228808594,13.165386828125Z" fill="#FFFFFF" fill-opacity="1" style="mix-blend-mode:passthrough"/></g><g><path d="M19.071042966015625,11.88316252084375C19.011783566015623,11.86493628484375,18.958002066015624,11.85260412884375,18.887787866015625,11.83940685184375C18.816643666015626,11.82665826244375,18.731886866015625,11.82025146484375,18.635725966015627,11.82025146484375C18.300191866015624,11.82025146484375,18.035798566015625,11.91506649584375,17.850300266015626,12.10194134484375C17.665668466015624,12.28795108484375,17.540294666015626,12.57101833484375,17.477382666015625,12.94345526484375L17.454576466015624,13.06879656484375L17.033419566015624,13.06879656484375C17.033419566015624,13.06879656484375,16.982360366015627,13.06697036484375,16.971405966015624,13.12260996484375L16.902600766015624,13.50869236484375C16.897572566015626,13.54517706484375,16.913554666015624,13.56840046484375,16.962756666015625,13.56840046484375L17.372574766015624,13.56840046484375L16.956830466015624,15.88953686484375C16.924446566015625,16.07644366484375,16.887065866015625,16.23007006484375,16.845582966015627,16.34673066484375C16.804997466015624,16.46162986484375,16.765373266015626,16.547763864843752,16.716140766015627,16.61067436484375C16.668734566015626,16.67086216484375,16.624048666015625,16.71551556484375,16.546532166015623,16.741493664843752C16.482724166015625,16.76292326484375,16.408890266015625,16.77294876484375,16.328201266015625,16.77294876484375C16.283516366015625,16.77294876484375,16.223841166015625,16.76561306484375,16.179604066015624,16.75651646484375C16.135848566015625,16.74783606484375,16.112592666015626,16.738290264843748,16.079311866015626,16.72413256484375C16.079311866015626,16.72413256484375,16.031456466015626,16.705938864843752,16.012300466015624,16.75379376484375C15.997245266015625,16.79344986484375,15.887855566015624,17.09381386484375,15.874626666015626,17.13077926484375C15.861877466015624,17.16768076484375,15.880103566015624,17.196413564843752,15.903326966015625,17.20506146484375C15.958038366015625,17.22421646484375,15.998590466015624,17.23696566484375,16.072905066015625,17.25474306484375C16.175952466015623,17.27892776484375,16.262982366015624,17.28027246484375,16.344568266015624,17.28027246484375C16.515043266015624,17.28027246484375,16.670943266015627,17.25612066484375,16.799966766015626,17.209642364843752C16.929440466015624,17.16268296484375,17.042449466015626,17.08106566484375,17.142741166015625,16.97077946484375C17.250784866015625,16.85133216484375,17.318692666015625,16.72643946484375,17.383462466015626,16.555516764843752C17.447718166015626,16.38683656484375,17.502910166015624,16.177154064843748,17.546633766015624,15.932846064843751L17.964651066015627,13.56840146484375L18.575469066015625,13.56840146484375C18.575469066015625,13.56840146484375,18.626944566015624,13.57022766484375,18.637481666015624,13.514171364843751L18.706734666015628,13.12853776484375C18.711316066015627,13.091636664843751,18.695812266015626,13.06882966484375,18.646098166015626,13.06882966484375L18.053057666015626,13.06882966484375C18.056260566015624,13.05563286484375,18.083136566015625,12.84681556484375,18.151075866015624,12.65039563484375C18.180257366015624,12.56698405484375,18.234935766015624,12.49904406484375,18.280999166015626,12.45253366484375C18.326612466015625,12.40695196484375,18.379016866015625,12.37459927484375,18.436482466015626,12.35589307484375C18.495261166015624,12.33673816484375,18.562303566015625,12.32764118484375,18.635689766015624,12.32764118484375C18.691297566015624,12.32764118484375,18.746423766015624,12.33401572484375,18.787906666015623,12.34266400484375C18.845340766015624,12.35499668484375,18.867665266015624,12.36137121484375,18.882753366015624,12.36595100484375C18.943389866015625,12.38417720484375,18.951558066015625,12.36639970484375,18.963440866015624,12.33725041484375L19.105216066015625,11.94796511484375C19.119791066015623,11.90593920684375,19.083785966015625,11.88816117484375,19.071042966015625,11.88316252084375ZM10.784990906015626,15.89456746484375C10.784990906015626,15.92557426484375,10.762664856015626,15.950655964843751,10.731657326015625,15.950655964843751L10.239805084015625,15.950655964843751C10.208798490015624,15.950655964843751,10.186920166015625,15.92557526484375,10.186920166015625,15.89456746484375L10.186920166015625,11.93604890484375C10.186920166015625,11.90507408184375,10.208798490015624,11.87999284984375,10.239805084015625,11.87999284984375L10.731657326015625,11.87999284984375C10.762663846015625,11.87999284984375,10.784990906015626,11.90507408184375,10.784990906015626,11.93604890484375L10.784990906015626,15.89456746484375Z" fill="#FFFFFF" fill-opacity="1" style="mix-blend-mode:passthrough"/></g></g></g></svg>