<svg xmlns="http://www.w3.org/2000/svg" xmlns:xlink="http://www.w3.org/1999/xlink" fill="none" version="1.1" width="32" height="32" viewBox="0 0 32 32"><defs><clipPath id="master_svg0_5166_26144"><rect x="0" y="0" width="32" height="32" rx="0"/></clipPath></defs><g clip-path="url(#master_svg0_5166_26144)"><g><path d="M24.15163065625,9.0570164Q24.15163065625,9.2793541,24.14072065625,9.5014229Q24.12981065625,9.7234926,24.10801865625,9.9447594Q24.08622565625,10.166026,24.05360065625,10.385957Q24.02097665625,10.605886,23.97759965625,10.823952Q23.93422365625,11.042017,23.88020165625,11.257691Q23.82617765625,11.473366,23.76163665625,11.68613Q23.69709565625,11.898893,23.62219265625,12.108233Q23.54728865625,12.317574,23.46220365625,12.522985Q23.37711865625,12.728397,23.28205865625,12.929389Q23.18699665625,13.130379,23.08218965625,13.326464Q22.97737865625,13.522548,22.86307565625,13.713252Q22.74877165625,13.903957,22.62524565625,14.088823Q22.50172465625,14.273689,22.36927765625,14.452272Q22.23683165625,14.630857,22.09578365625,14.802727Q21.954732656250002,14.974594,21.80542065625,15.139336Q21.65610765625,15.304077,21.498890656249998,15.461293Q21.34167465625,15.61851,21.17693365625,15.767822Q21.01219165625,15.917135,20.84032465625,16.058186Q20.66845465625,16.199234,20.489870656249998,16.33168Q20.311287656250002,16.464127,20.126421656250002,16.587648Q19.94155465625,16.711174,19.75085065625,16.825478Q19.560146656249998,16.939781,19.36406265625,17.04459Q19.167977656250002,17.149399,18.96698665625,17.244459Q18.76599465625,17.339521,18.56058265625,17.424606Q18.35517165625,17.509691,18.14583065625,17.584595Q17.93649065625,17.659498,17.72372765625,17.724039Q17.51096365625,17.78858,17.29528865625,17.842604Q17.07961465625,17.896626,16.86154965625,17.940002Q16.643483656249998,17.983379,16.423554656249998,18.016003Q16.20362465625,18.048628,15.98235795625,18.070421Q15.76109125625,18.092213,15.53902055625,18.103123Q15.31695175625,18.114033,15.09461405625,18.114033Q14.87227625625,18.114033,14.65020755625,18.103123Q14.42813875625,18.092213,14.20687195625,18.070421Q13.98560525625,18.048628,13.76567365625,18.016003Q13.54574255625,17.983379,13.32767675625,17.940002Q13.10961155625,17.896626,12.89393755625,17.842604Q12.67826365625,17.78858,12.46550035625,17.724039Q12.25273655625,17.659498,12.04339595625,17.584595Q11.83405585625,17.509691,11.628643056249999,17.424606Q11.42323015625,17.339521,11.22223945625,17.244461Q11.02124885625,17.149399,10.82516525625,17.044592Q10.62908125625,16.939781,10.438376456250001,16.825478Q10.24767115625,16.711174,10.06280465625,16.587648Q9.87793805625,16.464127,9.69935515625,16.33168Q9.52077245625,16.199234,9.34890365625,16.058186Q9.177034356250001,15.917135,9.01229335625,15.767823Q8.847552256250001,15.61851,8.69033625625,15.461293Q8.53312015625,15.304077,8.38380745625,15.139336Q8.23449495625,14.974594,8.09344575625,14.802727Q7.95239635625,14.630857,7.81995025625,14.452273Q7.68750405625,14.27369,7.56397995625,14.088824Q7.4404560562499995,13.903957,7.32615185625,13.713253Q7.21184765625,13.522549,7.10703865625,13.326465Q7.00222957625,13.13038,6.90716808625,12.929389Q6.81210672625,12.728397,6.72702187625,12.522985Q6.64193707625,12.317574,6.56703394625,12.108233Q6.49213075625,11.898893,6.42758968625,11.68613Q6.36304858625,11.473366,6.30902501625,11.257691Q6.25500148625,11.042017,6.21162564625,10.823952Q6.16824981625,10.605886,6.13562616725,10.385957Q6.10300251825,10.166027,6.08120965925,9.9447603Q6.05941679925,9.7234936,6.04850722725,9.5014229Q6.03759765625,9.2793541,6.03759765625,9.0570164Q6.03759765625,8.8346786,6.04850722725,8.6126099Q6.05941679925,8.3905411,6.08120965925,8.1692743Q6.10300251825,7.9480076,6.13562616725,7.728076Q6.16824981625,7.5081449,6.21162564625,7.2900791Q6.25500148625,7.0720139,6.30902504625,6.8563399Q6.36304858625,6.640666,6.42758968625,6.4279027Q6.49213075625,6.2151389,6.56703394625,6.0057983Q6.64193707625,5.7964582,6.72702187625,5.5910454Q6.81210672625,5.3856325,6.90716814625,5.1846418Q7.00222962625,4.9836512,7.10703875625,4.7875676Q7.21184775625,4.5914836,7.32615185625,4.4007788Q7.4404560562499995,4.2100735,7.56397995625,4.025207Q7.68750405625,3.8403404,7.81995025625,3.6617575Q7.95239635625,3.4831748,8.09344575625,3.311306Q8.23449495625,3.1394367,8.38380745625,2.9746957Q8.53312015625,2.8099546,8.69033625625,2.6527386Q8.847552256250001,2.4955225,9.01229335625,2.3462098Q9.177034356250001,2.1968973,9.34890365625,2.0558481Q9.52077245625,1.9147987,9.69935515625,1.7823526Q9.87793805625,1.6499064,10.06280465625,1.5263823Q10.24767115625,1.4028584,10.438376456250001,1.2885542Q10.629081756249999,1.17425,10.82516575625,1.069441Q11.02124925625,0.96463192,11.22223945625,0.86957043Q11.42323015625,0.77450907,11.628643056249999,0.68942422Q11.83405585625,0.60433942,12.04339645625,0.52943629Q12.25273655625,0.4545331,12.46550035625,0.38999203Q12.67826365625,0.32545093,12.89393755625,0.27142736Q13.10961155625,0.21740383,13.32767675625,0.17402799Q13.54574255625,0.13065216,13.76567365625,0.098028511Q13.98560525625,0.065404862,14.20687195625,0.043612003Q14.42813875625,0.021819143,14.65020755625,0.010909571Q14.87227625625,0,15.09461405625,0Q15.31695175625,0,15.53902055625,0.010909571Q15.76109025625,0.021819143,15.98235705625,0.043612003Q16.203623656250002,0.065404862,16.423554656249998,0.098028511Q16.643483656249998,0.13065216,16.86154965625,0.17402799Q17.07961465625,0.21740383,17.29528865625,0.27142739Q17.51096365625,0.32545093,17.72372765625,0.38999203Q17.93649065625,0.4545331,18.14583065625,0.52943629Q18.35517165625,0.60433942,18.56058265625,0.68942422Q18.76599465625,0.77450907,18.96698665625,0.86957049Q19.167976656249998,0.96463197,19.36406165625,1.0694411Q19.56014565625,1.1742501,19.75084965625,1.2885542Q19.94155465625,1.4028584,20.126420656249998,1.5263823Q20.311286656249997,1.6499064,20.48986965625,1.7823526Q20.66845465625,1.9147987,20.84032465625,2.0558481Q21.01219165625,2.1968973,21.17693365625,2.3462098Q21.34167465625,2.4955225,21.498890656249998,2.6527386Q21.65610765625,2.8099546,21.805419656250002,2.9746957Q21.954732656250002,3.1394367,22.09578365625,3.311306Q22.23683165625,3.4831748,22.36927765625,3.6617575Q22.50172465625,3.8403404,22.62524565625,4.025207Q22.74877165625,4.2100735,22.86307565625,4.4007788Q22.97737865625,4.5914841,23.08218765625,4.7875681Q23.18699665625,4.9836516,23.28205665625,5.1846418Q23.37711865625,5.3856325,23.46220365625,5.5910454Q23.54728865625,5.7964582,23.62219265625,6.0057988Q23.69709565625,6.2151389,23.76163665625,6.4279027Q23.82617765625,6.640666,23.88020165625,6.8563399Q23.93422365625,7.0720139,23.97759965625,7.2900791Q24.02097665625,7.5081449,24.05360065625,7.728076Q24.08622565625,7.9480076,24.10801865625,8.1692743Q24.12981065625,8.3905411,24.14072065625,8.6126099Q24.15163065625,8.8346786,24.15163065625,9.0570164Z" fill="#036C70" fill-opacity="1" style="mix-blend-mode:passthrough"/></g><g><path d="M32.00000205859375,17.509553431249998Q32.00000205859375,17.702232331250002,31.990548058593753,17.894680031249997Q31.98109405859375,18.08712863125,31.96220905859375,18.278881031250002Q31.94332205859375,18.47063253125,31.915049058593752,18.661226231249998Q31.886778058593748,18.85182003125,31.84918705859375,19.04079823125Q31.811597058593748,19.229775431249998,31.76478005859375,19.41668133125Q31.71796205859375,19.60358623125,31.662031058593747,19.78797053125Q31.60609805859375,19.97235253125,31.54118505859375,20.15376953125Q31.476273058593748,20.335185531249998,31.40253805859375,20.513198531249998Q31.32880305859375,20.691211531249998,31.24642105859375,20.865392531250002Q31.16404005859375,21.03957353125,31.07321205859375,21.20950253125Q30.98238205859375,21.37943053125,30.883325058593748,21.54469753125Q30.78426705859375,21.70996453125,30.67722105859375,21.87017253125Q30.57017405859375,22.03038053125,30.45539605859375,22.18514253125Q30.34061605859375,22.33990453125,30.21838305859375,22.48884853125Q30.09614705859375,22.637791531250002,29.96675105859375,22.78055753125Q29.83735505859375,22.92332353125,29.70111005859375,23.05956953125Q29.56486405859375,23.19581453125,29.42209805859375,23.32521053125Q29.279332058593752,23.45460653125,29.13038905859375,23.57684153125Q28.98144505859375,23.69907553125,28.82668305859375,23.81385453125Q28.67192105859375,23.92863353125,28.51171305859375,24.03568053125Q28.35150505859375,24.14272653125,28.18623805859375,24.241785531250002Q28.02097105859375,24.34084253125,27.85104405859375,24.43167253125Q27.68111405859375,24.52250053125,27.506933058593752,24.60488153125Q27.332753058593752,24.68726253125,27.154740058593752,24.76099753125Q26.976726058593748,24.834732531249998,26.79531105859375,24.89964453125Q26.61389305859375,24.96455753125,26.42951105859375,25.020490531249997Q26.24512675859375,25.07642153125,26.05822185859375,25.12323853125Q25.871315958593748,25.170056531249998,25.68233875859375,25.20764653125Q25.49336055859375,25.245237531249998,25.302766758593748,25.273508531250002Q25.11217305859375,25.30178053125,24.92042065859375,25.320667531250002Q24.72866825859375,25.33955253125,24.536220558593747,25.349006531249998Q24.343772858593752,25.35846153125,24.15109345859375,25.358462531249998Q23.95841315859375,25.35846153125,23.76596545859375,25.349007531250003Q23.573517758593752,25.33955353125,23.38176635859375,25.32066853125Q23.19001385859375,25.30178153125,22.99941965859375,25.273508531250002Q22.80882505859375,25.245237531249998,22.61984775859375,25.20764653125Q22.43087005859375,25.170056531249998,22.243964158593748,25.12323953125Q22.05705925859375,25.07642153125,21.87267585859375,25.020490531249997Q21.68829245859375,24.96455753125,21.50687595859375,24.89964453125Q21.32545895859375,24.834732531249998,21.147446158593752,24.76099753125Q20.96943285859375,24.68726253125,20.79525235859375,24.60488053125Q20.62107185859375,24.52249953125,20.45114375859375,24.43167153125Q20.28121515859375,24.34084153125,20.11594815859375,24.241784531249998Q19.95068125859375,24.14272653125,19.79047365859375,24.03568053125Q19.63026615859375,23.92863353125,19.47550435859375,23.81385553125Q19.32074255859375,23.69907553125,19.17179895859375,23.57684253125Q19.02285525859375,23.45460653125,18.88008875859375,23.32521053125Q18.73732235859375,23.19581453125,18.60107705859375,23.05956953125Q18.46483185859375,22.92332353125,18.33543585859375,22.78055753125Q18.20603985859375,22.637791531250002,18.08380515859375,22.48884853125Q17.96157025859375,22.33990453125,17.84679105859375,22.18514253125Q17.73201175859375,22.03038053125,17.62496445859375,21.87017253125Q17.51791735859375,21.70996453125,17.41886005859375,21.54469753125Q17.31980285859375,21.37943053125,17.22897421859375,21.20950353125Q17.13814556859375,21.03957353125,17.05576431859375,20.865392531250002Q16.97338294859375,20.691212531250002,16.89964758859375,20.513199531250002Q16.82591217859375,20.335185531249998,16.76100030859375,20.15377053125Q16.69608842859375,19.97235253125,16.64015641859375,19.78797053125Q16.58422439859375,19.60358623125,16.53740699859375,19.41668133125Q16.49058958859375,19.229775431249998,16.45299961859375,19.04079823125Q16.41540963859375,18.85182003125,16.38713763659375,18.661226231249998Q16.35886562659375,18.47063253125,16.33997969659375,18.27888013125Q16.32109376559375,18.08712773125,16.31163941229375,17.894680031249997Q16.30218505859375,17.702232331250002,16.30218505859375,17.509553431249998Q16.30218505859375,17.31687353125,16.31163941229375,17.124425931250002Q16.32109376559375,16.93197823125,16.33997969659375,16.74022623125Q16.35886562659375,16.54847383125,16.38713763659375,16.35787913125Q16.41540963859375,16.167284931250002,16.45299961859375,15.97830723125Q16.49058958859375,15.78932953125,16.53740697859375,15.60242363125Q16.58422436859375,15.41551873125,16.64015638859375,15.23113533125Q16.69608839859375,15.04675193125,16.76100030859375,14.86533543125Q16.82591217859375,14.68391843125,16.89964758859375,14.50590563125Q16.97338294859375,14.32789233125,17.05576425859375,14.15371183125Q17.13814556859375,13.97953133125,17.22897421859375,13.80960323125Q17.31980285859375,13.63967463125,17.41886005859375,13.47440763125Q17.51791735859375,13.30914073125,17.62496445859375,13.14893313125Q17.73201175859375,12.98872563125,17.84679105859375,12.83396383125Q17.96157025859375,12.67920203125,18.08380515859375,12.530258431250001Q18.20603985859375,12.38131473125,18.33543585859375,12.23854823125Q18.46483185859375,12.095781831250001,18.60107705859375,11.95953653125Q18.73732235859375,11.823291331250001,18.88008875859375,11.69389533125Q19.02285525859375,11.56449933125,19.17179865859375,11.44226463125Q19.32074215859375,11.32002973125,19.47550415859375,11.20525053125Q19.63026615859375,11.09047123125,19.790473458593752,10.98342393125Q19.95068095859375,10.876376831249999,20.11594795859375,10.77731953125Q20.28121515859375,10.67826233125,20.45114375859375,10.58743369125Q20.62107185859375,10.49660504125,20.79525235859375,10.41422379125Q20.96943285859375,10.33184242125,21.14744565859375,10.25810706125Q21.325458558593752,10.18437165125,21.50687595859375,10.11945978125Q21.68829245859375,10.05454790125,21.87267585859375,9.99861589125Q22.05705925859375,9.94268387125,22.243964158593748,9.89586647125Q22.43087005859375,9.84904906125,22.61984725859375,9.81145909125Q22.80882455859375,9.77386911125,22.99941925859375,9.74559710925Q23.19001385859375,9.71732509925,23.38176585859375,9.69843916925Q23.573517758593752,9.67955323825,23.76596545859375,9.67009888495Q23.95841315859375,9.66064453125,24.15109345859375,9.66064453125Q24.343772858593752,9.66064453125,24.536220558593747,9.67009888495Q24.72866825859375,9.67955323825,24.92042065859375,9.69843916925Q25.11217305859375,9.71732509925,25.302766758593748,9.74559710925Q25.49336055859375,9.77386911125,25.68233875859375,9.81145909125Q25.871315958593748,9.84904906125,26.05822185859375,9.89586645125Q26.24512675859375,9.94268384125,26.42951105859375,9.99861586125Q26.61389305859375,10.05454787125,26.79531005859375,10.11945978125Q26.976726058593748,10.18437165125,27.154739058593748,10.25810706125Q27.332752058593748,10.33184242125,27.506933058593752,10.41422373125Q27.68111405859375,10.49660504125,27.85104305859375,10.58743369125Q28.02097105859375,10.67826233125,28.18623805859375,10.77731953125Q28.35150505859375,10.876376831249999,28.51171205859375,10.98342393125Q28.67192005859375,11.09047123125,28.82668205859375,11.20525053125Q28.981444058593752,11.32002973125,29.130388058593752,11.44226463125Q29.279331058593748,11.56449933125,29.42209805859375,11.69389533125Q29.56486305859375,11.823291331250001,29.70110905859375,11.95953653125Q29.83735405859375,12.095781831250001,29.96675005859375,12.23854823125Q30.09614605859375,12.38131473125,30.21838205859375,12.530258131250001Q30.34061605859375,12.67920163125,30.45539505859375,12.83396363125Q30.57017405859375,12.98872563125,30.67722105859375,13.14893293125Q30.78426705859375,13.30914043125,30.883326058593752,13.47440743125Q30.98238305859375,13.63967463125,31.07321305859375,13.80960323125Q31.16404105859375,13.97953133125,31.24642205859375,14.15371183125Q31.32880305859375,14.32789233125,31.40253805859375,14.50590513125Q31.476273058593748,14.68391803125,31.54118505859375,14.86533543125Q31.60609805859375,15.04675193125,31.662031058593747,15.23113533125Q31.71796205859375,15.41551873125,31.76477905859375,15.60242363125Q31.811597058593748,15.78932953125,31.84918705859375,15.978306731250001Q31.886778058593748,16.16728403125,31.915049058593752,16.35787873125Q31.94332105859375,16.54847333125,31.962208058593752,16.74022583125Q31.98109305859375,16.93197773125,31.990547058593748,17.124425931250002Q32.00000205859375,17.31687353125,32.00000205859375,17.509553431249998Z" fill="#1A9BA1" fill-opacity="1" style="mix-blend-mode:passthrough"/></g><g><path d="M22.9453276015625,24.152087170312498Q22.9453276015625,24.3151922703125,22.9373266015625,24.4781002703125Q22.9293246015625,24.6410083703125,22.913339601562498,24.8033280703125Q22.897354601562498,24.965647270312502,22.873424601562498,25.1269864703125Q22.8494966015625,25.2883257703125,22.8176806015625,25.4482965703125Q22.7858656015625,25.6082677703125,22.7462396015625,25.7664842703125Q22.7066146015625,25.9247016703125,22.6592746015625,26.0807828703125Q22.6119346015625,26.2368640703125,22.5569946015625,26.3904342703125Q22.5020546015625,26.5440044703125,22.4396456015625,26.694693570312502Q22.3772376015625,26.8453826703125,22.3075116015625,26.9928273703125Q22.2377856015625,27.1402721703125,22.1609096015625,27.284118670312502Q22.0840336015625,27.4279632703125,22.0001926015625,27.5678635703125Q21.9163526015625,27.7077635703125,21.8257496015625,27.8433795703125Q21.735147601562502,27.9789965703125,21.6379996015625,28.110004570312498Q21.5408536015625,28.2410105703125,21.4373956015625,28.3670935703125Q21.3339386015625,28.493174570312497,21.224418601562498,28.6140265703125Q21.1149006015625,28.7348795703125,20.9995856015625,28.8502125703125Q20.8842696015625,28.965544570312503,20.7634356015625,29.0750785703125Q20.6425996015625,29.184614570312498,20.5165376015625,29.2880865703125Q20.390474601562502,29.391559570312502,20.2594866015625,29.488720570312502Q20.1284976015625,29.5858825703125,19.9929006015625,29.6764985703125Q19.8573036015625,29.7671145703125,19.7174246015625,29.8509675703125Q19.5775452015625,29.9348205703125,19.433721501562502,30.011707570312502Q19.2898970015625,30.0885935703125,19.1424742015625,30.1583295703125Q18.9950504015625,30.228065570312502,18.844384201562498,30.2904835703125Q18.6937170015625,30.3529005703125,18.5401688015625,30.407848570312503Q18.3866215015625,30.4627975703125,18.2305632015625,30.510145570312503Q18.0745049015625,30.557492570312498,17.9163113015625,30.597124570312502Q17.758117701562497,30.636754570312497,17.5981703015625,30.6685745703125Q17.4382234015625,30.7003945703125,17.2769079015625,30.7243275703125Q17.1155920015625,30.7482595703125,16.9532967015625,30.7642465703125Q16.7910013015625,30.7802335703125,16.628117101562502,30.7882365703125Q16.4652328015625,30.7962395703125,16.3021517015625,30.7962395703125Q16.1390710015625,30.7962395703125,15.9761868015625,30.7882365703125Q15.8133020015625,30.7802335703125,15.651006701562501,30.7642465703125Q15.488711401562501,30.7482585703125,15.3273954015625,30.7243275703125Q15.1660795015625,30.7003935703125,15.0061321015625,30.6685735703125Q14.8461847015625,30.6367535703125,14.6879916015625,30.5971225703125Q14.5297985015625,30.5574915703125,14.3737397015625,30.510145570312503Q14.217680901562499,30.4627975703125,14.0641327015625,30.407848570312503Q13.910584401562499,30.352899570312502,13.7599177015625,30.2904825703125Q13.6092505015625,30.228065570312502,13.4618273015625,30.1583285703125Q13.314404001562501,30.0885925703125,13.1705797015625,30.011706570312498Q13.026755301562499,29.9348195703125,12.8868761015625,29.8509665703125Q12.7469971015625,29.7671135703125,12.6114004015625,29.6764975703125Q12.4758036015625,29.5858825703125,12.3448160015625,29.488720570312502Q12.2138281015625,29.391559570312502,12.0877650015625,29.2880865703125Q11.961701901562499,29.184614570312498,11.8408670015625,29.0750795703125Q11.720032001562501,28.965544570312503,11.6047165015625,28.8502125703125Q11.4894010015625,28.7348795703125,11.3798826015625,28.6140265703125Q11.2703643015625,28.493174570312497,11.1669068015625,28.3670935703125Q11.063449401562501,28.2410105703125,10.9663023015625,28.110004570312498Q10.8691552015625,27.9789965703125,10.7785523015625,27.8433795703125Q10.6879494015625,27.7077635703125,10.6041091715625,27.5678635703125Q10.5202688015625,27.4279632703125,10.4433931115625,27.284118670312502Q10.3665173015625,27.1402721703125,10.2967912515625,26.9928273703125Q10.2270652615625,26.8453826703125,10.1646570015625,26.694693570312502Q10.1022486715625,26.5440044703125,10.0473084115625,26.3904342703125Q9.9923681615625,26.2368640703125,9.9450283015625,26.0807828703125Q9.8976884315625,25.9247016703125,9.8580630315625,25.7664842703125Q9.8184376015625,25.6082677703125,9.7866221215625,25.4482970703125Q9.754806637562499,25.2883262703125,9.7308777195625,25.1269864703125Q9.7069487945625,24.9656476703125,9.6909640805625,24.8033284703125Q9.6749793635625,24.6410088703125,9.6669773668625,24.4781002703125Q9.6589753704625,24.3151922703125,9.6589753704625,24.152087170312498Q9.6589753704625,23.9889821703125,9.6669773654625,23.8260736703125Q9.6749793605625,23.6631655703125,9.6909640745625,23.5008463703125Q9.7069487865625,23.338526770312498,9.7308777125625,23.1771869703125Q9.7548066305625,23.0158476703125,9.7866221115625,22.8558769703125Q9.8184376015625,22.6959056703125,9.8580630015625,22.5376891703125Q9.8976883915625,22.3794727703125,9.9450282415625,22.2233915703125Q9.9923681015625,22.0673098703125,10.0473083815625,21.913739670312502Q10.1022486115625,21.7601690703125,10.1646569415625,21.609479870312498Q10.2270652015625,21.4587907703125,10.296791311562501,21.3113457703125Q10.3665173015625,21.1639008703125,10.4433931115625,21.0200552703125Q10.5202688015625,20.8762097703125,10.6041091115625,20.7363099703125Q10.6879494015625,20.5964102703125,10.7785523015625,20.4607934703125Q10.8691552015625,20.3251766703125,10.9663023015625,20.1941699703125Q11.0634495015625,20.0631630703125,11.1669070015625,19.937081370312498Q11.2703643015625,19.8109996703125,11.3798826015625,19.6901469703125Q11.4894010015625,19.5692941703125,11.6047165015625,19.4539617703125Q11.720032001562501,19.3386292703125,11.8408668015625,19.2290947703125Q11.961701901562499,19.1195602703125,12.0877650015625,19.0160877703125Q12.2138281015625,18.9126150703125,12.3448157015625,18.8154536703125Q12.4758034015625,18.7182922703125,12.6114001015625,18.6276761703125Q12.7469969015625,18.5370598703125,12.8868761015625,18.4532073703125Q13.026755301562499,18.3693547203125,13.1705799015625,18.2924677103125Q13.3144042015625,18.2155805803125,13.4618273015625,18.1458443403125Q13.6092505015625,18.0761079803125,13.7599177015625,18.0136905303125Q13.910584401562499,17.9512730203125,14.0641327015625,17.8963247203125Q14.217680901562499,17.8413763603125,14.3737397015625,17.7940295603125Q14.5297985015625,17.7466827303125,14.6879916015625,17.7070515003125Q14.8461847015625,17.6674202503125,15.0061321015625,17.6356000903125Q15.1660795015625,17.6037799273125,15.3273954015625,17.5798474853125Q15.488711401562501,17.5559150423125,15.651006701562501,17.5399279813125Q15.8133020015625,17.5239409153125,15.9761868015625,17.5159377428125Q16.1390710015625,17.5079345703125,16.3021517015625,17.5079345703125Q16.4652328015625,17.5079345703125,16.628117101562502,17.5159377428125Q16.7910013015625,17.5239409153125,16.9532967015625,17.5399279813125Q17.1155920015625,17.5559150423125,17.2769074015625,17.5798474853125Q17.4382234015625,17.6037799273125,17.5981703015625,17.6356000903125Q17.758117701562497,17.6674202503125,17.9163113015625,17.7070514903125Q18.0745049015625,17.7466827003125,18.2305632015625,17.7940295303125Q18.3866215015625,17.8413763603125,18.5401688015625,17.8963246903125Q18.6937170015625,17.9512730203125,18.844384201562498,18.0136905303125Q18.9950514015625,18.0761079803125,19.1424751015625,18.1458443403125Q19.289897901562497,18.2155805803125,19.4337225015625,18.2924677103125Q19.5775471015625,18.3693547203125,19.7174266015625,18.4532073703125Q19.8573056015625,18.5370598703125,19.9929016015625,18.6276761703125Q20.1284976015625,18.7182922703125,20.2594866015625,18.8154537703125Q20.390474601562502,18.9126150703125,20.5165386015625,19.0160877703125Q20.6426006015625,19.1195602703125,20.7634366015625,19.2290947703125Q20.8842706015625,19.3386292703125,20.9995866015625,19.4539617703125Q21.1149026015625,19.5692941703125,21.2244206015625,19.6901469703125Q21.3339386015625,19.8109996703125,21.4373966015625,19.937081370312498Q21.5408536015625,20.0631630703125,21.6380006015625,20.1941699703125Q21.735147601562502,20.3251766703125,21.8257506015625,20.4607934703125Q21.9163536015625,20.5964102703125,22.0001936015625,20.7363099703125Q22.0840336015625,20.8762097703125,22.1609096015625,21.0200552703125Q22.2377856015625,21.1639008703125,22.3075116015625,21.3113455703125Q22.3772376015625,21.4587907703125,22.4396456015625,21.609479870312498Q22.5020546015625,21.7601690703125,22.5569946015625,21.9137391703125Q22.6119346015625,22.0673098703125,22.6592746015625,22.2233915703125Q22.7066146015625,22.3794727703125,22.746240601562498,22.5376891703125Q22.7858656015625,22.6959056703125,22.8176806015625,22.8558769703125Q22.8494966015625,23.0158476703125,22.873425601562502,23.1771874703125Q22.897354601562498,23.338526770312498,22.913339601562498,23.5008463703125Q22.9293246015625,23.6631655703125,22.9373266015625,23.826074170312502Q22.9453276015625,23.9889821703125,22.9453276015625,24.152087170312498Z" fill="#37C6D0" fill-opacity="1" style="mix-blend-mode:passthrough"/></g><g style="opacity:0.20000000298023224;"><path d="M16.88434462109375,8.9038162109375L16.88434462109375,24.2394922109375C16.885635621093748,24.3177622109375,16.87781962109375,24.3959162109375,16.861055621093747,24.4723812109375C16.751604621093747,25.1228122109375,16.18734362109375,25.5983692109375,15.52777192109375,25.5960652109375L9.816193621093749,25.5960652109375C9.77543832109375,25.4039322109375,9.74050542109375,25.2118012109375,9.71721622109375,25.0138452109375C9.68794892109375,24.8210162109375,9.67044972109375,24.6265832109375,9.66481642109375,24.4316252109375C9.65899392109375,24.3384702109375,9.65899392109375,24.2453152109375,9.65899392109375,24.1521602109375C9.65930392109375,21.4661782109375,11.276768721093749,19.044575210937502,13.757823921093749,18.0155602109375C9.32137182109375,17.3512478109375,6.03855994379375,13.5411057109375,6.03758548294675,9.0551935109375C6.03588309149375,8.5497554109375,6.07874493309375,8.0451524009375,6.16567406109375,7.5472434319308L15.52777382109375,7.5472434319308C16.27752162109375,7.5459541452375,16.885635621093748,8.1540676909375,16.88434462109375,8.9038162109375Z" fill="#000000" fill-opacity="1" style="mix-blend-mode:passthrough"/></g><g style="opacity:0.10000000149011612;"><path d="M17.46656562109375,8.903880690625L17.46656562109375,23.075116890625C17.45646162109375,24.141667890625,16.594324621093747,25.003806890625,15.52777192109375,25.013909890625L9.71721622109375,25.013909890625C9.68794892109375,24.821080890625,9.67044972109375,24.626645890625,9.66481642109375,24.431689890625C9.65899392109375,24.338534890625,9.65899392109375,24.245380890625,9.65899392109375,24.152225890625C9.65930392109375,21.466241890625,11.276768721093749,19.044639890625,13.757823921093749,18.015624890625C9.32137182109375,17.351312890625,6.03855994379375,13.541170590625,6.03758548294675,9.055257990625C6.03588309149375,8.549819990625,6.07874493309375,8.045216890625,6.16567406109375,7.547307970625C6.19478518109375,7.349353040625,6.23554040109375,7.157220470625,6.28211796109375,6.965087890625L15.52777382109375,6.965087890625C16.59694662109375,6.968921325125,17.462731621093752,7.834706720625,17.46656562109375,8.903880690625Z" fill="#000000" fill-opacity="1" style="mix-blend-mode:passthrough"/></g><g style="opacity:0.20000000298023224;"><path d="M16.88434462109375,8.9038162109375L16.88434462109375,23.0750522109375C16.88563762109375,23.8248002109375,16.27752162109375,24.4329162109375,15.52777192109375,24.4316252109375L9.66481642109375,24.4316252109375C9.65899392109375,24.3384702109375,9.65899392109375,24.2453152109375,9.65899392109375,24.1521602109375C9.65930392109375,21.4661782109375,11.276768721093749,19.044575210937502,13.757823921093749,18.0155602109375C9.32137182109375,17.3512478109375,6.03855994379375,13.5411057109375,6.03758548294675,9.0551935109375C6.03588309149375,8.5497554109375,6.07874493309375,8.0451524009375,6.16567406109375,7.5472434319308L15.52777382109375,7.5472434319308C16.27752162109375,7.5459541452375,16.885635621093748,8.1540676909375,16.88434462109375,8.9038162109375Z" fill="#000000" fill-opacity="1" style="mix-blend-mode:passthrough"/></g><g style="opacity:0.10000000149011612;"><path d="M16.30212462109375,8.9038162109375L16.30212462109375,23.0750522109375C16.30341762109375,23.8248002109375,15.69530202109375,24.4329162109375,14.94555192109375,24.4316252109375L9.66481642109375,24.4316252109375C9.65899392109375,24.3384702109375,9.65899392109375,24.2453152109375,9.65899392109375,24.1521602109375C9.65930392109375,21.4661782109375,11.276768721093749,19.044575210937502,13.757823921093749,18.0155602109375C9.32137182109375,17.3512478109375,6.03855994379375,13.5411057109375,6.03758548294675,9.0551935109375C6.03588309149375,8.5497554109375,6.07874493309375,8.0451524009375,6.16567406109375,7.5472434319308L14.94555382109375,7.5472434319308C15.69530102109375,7.5459541452375,16.303415621093748,8.1540676909375,16.30212462109375,8.9038162109375Z" fill="#000000" fill-opacity="1" style="mix-blend-mode:passthrough"/></g><g><path d="M1.3583195,7.5472412109375L14.943843,7.5472412109375Q16.302162,7.5472412109375,16.302162,8.9055607109375L16.302162,22.4910842109375Q16.302162,23.8494032109375,14.943843,23.8494032109375L1.3583195,23.8494032109375Q0,23.8494032109375,0,22.4910842109375L0,8.9055607109375Q0,7.5472412109375,1.3583195,7.5472412109375Z" fill="#038387" fill-opacity="1" style="mix-blend-mode:passthrough"/></g><g><path d="M6.0376116653125,15.750790625C5.7399408253125,15.553655625000001,5.4913811053125,15.290954124999999,5.3110009153125,14.982842425C5.1356562673125,14.660898225,5.0482979342125,14.298411125,5.0577349351325,13.931935025C5.0423612193125,13.436039325,5.2097869253125,12.951789525,5.5281685253125,12.571286725C5.8627945153125,12.190494065,6.2953029953125,11.908598925,6.7787770953125,11.756178825C7.3299438953125,11.574464917,7.9072753953124995,11.4847667667,8.487593195312499,11.4906868245C9.2505979953125,11.462714523,10.0125574953125,11.56953875,10.7384557953125,11.806250005L10.7384557953125,13.395710625C10.422781495312499,13.204329725000001,10.0789427953125,13.063847525,9.7195705953125,12.979423025C9.329979395312499,12.883507225,8.9301540953125,12.835410625,8.5289303953125,12.836196825C8.1061098953125,12.820991825,7.6860346953125,12.909966025,7.3056861953125,13.095284625C7.0118619953125005,13.221864425,6.8211341953125,13.510700225,6.8201148953125,13.830628825C6.8182540953125,14.024441525,6.8919755953125,14.211354725,7.0256387953125,14.351716025C7.1844553953125,14.516416025,7.3721215953125,14.650604025,7.5793301953125,14.747625825Q7.9274975953125,14.920545825,8.6185929953125,15.206415425C8.6694848953125,15.222503225,8.7191094953125,15.242353225,8.7670585953125,15.265801425C9.2213196953125,15.443549625,9.6595758953125,15.659756625,10.0770539953125,15.912066025C10.3933476953125,16.107087125,10.6587595953125,16.374494525,10.8514065953125,16.692241225C11.049724595312501,17.051579925,11.1463422953125,17.458181825,11.130871795312501,17.868325725C11.153323695312501,18.377322225,10.9976777953125,18.878229125,10.6907133953125,19.284866325C10.3839959953125,19.658855425,9.9739441953125,19.934247024999998,9.5117177953125,20.076685925C8.9686193953125,20.247167625,8.4017574953125,20.329719525,7.8325945953125,20.321217525C7.3228244953125,20.323349925000002,6.8138210953125,20.281468425,6.3112535953125,20.196040125C5.8862720753125,20.128251125,5.4713011053125005,20.008179625,5.0757827273125,19.838558225L5.0757827273125,18.159435725C5.4544193453125,18.429548725,5.8775080453125,18.631141624999998,6.3258093953125005,18.755046325000002C6.7714871953125,18.893962825,7.2348219953125,18.968079525,7.7015947953125,18.975124325C8.1337112953125,19.002620225,8.5650848953125,18.910986925,8.9487103953125,18.710213225C9.2151994953125,18.557200425,9.376362795312499,18.270416725,9.3684916953125,17.963224425C9.370133895312499,17.748772125000002,9.2853517953125,17.542695025,9.133274995312501,17.391485225C8.9437529953125,17.205654625,8.7245432953125,17.052759125,8.4846815953125,16.939099825Q8.0707227953125,16.730664224999998,7.2608553953125,16.391229625C6.8326744953125,16.218883025,6.4227113953125,16.004345925,6.0376116653125,15.750790625L6.0376116653125,15.750790625Z" fill="#FFFFFF" fill-opacity="1" style="mix-blend-mode:passthrough"/></g></g></svg>