<svg xmlns="http://www.w3.org/2000/svg" xmlns:xlink="http://www.w3.org/1999/xlink" fill="none" version="1.1" width="28.057600021362305" height="32" viewBox="0 0 28.057600021362305 32"><defs><clipPath id="master_svg0_5166_25713"><rect x="0" y="0" width="28.057600021362305" height="32" rx="0"/></clipPath></defs><g clip-path="url(#master_svg0_5166_25713)"><g><path d="M24.52456619921875,6.28385348359375C24.50253719921875,6.12385318359375,24.36237519921875,6.03530498359375,24.24653819921875,6.02555178359375C24.13092219921875,6.01590868359375,21.68401719921875,5.83453898359375,21.68401719921875,5.83453898359375C21.68401719921875,5.83453898359375,19.98462319921875,4.14741568359375,19.79810119921875,3.96067568359375C19.61147319921875,3.77404598359375,19.24697919921875,3.83081288359375,19.10549719921875,3.87245658359375C19.08467519921875,3.87859368359375,18.73421119921875,3.98675798359375,18.15448619921875,4.16615578359375C17.58681119921875,2.53262138359375,16.58495119921875,1.0314708335937501,14.82243019921875,1.0314708335937501C14.77377119921875,1.0314708335937501,14.72369119921875,1.0334433935937501,14.67360919921875,1.03629267359375C14.17234919921875,0.37338817359375,13.55141819921875,0.08538818359375,13.01508819921875,0.08538818359375C8.90933509921875,0.08538818359375,6.94780109921875,5.21799088359375,6.33278659921875,7.82620998359375C4.73738909921875,8.32056618359375,3.60401919921875,8.67201808359375,3.45925189921875,8.71749688359375C2.56873179921875,8.99683948359375,2.54056689921875,9.02489378359375,2.42363549921875,9.86401748359375C2.33563589921875,10.49930618359375,0.00555419921875,28.51891918359375,0.00555419921875,28.51891918359375L18.16204819921875,31.92078418359375L27.99985119921875,29.79256418359375C27.99985119921875,29.79256418359375,24.54637519921875,6.44385388359375,24.52467519921875,6.28385348359375L24.52456619921875,6.28385348359375ZM17.15097619921875,4.47651098359375L15.61465119921875,4.95201778359375C15.61519919921875,4.84374428359375,15.61574519921875,4.73722358359375,15.61574519921875,4.62073088359375C15.61574519921875,3.60549758359375,15.47481419921875,2.78807308359375,15.24873019921875,2.14007308359375C16.15689619921875,2.25404568359375,16.76171919921875,3.28736068359375,17.15097619921875,4.47651098359375ZM14.12215719921875,2.34138778359375C14.37465019921875,2.97404528359375,14.53881419921875,3.88199068359375,14.53881419921875,5.10719628359375C14.53881419921875,5.16988038359375,14.53826519921875,5.22719618359375,14.53771919921875,5.28516908359375C13.53859519921875,5.59464838359375,12.45289819921875,5.93064828359375,11.36478719921875,6.26774408359375C11.97574719921875,3.90982678359375,13.12095119921875,2.77097728359375,14.12215719921875,2.34138778359375ZM12.90232119921875,1.18664828359375C13.07952719921875,1.18664828359375,13.25804719921875,1.24681268359375,13.42889619921875,1.36440168359375C12.11306019921875,1.98357968359375,10.70264919921875,3.54303148359375,10.10703319921875,6.65722418359375L7.59897899921875,7.43399098359375C8.29662229921875,5.05864808359375,9.95317079921875,1.18664848359375,12.90221219921875,1.18664848359375L12.90232119921875,1.18664828359375Z" fill="#95BF46" fill-opacity="1" style="mix-blend-mode:passthrough"/></g><g><path d="M24.246548649609373,6.0255246609375C24.130931849609375,6.015881060937501,21.684028649609374,5.8345109609375,21.684028649609374,5.8345109609375C21.684028649609374,5.8345109609375,19.984631749609374,4.1473880409375,19.798111449609376,3.9606482309375C19.728303649609376,3.8911689449375,19.634166149609374,3.8555525379375,19.535755149609376,3.8402099609375L18.162933349609375,31.9205379609375L27.999864549609377,29.7925379609375C27.999864549609377,29.7925379609375,24.546275149609375,6.4438257609375,24.524577149609375,6.2838258609375C24.502548649609373,6.1238260609375,24.362384349609375,6.0352775609375,24.246548649609373,6.0255246609375Z" fill="#5E8E3E" fill-opacity="1" style="mix-blend-mode:passthrough"/></g><g><path d="M14.822441064453125,11.4613634640625L13.609398864453125,15.0696926140625C13.609398864453125,15.0696926140625,12.546605064453125,14.502459814062501,11.243810664453125,14.502459814062501C9.333892864453125,14.502459814062501,9.237783464453125,15.7010350140625,9.237783464453125,16.0030627140625C9.237783464453125,17.6510630140625,13.533673264453125,18.2825146140625,13.533673264453125,22.1426779140625C13.533673264453125,25.179718914062498,11.607426664453126,27.1353339140625,9.010166164453125,27.1353339140625C5.8934539644531245,27.1353339140625,4.299591064453125,25.1956079140625,4.299591064453125,25.1956079140625L5.134111764453125,22.4383479140625C5.134111764453125,22.4383479140625,6.772467864453125,23.8449229140625,8.154933164453125,23.8449229140625C9.058275664453124,23.8449229140625,9.425727864453126,23.1336889140625,9.425727864453126,22.6140179140625C9.425727864453126,20.4643192140625,5.901344464453125,20.368429214062502,5.901344464453125,16.836044314062498C5.901344464453125,13.8630035140625,8.035262364453125,10.9859619140625,12.342768664453125,10.9859619140625C14.002495764453124,10.9859619140625,14.822441064453125,11.4613595640625,14.822441064453125,11.4613634640625Z" fill="#FFFFFF" fill-opacity="1" style="mix-blend-mode:passthrough"/></g></g></svg>