<svg xmlns="http://www.w3.org/2000/svg" xmlns:xlink="http://www.w3.org/1999/xlink" fill="none" version="1.1" width="32" height="32" viewBox="0 0 32 32"><defs><clipPath id="master_svg0_5166_24995"><rect x="0" y="0" width="32" height="32" rx="0"/></clipPath></defs><g clip-path="url(#master_svg0_5166_24995)"><g><path d="M19.152000796417237,15.074000139137269L13.894001496417236,16.904001139137268L9.316000896417236,19.056002139137266L8.036001196417235,19.416003139137267C7.356001396417236,20.096003139137267,6.652001396417236,20.75200313913727,5.924001196417237,21.37600413913727C5.544001096417237,21.71400313913727,5.196001096417236,22.084004139137267,4.884001256417236,22.48200313913727C4.554780956417236,22.901198139137268,4.293585296417237,23.369595139137267,4.1100010864172365,23.870003139137268C3.8904604864172363,24.580866139137267,4.0044269562172365,25.35289613913727,4.4200010264172365,25.970004139137266C4.960000996417237,26.816004139137267,6.0400008964172365,27.68000513913727,7.296000996417236,28.27200413913727C7.936000796417236,28.57200313913727,9.014000896417237,28.95800413913727,9.826001196417236,29.174004139137267C11.174001696417236,29.538004139137268,13.782001996417236,29.93200313913727,15.218000796417236,29.99000413913727C15.508001796417236,30.00400413913727,15.898000796417236,30.00400413913727,15.914001796417237,29.99000413913727C15.944000796417237,29.970004139137266,16.168001796417236,29.51600313913727,16.428001796417234,28.95200413913727C17.308000796417236,27.032004139137268,17.946001796417235,25.232005139137268,18.29200179641724,23.692004139137268C18.498001796417235,22.760005139137267,18.66400179641724,21.51800413913727,18.768001796417238,20.048005139137267C18.796001796417237,19.638005139137267,18.808002796417234,18.260005139137267,18.784002796417237,17.792003139137268C18.75740279641724,17.126001139137266,18.691286796417238,16.462167139137268,18.586002796417237,15.804003139137269C18.572731796417237,15.748361139137268,18.569347796417237,15.690818139137267,18.576002796417235,15.634003139137269C18.590002796417238,15.618003139137269,18.636001796417236,15.602004139137268,19.28600179641724,15.404004139137268L19.152000796417237,15.074000139137269ZM17.951999796417237,15.822000139137268C17.997999796417236,15.822000139137268,18.128000796417236,17.124000139137266,18.157999796417236,17.946001139137266C18.168136796417237,18.041819139137267,18.166794796417236,18.138503139137267,18.15399979641724,18.234002139137267C17.769327796417237,18.012106139137266,17.393064796417235,17.775941139137267,17.02599979641724,17.526000139137267C16.594066796417238,17.236679139137266,16.169918796417235,16.93590513913727,15.753997796417236,16.624000139137266C15.713998796417236,16.59200013913727,15.717998796417236,16.590000139137267,16.043998796417235,16.470001139137267C16.675998796417236,16.242000139137268,17.311998796417235,16.026000139137267,17.951999796417237,15.822000139137268ZM15.271999796417237,16.76200113913727C15.307998796417236,16.76200113913727,15.397998796417236,16.81800013913727,15.617998796417236,16.962001139137268C16.437999796417238,17.51000213913727,17.551998796417237,18.170002139137267,18.02800079641724,18.39000213913727C18.176000796417235,18.45800313913727,18.191999796417235,18.432002139137268,17.85400079641724,18.678002139137266C16.993086796417238,19.282906139137268,16.077818796417237,19.806490139137267,15.119999796417236,20.24200113913727C15.000000796417236,20.302001139137268,14.879999796417236,20.35600113913727,14.760000796417236,20.40800113913727C14.767708796417237,20.32935013913727,14.783115796417237,20.251645139137267,14.805999796417236,20.176001139137266C15.060590796417236,19.202046139137266,15.203510796417236,18.202279139137268,15.231998796417237,17.196001139137266C15.235998796417237,16.772001139137267,15.235998796417237,16.772001139137267,15.271999796417237,16.76000013913727C15.263998796417237,16.76399913913727,15.269998796417235,16.76399913913727,15.271999796417237,16.76399913913727L15.271999796417237,16.76200113913727ZM14.719999796417236,16.98600113913727C14.743999796417237,17.014001139137267,14.727998796417236,17.962001139137268,14.695999796417237,18.222002139137267C14.612953796417237,18.948304139137267,14.460249796417237,19.664935139137267,14.239998796417236,20.362002139137267C14.223999796417237,20.382002139137267,13.677998096417236,19.81400213913727,13.499998596417237,19.594002139137267C13.211599796417236,19.24545113913727,12.965237096417237,18.864161139137266,12.765999296417236,18.45800313913727C12.676800296417236,18.272444139137267,12.603212796417237,18.079777139137267,12.545998096417236,17.882001139137266C12.605999496417237,17.834001139137268,14.705997796417236,16.970001139137267,14.719999796417236,16.98600113913727ZM12.119999396417237,18.07800313913727L12.129999596417237,18.08000413913727C12.305059896417236,18.58105713913727,12.547268396417236,19.056054139137267,12.849998996417236,19.49200513913727C13.171999496417236,19.948004139137268,13.545999996417237,20.362006139137268,13.963999296417237,20.726004139137267C13.987999396417237,20.75200313913727,13.993999996417235,20.746005139137267,13.345999196417237,21.010005139137267C12.595999196417237,21.31400513913727,11.775999996417237,21.62000513913727,10.835999496417237,21.944005139137268C10.613999396417237,22.01800413913727,10.389999396417236,22.09600513913727,10.167999296417236,22.174004139137267C10.129999196417236,22.188004139137266,10.141999196417236,22.16600513913727,10.245999296417235,21.994004139137267C10.711998896417235,21.218003139137267,11.417999296417236,19.696003139137268,11.815998996417235,18.620003139137268C11.883998896417236,18.43200313913727,11.951998696417236,18.24600313913727,11.963998796417236,18.204003139137267C11.979998596417236,18.14400313913727,11.999998996417236,18.12400313913727,12.049999696417236,18.094002139137267C12.072018196417236,18.08621813913727,12.094818596417236,18.080853139137268,12.117998596417236,18.078001139137267L12.119999396417237,18.07800313913727ZM11.325999296417237,18.43000313913727C11.335999496417237,18.438002139137268,11.131998996417236,18.89000213913727,10.933999096417235,19.306002139137266C10.457999196417237,20.292002139137267,9.933999096417235,21.254002139137267,9.361999496417237,22.186001139137268C9.341999096417236,22.218001139137268,9.335999496417237,22.21000113913727,9.271999396417236,22.078001139137267C9.128841396417236,21.764941139137267,9.026019096417237,21.43496913913727,8.965999596417237,21.096001139137268C8.908408196417236,20.676161139137267,8.914476396417236,20.25003313913727,8.983999296417236,19.83200113913727C9.035999296417236,19.572001139137267,9.031999596417236,19.572001139137267,9.153999296417236,19.51200113913727C9.661999696417237,19.234002139137267,11.305999796417236,18.412001139137267,11.323999396417236,18.430001139137268L11.325999296417237,18.43000313913727ZM18.185999796417235,18.726002139137268L18.185999796417235,18.90400213913727C18.174944796417236,20.07329613913727,18.080034796417237,21.24029013913727,17.90199879641724,22.396002139137266C17.90199879641724,22.396002139137266,17.785999796417236,22.364003139137267,17.64999779641724,22.32000213913727C17.014049796417236,22.10448313913727,16.401586796417234,21.825057139137268,15.821996796417237,21.48600213913727C15.433998796417237,21.26200113913727,14.873996796417236,20.89000213913727,14.889997796417237,20.87400313913727L15.255996796417236,20.666003139137267C16.035997796417234,20.23600213913727,16.783998796417237,19.76800213913727,17.431997796417235,19.306002139137266C17.671997796417237,19.132002139137267,18.037998796417234,18.85200213913727,18.119997796417238,18.776001139137268L18.181997796417235,18.726002139137268L18.183998796417235,18.726002139137268L18.185999796417235,18.726002139137268ZM8.319999696417236,19.980000139137267C8.335999496417237,19.980000139137267,8.331999796417236,20.01000113913727,8.309999496417237,20.16400013913727C8.289998996417236,20.31600013913727,8.273999196417236,20.468001139137268,8.263999896417236,20.619999139137267C8.232000396417236,21.23799913913727,8.328000096417236,21.69399913913727,8.614000296417236,22.32199913913727C8.694000196417235,22.49599913913727,8.756000496417236,22.640000139137268,8.754000696417236,22.64400013913727C7.596000696417237,23.023999139137267,6.434000996417236,23.383999139137266,5.266000796417236,23.73199913913727L4.790000916417236,23.87199813913727C4.7600007064172365,23.881999139137267,4.758000846417236,23.87799913913727,4.770000936417237,23.80599813913727C4.862000946417236,23.181998139137267,5.306000696417236,22.367999139137268,5.928000896417236,21.681998139137267C6.301794096417236,21.256760139137267,6.743023396417236,20.895937139137267,7.234001196417236,20.61399713913727C7.640001296417236,20.365998139137268,8.264000896417237,19.999997139137268,8.314001096417236,19.981997139137267L8.319999696417236,19.980000139137267ZM14.525999796417237,21.16199913913727C14.599905796417236,21.195981139137267,14.670822796417236,21.23612313913727,14.737999796417236,21.282000139137267C15.689998796417237,21.85000113913727,16.715999796417236,22.27400113913727,17.785999796417236,22.548001139137266L17.877998796417238,22.56800113913727L17.749998796417238,22.646000139137268C17.219997796417235,22.958001139137266,15.481998796417237,23.730000139137267,13.705997896417236,24.436001139137268L13.145996596417236,24.662001139137267C13.116735896417236,24.677605139137267,13.084886996417236,24.68777113913727,13.051996696417236,24.69200213913727C13.051996696417236,24.686001139137268,13.125997996417237,24.53800213913727,13.215996296417236,24.35600113913727C13.713997396417236,23.36600213913727,14.215995796417236,22.156001139137267,14.467996796417236,21.31800113913727C14.499996796417236,21.238001139137268,14.519996796417237,21.16600113913727,14.525995796417236,21.160000139137267L14.525999796417237,21.16199913913727ZM13.891998796417237,21.381999139137267C13.874596096417235,21.448391139137268,13.851854796417236,21.51327013913727,13.823999896417236,21.575999139137267C13.354509796417236,22.76928413913727,12.801817396417237,23.92813213913727,12.169998596417237,25.043999139137266C12.165998896417236,25.043999139137266,12.047998896417237,24.966000139137268,11.905999196417238,24.87600013913727C11.059999496417237,24.32199913913727,10.311999296417238,23.646000139137268,9.823999396417236,22.98600113913727L9.751999896417235,22.894001139137266L10.114000296417236,22.790001139137267C11.308000596417237,22.450001139137267,12.473999496417237,22.020001139137268,13.606001396417236,21.504002139137267L13.892000696417236,21.380002139137268L13.891998796417237,21.381999139137267ZM17.821998796417237,22.84200013913727C17.821998796417237,22.84200013913727,17.825998796417238,22.84800013913727,17.821998796417237,22.84200013913727C17.825998796417238,22.939999139137267,17.621998796417238,23.814000139137267,17.455999796417238,24.44600013913727C17.255998796417238,25.206000139137267,17.033998796417237,25.963999139137268,16.795999796417235,26.713999139137268C15.668268796417236,26.505944139137267,14.566473796417236,26.176009139137268,13.509998796417236,25.730000139137267C13.272039896417237,25.62936313913727,13.038494596417236,25.51859313913727,12.809999896417237,25.39799913913727C12.981998896417236,25.297999139137268,13.160000296417236,25.207999139137268,13.344000296417237,25.131999139137267C15.153999796417237,24.28799913913727,17.030000796417234,23.331999139137267,17.673999796417235,22.919999139137268C17.718645796417235,22.88593713913727,17.768667796417237,22.85957413913727,17.821998796417237,22.84200013913727ZM8.747998196417235,23.174000139137267C8.757998496417237,23.18200013913727,8.253997796417236,23.958001139137266,7.5439981964172365,25.014000139137266L6.9039983964172364,25.97399913913727C6.797998396417237,26.13600013913727,6.633998396417237,26.39199913913727,6.5439981964172365,26.543999139137266L6.375997996417237,26.81999813913727L6.195998196417236,26.65999813913727C5.9282254964172365,26.410782139137268,5.680773296417236,26.140591139137268,5.455998396417236,25.85199813913727C5.1386270964172365,25.448452139137267,4.912132266417236,24.98113913913727,4.791998386417236,24.481997139137267C4.749998566417236,24.281996139137267,4.749998566417236,24.179997139137267,4.789998526417237,24.165997139137268C4.849998476417237,24.14999613913727,5.909998396417237,23.88199713913727,6.9039983964172364,23.63599613913727C7.519998596417237,23.48399613913727,8.135998696417236,23.32999713913727,8.749998096417237,23.171996139137267L8.747998196417235,23.174000139137267ZM9.259998296417237,23.38200013913727L9.385998696417236,23.534001139137267C9.957998296417237,24.216000139137268,10.545998596417236,24.720002139137268,11.251998896417236,25.162001139137267C11.329998996417237,25.202002139137267,11.401998496417235,25.252001139137267,11.465998696417238,25.310002139137268C9.891998296417237,25.92200113913727,8.311998396417236,26.516001139137266,6.725998896417236,27.094002139137267C6.698086696417237,27.07791913913727,6.671352896417236,27.059874139137268,6.645998996417236,27.040001139137267L6.575998796417236,26.984002139137267L6.689998596417237,26.806002139137266C7.0639986964172365,26.23000213913727,7.533998496417237,25.598002139137268,8.555998796417235,24.286002139137267L9.259998296417237,23.38200013913727ZM12.431997796417237,25.802001139137268C12.437998296417236,25.796000139137266,12.611998096417237,25.866000139137267,12.825998796417236,25.950001139137267C13.343998396417236,26.160000139137267,13.753998296417237,26.290001139137267,14.301998796417235,26.436001139137268C15.035997796417236,26.628001139137268,15.781997796417237,26.766001139137266,16.531997796417237,26.848002139137268C16.619997796417238,26.85600113913727,16.667997796417236,26.86600213913727,16.65199879641724,26.878003139137267C16.623998796417236,26.896002139137266,16.039999796417234,27.10400213913727,15.609998796417237,27.248003139137268C13.923998396417236,27.79200413913727,12.233999696417236,28.32400413913727,10.535999296417236,28.83600313913727C10.495999296417235,28.846003139137267,10.365999196417237,28.808003139137266,10.365999196417237,28.78800213913727C10.365999196417237,28.780003139137268,10.459999096417237,28.650002139137268,10.575999296417237,28.508002139137268C11.149999596417237,27.776001139137268,11.715999596417237,26.96200213913727,12.191999896417236,26.19200213913727C12.321999096417237,25.97800113913727,12.431999696417236,25.806002139137266,12.431997796417237,25.802001139137268ZM11.731998396417236,25.822001139137267C11.481153496417235,26.26510113913727,11.223792096417236,26.70448213913727,10.959998096417237,27.14000213913727L10.431998296417238,28.03200213913727C10.351998296417236,28.16800213913727,10.231998396417236,28.380002139137268,10.167998296417236,28.498002139137267L10.051998096417236,28.716002139137267L9.991997696417236,28.696002139137267C9.516077996417236,28.52857313913727,9.043960596417236,28.350527139137267,8.575997396417236,28.162001139137267C8.258714696417236,28.02748513913727,7.948929796417236,27.87593113913727,7.647997396417237,27.708001139137266C7.329997496417237,27.526001139137268,6.933997196417236,27.25600113913727,6.963997396417236,27.248002139137267C6.973997596417236,27.24200113913727,7.517997296417237,27.086001139137267,8.171997096417236,26.896002139137266C9.291996996417236,26.580002139137267,10.405997296417237,26.24400213913727,11.511997196417237,25.88600213913727C11.583663896417235,25.85982013913727,11.657206496417237,25.839095139137267,11.731997496417236,25.824002139137267L11.731998396417236,25.822001139137267ZM16.683998796417235,27.06200113913727L16.687997796417235,27.06200113913727C16.70199779641724,27.10200213913727,16.059997796417235,29.01000113913727,15.823997796417236,29.61200013913727C15.773996796417237,29.748000139137268,15.753997796417236,29.782000139137267,15.723997796417237,29.77800013913727C14.168573796417236,29.56324813913727,12.620994996417236,29.29509013913727,11.083997696417235,28.97399913913727L10.989997896417236,28.94999913913727L11.581997896417237,28.80799913913727C12.853998696417236,28.50199913913727,13.467997096417236,28.338000139137268,14.087997796417236,28.131999139137267C14.889997796417237,27.869999139137267,15.673998796417237,27.547999139137268,16.429996796417235,27.171999139137267C16.511545796417238,27.12796113913727,16.596481796417237,27.090508139137267,16.683996796417237,27.06000013913727L16.683998796417235,27.06200113913727ZM13.727999196417237,1.999999999997268C13.641998796417237,1.988000035137268,12.229999996417236,2.5299999691372683,11.319999696417236,2.924000029137268C10.090000196417236,3.460000039137268,9.137999496417237,3.9679999391372682,8.547999396417236,4.408000139137268C8.327999096417237,4.5740000391372675,8.053998996417237,4.868000139137268,8.007999396417237,4.982000039137268C7.993241796417236,5.027836939137268,7.9864763964172365,5.075870139137268,7.987999396417236,5.124000239137268L8.519999496417237,5.6640001391372685L9.787999196417235,6.096000339137268L12.807999096417236,6.672000039137268L16.257999796417238,7.302000139137268L16.293998796417235,6.986000139137268L16.263998796417237,6.982000039137268L15.807996796417237,6.902000039137268L15.717996796417236,6.732000039137268C15.248563796417237,5.847594839137268,14.818803796417237,4.9426957391372675,14.429996796417237,4.020000139137268C14.201042796417237,3.463182439137268,14.006672796417236,2.892764809137268,13.847998096417236,2.312000039137268C13.781998196417236,2.024000168137268,13.773996796417237,2.006000041937268,13.727999196417237,1.999999999997268ZM13.665998896417236,2.220000029137268L13.669998596417237,2.220000029137268C13.673998396417236,2.220000029137268,13.689999096417237,2.3399999191372682,13.705999896417236,2.480000019137268C13.773998696417236,3.072000039137268,13.895998496417237,3.645999939137268,14.091999796417236,4.264000039137268C14.239998796417236,4.7300001391372675,14.239998796417236,4.704000139137268,14.067999796417237,4.650000239137269C13.661999196417236,4.530000339137268,11.845998796417236,4.198000039137268,10.527998896417238,4.001999939137268C10.397199596417236,3.985860539137268,10.267095596417235,3.964510239137268,10.137998596417237,3.937999939137268C10.121998796417238,3.921999939137268,11.087998396417238,3.381999939137268,11.513998996417236,3.170000039137268C12.057999096417236,2.906000139137268,13.553999396417236,2.236000059137268,13.663999996417237,2.216000079137268L13.663999996417237,2.218000169137268L13.665998896417236,2.220000029137268ZM9.833999596417236,4.114000439137268L9.987999896417236,4.1700006391372675C10.828000096417236,4.474000539137268,12.949999296417236,4.9060007391372675,14.115999796417237,5.010000839137268L14.365999796417237,5.036000839137268C14.367998796417236,5.038000739137268,14.257999796417236,5.102000839137268,14.115999796417237,5.176000739137268C13.549999696417236,5.476000939137268,12.929998896417237,5.846000839137268,12.499998596417237,6.1260005391372685C12.418400296417236,6.186014739137268,12.331352696417236,6.238243239137268,12.239998296417236,6.2820006391372685C12.225998396417236,6.2820006391372685,12.143999596417236,6.266000839137268,12.055998296417236,6.250000639137268L11.895998996417237,6.226000439137268L11.499998996417236,5.810000539137269C11.013998996417236,5.310000539137269,10.527998896417238,4.810000539137269,10.037999196417235,4.314000239137268L9.831998796417237,4.114000439137268L9.833999596417236,4.114000439137268ZM9.673999796417236,4.246000439137267L10.234000196417236,4.992000239137268C10.539999996417237,5.404000439137269,10.850000396417236,5.8060003391372685,10.918000196417236,5.894000139137268C10.986000096417236,5.984000339137268,11.039999996417237,6.054000039137268,11.038000096417235,6.060000039137268C10.323779096417237,5.939922439137268,9.618249896417236,5.772893539137268,8.926000596417236,5.560000039137268L8.706000296417237,5.482000039137268L8.706000296417237,5.422000039137268C8.711999896417236,5.139999939137268,9.048000296417236,4.7160002391372675,9.622000696417237,4.282000139137268L9.672000896417236,4.246000439137267L9.673999796417236,4.246000439137267ZM14.437999796417236,5.266000439137268C14.451999796417237,5.266000439137268,14.472000796417236,5.300000339137268,14.519998796417235,5.416000439137268C14.655998796417236,5.736000639137268,15.077999796417236,6.590000239137268,15.179998796417236,6.756000639137268C15.211998796417236,6.810000539137268,15.269998796417235,6.816000539137268,14.707998796417236,6.716000639137268C13.359999196417236,6.484000839137268,12.925999196417237,6.408000539137268,12.925999196417237,6.396000539137268C12.953852196417236,6.371984139137268,12.984793196417236,6.351804839137268,13.018000096417236,6.3360005391372685C13.449999296417236,6.076000339137268,13.855999496417237,5.7780004391372675,14.231998796417237,5.442000539137268L14.421999796417236,5.270000539137268C14.423998796417237,5.2640005391372675,14.431999796417236,5.260000339137268,14.437997796417235,5.2640005391372675L14.437999796417236,5.266000439137268Z" fill="#CCCCCC" fill-opacity="1" style="mix-blend-mode:passthrough"/></g><g><path d="M8.039999944140625,4.921999931335451C8.039999944140625,4.921999931335451,7.949999844140625,5.069999694498291,8.034000444140625,5.289999964498291C8.128959644140625,5.468746184498291,8.255696344140624,5.628692154498291,8.407999944140625,5.7620000844982915C8.407999944140625,5.7620000844982915,10.177999544140626,7.602000254498291,10.392000244140625,7.861999954498291C11.371999744140625,9.067999854498291,11.798000344140625,10.253999754498292,11.836000444140625,11.88999935449829C11.860000644140625,12.93999905449829,11.674000744140624,13.86599965449829,11.210000044140624,14.93599945449829C10.380000144140624,16.859999454498293,8.633999844140625,18.98399945449829,5.944000244140625,21.33999845449829L6.338000294140625,21.19999945449829C6.592000484140625,20.99799945449829,6.938000204140625,20.77999945449829,7.748000144140625,20.30600045449829C9.621999744140625,19.21400145449829,11.728000644140625,18.20800045449829,14.312000244140625,17.17400045449829C18.034000244140625,15.68400045449829,24.156000244140625,13.935999354498291,27.638000244140624,13.368000554498291L28.000000244140626,13.30799915449829L27.944000244140625,13.21399925449829C27.699587244140623,12.79960345449829,27.432514244140624,12.39899635449829,27.144001244140625,12.013999954498292C26.376142244140624,11.00409505449829,25.418155244140625,10.154136654498291,24.324001244140625,9.51200005449829C22.764002244140624,8.58399965449829,20.746002244140627,7.860000154498291,18.194000244140625,7.320000154498291C17.396000244140623,7.16000035449829,16.597999244140624,7.016000254498291,15.794000644140626,6.886000154498291C14.361037244140626,6.650033954498291,12.930309344140625,6.400689554498291,11.502000844140625,6.138000054498291C10.958456944140625,6.0428819544982915,10.417000744140626,5.936191054498291,9.878001244140625,5.817999844498291C9.521347044140626,5.737736704498291,9.169464144140624,5.637579914498291,8.824001344140624,5.517999644498291C8.538001044140625,5.399999614498291,8.124001544140626,5.2819995844982905,8.036001244140625,4.921999454498291L8.039999944140625,4.921999931335451ZM9.065999944140625,5.981999854498291C9.069999744140624,5.977999654498291,9.131999944140626,6.001999854498291,9.215999644140625,6.032000054498291C9.368000044140626,6.088000254498291,9.559999444140626,6.151999954498291,9.791999844140625,6.217999954498291L10.317999844140626,6.366000154498291L10.757999444140625,6.492000054498291C10.785999344140624,6.5199999544982905,11.187999744140626,7.888000054498291,11.323999444140625,8.411999654498292C11.373999644140625,8.61199955449829,11.415999444140624,8.781999554498292,11.409999844140625,8.781999554498292C11.370688444140626,8.731209754498291,11.337148644140626,8.676205654498292,11.309999444140626,8.61800005449829C10.787340144140625,7.673577354498291,10.091953244140626,6.835720054498291,9.260000244140624,6.147999754498291C9.191097244140625,6.097817854498291,9.126232144140625,6.042315054498291,9.065999944140625,5.981999854498291ZM11.020000444140624,6.555999754498291C11.092000044140626,6.563999654498291,11.164000544140624,6.575999754498291,11.236000044140624,6.595999754498291C11.913999544140625,6.755999554498291,13.126000444140626,7.00199985449829,13.899999644140625,7.143999554498291C13.979999544140625,7.151999454498291,14.059999444140624,7.1699995544982915,14.135999644140625,7.197999454498291C14.104160344140626,7.227719354498291,14.067680344140625,7.252039954498291,14.027999844140625,7.269999454498291C13.743228944140625,7.438258654498291,13.464393644140625,7.616366354498291,13.191999444140624,7.803999454498291C12.787999144140624,8.08399965449829,12.411999744140626,8.405999154498291,12.065999044140625,8.759999254498291C11.951998744140624,8.885999654498292,11.851999244140625,8.98399925449829,11.851999244140625,8.98399925449829C11.851999244140625,8.98399925449829,11.827999144140625,8.913999554498291,11.805999744140625,8.82599925449829C11.622182844140625,8.11613655449829,11.384150544140624,7.421429154498291,11.093999844140626,6.747999154498291C11.065108344140626,6.684783454498291,11.039735744140625,6.6200175544982915,11.017999644140625,6.553998954498291C11.017999644140625,6.561998854498291,11.017999644140625,6.557999154498291,11.019999544140624,6.557999154498291L11.020000444140624,6.555999754498291ZM14.464000744140625,7.255999554498291C14.488000844140625,7.2639994544982915,14.526000944140625,7.409999354498291,14.608000744140625,7.727999654498291C14.784000444140625,8.481999354498292,14.840001144140626,9.259999254498291,14.778000844140625,10.031999554498292L14.762001044140625,10.073999454498292L14.556000744140626,10.003999754498292C13.989424744140624,9.81539055449829,13.420025844140625,9.63537025449829,12.848000544140625,9.46399975449829C12.640244444140624,9.409548754498292,12.435324644140625,9.344801854498291,12.234000244140624,9.26999945449829C12.234000244140624,9.24399945449829,12.725999844140624,8.71799945449829,12.935999844140625,8.517999654498292C13.338000344140625,8.141999254498291,14.430000344140625,7.243999454498291,14.463999744140626,7.257999454498291L14.464000744140625,7.255999554498291ZM14.738000844140625,7.299999754498291C15.538001044140625,7.431999654498291,16.334001244140623,7.577999554498291,17.130001244140622,7.739999754498291C17.682001244140626,7.853999654498291,18.486000244140627,8.031999554498292,18.534000244140625,8.05200005449829C18.556000244140627,8.06200025449829,18.472000244140624,8.112000454498292,18.208000244140624,8.23999975449829C17.158001244140625,8.74399945449829,16.378000244140622,9.19999985449829,15.602000244140624,9.749999954498291C15.402000444140626,9.892000154498291,15.228000644140625,10.01200005449829,15.223999944140624,10.01200005449829C15.216323844140625,9.92154975449829,15.213652644140625,9.83074475449829,15.215999644140625,9.73999975449829C15.219298344140626,8.95110035449829,15.073402444140624,8.168691654498291,14.785999344140626,7.434000054498291C14.765973044140624,7.391084654498291,14.750554044140625,7.3461670544982915,14.739999744140626,7.30000015449829L14.738000844140625,7.299999754498291ZM18.966001244140624,8.189999554498291C18.954002244140625,8.377999354498291,18.926000244140624,8.565999954498292,18.880001244140622,8.749999954498291C18.736002244140625,9.38000015449829,18.352001244140624,10.315999954498292,17.878000244140622,11.197999954498291C17.828001244140623,11.298000354498292,17.771999244140623,11.394000054498292,17.712000244140626,11.486000054498291C17.628437244140628,11.44803715449829,17.548162244140627,11.403217354498292,17.472000244140624,11.352000254498291C16.971607244140625,11.04405595449829,16.450342244140625,10.771394754498292,15.912000644140624,10.53600025449829C15.752000844140625,10.46600055449829,15.616001144140625,10.40600015449829,15.610000644140625,10.39599995449829C15.582000744140625,10.37199975449829,16.864000244140627,9.470000254498292,17.540001244140626,9.038000154498292C18.076000244140623,8.69000055449829,18.952001244140625,8.171999954498292,18.966001244140624,8.19200035449829L18.966001244140624,8.189999554498291ZM19.268001244140628,8.23999975449829C20.589247244140623,8.58275605449829,21.876037244140626,9.04672335449829,23.112001244140625,9.625999454498292L23.406002244140623,9.765999754498292L23.202001244140625,9.817999854498291C21.553232244140624,10.207586254498292,19.942768244140623,10.744407654498291,18.390001244140628,11.42199995449829C18.411001244140625,11.34747025449829,18.439131244140626,11.27513595449829,18.474001244140624,11.20600035449829C18.898000244140626,10.246000254498291,19.174001244140626,9.24000075449829,19.240001244140625,8.386000654498291C19.246002244140627,8.30600075449829,19.256002244140625,8.240000754498292,19.270002244140628,8.240000754498292L19.268001244140628,8.23999975449829ZM12.064001044140625,10.003999754498292C12.074001344140626,9.98999975449829,12.628001244140625,10.13000015449829,12.926000644140625,10.219999354498292C13.380001044140625,10.353999154498291,14.342000944140626,10.69999885449829,14.342000944140626,10.723999054498291C14.342000944140626,10.72799875449829,14.232001344140626,10.825999254498292,14.108000744140625,10.94399925449829C13.588001244140624,11.40799905449829,13.086000444140625,11.893999054498291,12.484001144140624,12.511999154498291C12.376001344140626,12.625999454498292,12.264000844140625,12.735999154498291,12.146000844140625,12.841999054498292C12.138000444140625,12.841999054498292,12.136000644140626,12.817998854498292,12.138000444140625,12.781998654498292C12.227889044140625,11.93179895449829,12.209745444140625,11.073638954498291,12.084000544140626,10.22799875449829C12.070000644140624,10.109998654498291,12.058000544140626,10.007998454498292,12.064001044140625,10.003999754498292ZM23.678001244140624,10.015999754498292C23.686001244140623,10.02400015449829,23.424001244140626,10.465999554498291,23.258001244140626,10.715999554498291C23.018001244140624,11.079999954498291,22.670002244140626,11.56199935449829,21.878002244140625,12.62199975449829L20.838001244140624,14.024000654498291C20.678001244140624,14.237999454498292,20.546001244140626,14.414000054498292,20.542001244140625,14.414000054498292C20.501455244140622,14.35994005449829,20.464699244140625,14.30313725449829,20.432001244140626,14.24399995449829C19.989261244140625,13.53849835449829,19.446241244140623,12.90115835449829,18.820001244140627,12.352000254498291C18.698215244140627,12.24007225449829,18.573505244140627,12.131367654498291,18.446001244140625,12.02600005449829C18.446001244140625,12.01200005449829,19.122001244140627,11.701999654498291,19.634001244140627,11.482000354498291C20.631531244140625,11.05464835449829,21.646408244140623,10.668981554498291,22.676000244140624,10.326000254498291C23.160000244140626,10.16600035449829,23.670000244140624,10.006000554498291,23.680000244140626,10.013999954498292L23.677999244140626,10.013999954498292L23.678001244140624,10.015999754498292ZM23.986002244140625,10.099999454498292C24.066164244140626,10.130156554498292,24.142118244140626,10.170486454498292,24.212002244140624,10.219999354498292C25.492002244140625,10.999999054498291,26.636001244140626,11.98999975449829,27.596002244140625,13.146000354498291L27.198002244140625,13.181999654498291C25.524002244140625,13.31799935449829,23.380001244140626,13.69400075449829,21.320001244140627,14.22399945449829L21.050001244140624,14.288000554498291C21.042001244140625,14.288000554498291,21.198002244140625,14.12200025449829,21.390001244140628,13.92400025449829C22.602001244140624,12.68200015449829,23.154001244140623,11.89799975449829,23.808000244140626,10.499999954498291C23.865486244140627,10.365853354498292,23.924825244140624,10.232506754498292,23.986002244140625,10.099999454498292C23.982000244140625,10.100000354498292,23.982000244140625,10.100000354498292,23.986002244140625,10.099999454498292ZM15.128002144140625,11.067999854498291C15.184001944140626,11.079999954498291,15.700002644140625,11.340000154498291,16.092003244140624,11.547999354498291C16.448004244140627,11.735999154498291,16.986002244140625,12.04399965449829,17.012003244140622,12.067998854498292C16.876003244140627,12.151998554498292,16.736004244140624,12.22799875449829,16.592003244140624,12.299999254498292C15.846002544140624,12.69999885449829,15.204002344140624,13.075998754498292,14.534002344140625,13.50799985449829C14.418549544140625,13.584547554498291,14.301867444140624,13.65922405449829,14.184001944140626,13.731998954498291C14.168002144140624,13.731998954498291,14.172001844140626,13.717998954498292,14.280001644140626,13.50799985449829C14.634001744140624,12.81199935449829,14.922001844140626,11.98399925449829,15.086001444140624,11.17399975449829C15.100001344140624,11.109999654498292,15.118000944140626,11.067999854498291,15.128002144140625,11.067999854498291ZM14.612002344140626,11.168000254498292C14.556513744140625,11.444476154498291,14.487767244140626,11.71812535449829,14.406002044140624,11.987999954498292C14.220002144140626,12.579999954498291,13.986001944140625,13.15600065449829,13.702001544140625,13.70800065449829L13.490001644140625,14.098000054498291L13.390001344140625,14.26600125449829L13.170001044140625,14.038000554498291C12.956404644140626,13.805834254498292,12.706476244140624,13.60994385449829,12.430001244140625,13.45800065449829C12.361885044140625,13.42499785449829,12.297514944140625,13.384766054498291,12.238000844140625,13.338001754498292C12.238000844140625,13.304001354498292,12.918001144140625,12.648001654498291,13.438000644140626,12.172000854498291C13.812000244140625,11.832000754498292,14.598000544140625,11.15400125449829,14.612002344140626,11.168000254498292ZM17.774002244140625,12.55399985449829L17.968002244140624,12.69199945449829C18.734003244140624,13.219999754498291,19.444002244140627,13.82199905449829,20.092003244140624,14.491999154498291L20.140003244140622,14.54599995449829L19.818002244140626,14.643999554498292C18.170002244140626,15.123999454498291,16.544002244140625,15.67800045449829,14.946002944140625,16.30799945449829C14.830807644140625,16.35458445449829,14.714075044140625,16.39727645449829,14.596002544140624,16.43599945449829C14.574002244140624,16.43599945449829,14.552002944140625,16.45599945449829,14.962002744140625,16.05600045449829C15.975857244140625,15.07201445449829,16.872484244140622,13.97405095449829,17.634002244140625,12.783999454498291L17.774002244140625,12.555999754498291L17.774002244140625,12.55399985449829ZM16.940002244140626,12.77400015449829C16.950002244140627,12.784000354498291,16.404003244140625,13.60000085449829,16.080002244140623,14.06200075449829C15.688001644140625,14.61599965449829,14.996002244140625,15.538000454498292,14.518001544140626,16.14200045449829C14.398001644140624,16.29600045449829,14.270001444140625,16.45200045449829,14.142001144140625,16.60199945449829C14.130001044140625,16.60599945449829,14.126001344140626,16.542000454498293,14.126001344140626,16.448000454498292C14.126001344140626,15.93400045449829,14.002001744140625,15.38600045449829,13.786001244140625,14.917999754498291C13.694001244140626,14.726000354498291,13.680001244140625,14.677999954498292,13.700000744140624,14.65600065449829C14.747542344140625,13.974382854498291,15.828927044140626,13.34624525449829,16.940002244140626,12.77400015449829ZM11.914002444140625,14.090000654498292C12.234002144140625,14.250000454498291,12.534002344140625,14.45400095449829,12.804002744140625,14.69000105449829C12.736955644140625,14.76738785449829,12.660341244140625,14.835937954498291,12.576003044140625,14.89400145449829C12.196002944140625,15.182001454498291,11.624003444140625,15.64400145449829,11.290002844140625,15.928001454498292C10.940002444140625,16.226002454498293,10.928003344140624,16.232002454498293,10.966002444140624,16.16800145449829C11.232002244140624,15.742001454498292,11.360002544140624,15.500000454498291,11.502002744140626,15.19200145449829C11.624002444140626,14.916000854498291,11.748003044140624,14.588001754498292,11.834002544140624,14.304001354498292C11.849522544140626,14.228983354498292,11.876504944140624,14.156805554498291,11.914002444140625,14.090000654498292ZM13.254002544140626,15.209999454498291C13.274003044140624,15.20400045449829,13.298002244140626,15.240000454498292,13.406003044140625,15.410000454498292C13.632002844140626,15.77199945449829,13.806002644140625,16.25400045449829,13.850003244140625,16.643999454498292L13.858003644140625,16.730000454498292L13.314003944140625,16.954000454498292C12.340003944140625,17.35600145449829,11.442004244140625,17.75400045449829,10.832003544140626,18.05400145449829C10.492003444140625,18.22000145449829,10.152003244140625,18.39400145449829,9.816003844140624,18.57400145449829C9.816003844140624,18.56800145449829,9.938003544140624,18.47200245449829,10.088004144140626,18.354002454498293C11.206712744140624,17.50569745449829,12.212219244140625,16.51766645449829,13.080003744140626,15.41400145449829C13.162003544140624,15.310001454498291,13.240003544140624,15.212002454498291,13.248003944140624,15.208000454498292L13.256004344140624,15.208000454498292L13.254002544140626,15.209999454498291ZM12.638002444140625,15.369999454498291C12.654002144140625,15.38399945449829,12.200002644140625,15.93199945449829,11.892002144140626,16.268000454498292C11.158001944140626,17.073999454498292,10.328001944140624,17.78800045449829,9.422001844140624,18.38999945449829L9.182002044140624,18.54999945449829C9.154002144140625,18.567999454498292,9.192002344140626,18.52800045449829,9.604002044140625,18.04600045449829C9.846001644140625,17.77000045449829,10.078001944140624,17.480000454498292,10.292001744140624,17.18000045449829C10.396001844140624,17.02000045449829,10.532001544140625,16.88000145449829,10.690001444140625,16.774000454498292C11.274001144140625,16.328001454498292,12.622001644140624,15.35199945449829,12.638001444140624,15.368000454498292L12.638002444140625,15.369999454498291Z" fill="#E7332B" fill-opacity="1" style="mix-blend-mode:passthrough"/></g></g></svg>