<svg xmlns="http://www.w3.org/2000/svg" xmlns:xlink="http://www.w3.org/1999/xlink" fill="none" version="1.1" width="32" height="32" viewBox="0 0 32 32"><defs><clipPath id="master_svg0_5166_25017"><rect x="0" y="0" width="32" height="32" rx="0"/></clipPath></defs><g clip-path="url(#master_svg0_5166_25017)"><g><path d="M16.281374,14.566971L15.379643,17.426319C14.898763,19.201284,14.939743,19.761086,15.183545,20.174089C15.243735,20.275581,15.408298,20.607908,15.638493,21.49539C15.972421,22.780031,16.266486,24.719561,16.273688999999997,24.812408C16.225345,25.997961,16.251598,27.254267,16.347486,28.456947L4.4466622000000005,28.456947C3.1010296,28.456947,2,27.355917,2,26.010286L2,3.8675458C2,2.5219133,3.1010296,1.4205637,4.4466622000000005,1.4205637L22.759649,1.4205637C19.954889,4.3959694,17.1759,10.04167,16.281374,14.566971ZM29.20863,0.69604164C32.564547000000005,3.6895368,29.232,10.533596,26.173193,15.351203C23.9492,16.06596,21.356707,17.644667,21.356707,17.644667C21.356707,17.644667,21.572334,17.53021,22.372734,17.194523C22.915247,16.96641,24.535093,16.581259,25.521507,16.356344C23.874763,18.839182,22.465582,20.577173,22.465582,20.577173C22.465582,20.577173,19.592466,21.744635,18.703861,24.460873C19.218838,21.563585,20.073343,18.539675,21.279388,15.317106C22.356405,12.439509,25.954042,4.6685872,28.612329,2.267868C25.695835,4.5923891,22.509281,9.4597807,20.212296,15.52649C18.852896,19.545298,18.117168,23.400986,17.997268,26.598261C17.918187,28.690025,18.098917,30.503733,18.544102,31.887783L18.338398,32C17.901699999999998,30.866632,17.50086,28.875078,17.596747,24.794001C17.588782000000002,24.69392,17.581152,24.593817,17.573855000000002,24.493689C17.573855000000002,24.493689,17.308763,22.708157,16.927453,21.241505C16.758571,20.59046,16.566314,20.001688,16.364452,19.660555C16.260402,19.484467,16.375659,18.761227,16.666043000000002,17.69013C17.15749,18.545916,17.687675,19.4723,17.891455999999998,20.230278C17.891455999999998,20.230278,17.498620000000003,18.209589,16.854297000000003,17.030439C17.011198999999998,16.50499,17.178193999999998,15.982605,17.355186,15.463578C17.830463,16.294872,18.315186,17.085829,18.508562,17.877905C18.297098,16.865877,18.010714,15.858016,17.564733,14.858796C18.375376,10.640368,20.98468,5.1164894,23.795845,2.1345201C25.296274,0.5334006,27.364027,-0.89963543,29.20863,0.69604164Z" fill="#3280CF" fill-opacity="1" style="mix-blend-mode:passthrough"/></g></g></svg>