<svg xmlns="http://www.w3.org/2000/svg" xmlns:xlink="http://www.w3.org/1999/xlink" fill="none" version="1.1" width="32" height="32" viewBox="0 0 32 32"><defs><clipPath id="master_svg0_5166_25766"><rect x="0" y="0" width="32" height="32" rx="0"/></clipPath></defs><g clip-path="url(#master_svg0_5166_25766)"><g><path d="M7.4193838871875,20.6667019375C7.6113462671875,19.0753309375,8.2640183671875,18.1846259375,9.4964184671875,17.2689649375C11.256714867187501,16.0327259375,13.4566054671875,16.7314689375,13.4566054671875,16.7314689375L13.4566054671875,12.5773999375C13.990261567187499,12.5639629375,14.5258369671875,12.5965979375,15.0556526671875,12.6733819375L15.0556526671875,18.0195389375C15.0556526671875,18.0195389375,12.8557624671875,17.3188759375,11.0954661671875,18.5570339375C9.8649859671875,19.4707759375,9.2103938671875,20.3614809375,9.0184314671875,21.9547709375C9.0126728671875,22.8186019375,9.1758405671875,23.9511809375,9.9206549671875,24.9282699375C9.7277843671875,24.8286099375,9.5394718671875,24.7203619375,9.3562855671875,24.6038529375C7.7111673671875,23.4981499375,7.4117052571875,21.8395919375,7.4174639571875,20.6686209375L7.4193838871875,20.6667019375ZM24.1393188671875,4.8969810375C22.9261148671875,3.5705201375,22.4692438671875,2.2287021275,22.3041558671875,1.2880859375L23.8264198671875,1.2880859375C23.8264198671875,1.2880859375,23.5231188671875,3.7567238375,25.7383648671875,6.1831297375L25.7690808671875,6.2176833375C25.1743718671875,5.8442244375,24.6265698671875,5.4008278375,24.1373978671875,4.8969810375L24.1393188671875,4.8969810375ZM31.4799648671875,8.6594457375L31.4799648671875,13.9000219375C31.4799648671875,13.9000219375,29.5353848671875,13.8232369375,28.0956648671875,13.4585079375C26.0858188671875,12.9459679375,24.7939088671875,12.1589229375,24.7939088671875,12.1589229375C24.7939088671875,12.1589229375,23.9032038671875,11.6003109375,23.8302578671875,11.5599999375L23.8302578671875,22.3770889375C23.8302578671875,22.9798489375,23.6651708671875,24.4848369375,23.1622278671875,25.7383499375C22.5057158671875,27.3796309375,21.4921528671875,28.4565389375,21.3059498671875,28.6772979375C21.3059498671875,28.6772979375,20.073549867187502,30.1342909375,17.9005358671875,31.1152209375C15.9425182671875,31.9982469375,14.2206148671875,31.9771329375,13.7061548671875,31.9982469375C13.7061548671875,31.9982469375,10.732655067187501,32.1172639375,8.0566987671875,30.3780839375C7.4804022671875,29.9960879375,6.9406154171875,29.5616889375,6.4442138671875,29.0804159375L6.4576511841875,29.0900139375C9.1336085671875,30.8291949375,12.1071071671875,30.7120969375,12.1071071671875,30.7120969375C12.6215662671875,30.6890619375,14.3415508671875,30.7120969375,16.301487967187498,29.8271479375C18.4706648671875,28.8481409375,19.7069038671875,27.3892249375,19.7069038671875,27.3892249375C19.8911878671875,27.1703889375,20.9085888671875,26.0934789375,21.5631798671875,24.4521999375C21.9682578671875,23.3752099375,22.1939328671875,22.2390649375,22.231209867187502,21.0890159375L22.231209867187502,10.2738504375C22.3022368671875,10.3122425375,23.1948618671875,10.8746938375,23.1948618671875,10.8746938375C23.1948618671875,10.8746938375,24.4867688671875,11.6598209375,26.4966178671875,12.1704409375C27.9363388671875,12.5370879375,29.8789978671875,12.6119549375,29.8789978671875,12.6119549375L29.8789978671875,8.5097155375C30.5451088671875,8.6594457375,31.1113988671875,8.7016778375,31.4799648671875,8.6632857375L31.4799648671875,8.6594457375Z" fill="#FD355A" fill-opacity="1" style="mix-blend-mode:passthrough"/></g><g><path d="M29.87900383203125,8.5077958375L29.87900383203125,12.6119549375C29.87900383203125,12.6119549375,27.93634083203125,12.5351699375,26.49661983203125,12.1704409375C24.48677683203125,11.6579009375,23.19486583203125,10.8727741375,23.19486583203125,10.8727741375C23.19486583203125,10.8727741375,22.30416083203125,10.3122434375,22.23121483203125,10.2719316375L22.23121483203125,21.0909389375C22.23121483203125,21.6937009375,22.06612583203125,23.1986869375,21.56318483203125,24.4522019375C20.90667383203125,26.0934809375,19.89310983203125,27.1723099375,19.70690683203125,27.3911479375C19.70690683203125,27.3911479375,18.474506832031253,28.8481429375,16.30149283203125,29.8290709375C14.34347583203125,30.7120989375,12.62157153203125,30.6909809375,12.10711093203125,30.7120989375C12.10711093203125,30.7120989375,9.13361163203125,30.8311139375,6.45765473203125,29.0919359375L6.44421743203125,29.0823379375C6.16222883203125,28.8093259375,5.89623833203125,28.5202619375,5.64757303203125,28.2165889375C5.01723943203125,27.4194699375,4.50875354203125,26.5331779375,4.13874793203125,25.5867019375C3.92758903203125,24.9762609375,3.48223590803125,23.5115869375,3.54366437903125,22.0910659375C3.64924354203125,19.5840359375,4.5322711420312505,18.0464149375,4.76454603203125,17.6605719375C5.38750993203125,16.6034739375,6.19048233203125,15.6634249375,7.13720223203125,14.8828739375C7.98390863203125,14.1994859375,8.93638273203125,13.6587339375,9.95713143203125,13.2819059375C11.07071683203125,12.8350129375,12.25684353203125,12.5962269375,13.45660783203125,12.5774039375L13.45660783203125,16.733391937500002C13.45660783203125,16.733391937500002,11.25671723203125,16.034648937500002,9.49642043203125,17.270885937499997C8.26594023203125,18.1846299375,7.61134813203125,19.0753349375,7.4193859320312505,20.6686249375C7.41170713203125,21.8395959375,7.71116923203125,23.4981519375,9.358207232031251,24.6038569375C9.55016943203125,24.7267109375,9.73637343203125,24.8342109375,9.92257693203125,24.9301909375C10.21052023203125,25.3025989375,10.55797293203125,25.6270139375,10.957254932031251,25.8919239375C12.56398103203125,26.9093249375,13.90963883203125,26.9803509375,15.63154183203125,26.3199999375C16.779477832031247,25.8784869375,17.643308832031252,24.8821999375,18.04451083203125,23.7803359375C18.29598283203125,23.0892699375,18.29406183203125,22.3982049375,18.29406183203125,21.6802649375L18.29406183203125,1.2880859375L22.30032183203125,1.2880859375C22.46540783203125,2.2287021275,22.92419783203125,3.5705201375,24.13548483203125,4.8969810375C24.62114883203125,5.3980031375,25.16823983203125,5.8414363375,25.76524383203125,6.2176833375C25.94185083203125,6.4000473375,26.84215583203125,7.3022718375,27.99968683203125,7.8551240375C28.59861383203125,8.1430673375,29.22825083203125,8.3599853375,29.88092083203125,8.5077958375L29.87900383203125,8.5077958375Z" fill="#000000" fill-opacity="1" style="mix-blend-mode:passthrough"/></g><g><path d="M2.5435531725000002,24.31782969921875L2.5435531725000002,24.31974969921875L2.6414542825,24.58849869921875C2.6299363325,24.555864699218752,2.5934636625,24.46180269921875,2.5435531725000002,24.31591269921875L2.5435531725000002,24.31782969921875ZM9.9571447125,13.28190479921875C8.9301457125,13.66199059921875,7.9780116125,14.20332459921875,7.1352959125,14.88287229921875C6.1887450125,15.66530749921875,5.3864009125,16.60732939921875,4.7645590124999995,17.66632839921875C4.5322840125,18.050252899218748,3.6511764125,19.58979129921875,3.5436773125,22.09682369921875C3.4822494125,23.51734669921875,3.9276025125,24.98394069921875,4.1387608125,25.59437969921875L4.1387608125,25.598219699218753C4.2731347125,25.94567169921875,4.7933528125,27.17806969921875,5.6475859125,28.22234769921875C5.897137412499999,28.52564769921875,6.1620455125,28.81359269921875,6.4442305125,29.08809869921875C5.5438588125,28.49218169921875,4.7365618125,27.76638969921875,4.0485384125,26.93427869921875C3.4209359125,26.140186699218752,2.9138230725,25.25791369921875,2.5435531725000002,24.31591269921875L2.5435525725,24.31206969921875C2.3323936725,23.70162869921875,1.8851211815,22.23503669921875,1.9484687364,20.81259439921875C2.0540481925,18.30748419921875,2.9351558725,16.76794339921875,3.1693500125,16.384018899218752C3.7836302125000003,15.33014489921875,4.5879526125000005,14.38760919921875,5.5400870125,13.60056279921875C6.3872213125,12.91676649921875,7.3403959125,12.37598549921875,8.3619361125,11.99959528921875C9.9784126125,11.35734782321875,11.7347174125,11.14889435921875,13.4566218125,11.39491372921875L13.4566218125,12.57932209921875C12.2563328125,12.59729959921875,11.0695372125,12.83543899921875,9.9552259125,13.28190479921875L9.9571447125,13.28190479921875Z" fill="#33F3ED" fill-opacity="1" style="mix-blend-mode:passthrough"/></g><g><path d="M22.302269421875,1.2880685L18.296012921875,1.2880685L18.296012921875,21.684086C18.296012921875,22.400106,18.296012921875,23.091171,18.046461121874998,23.782236C17.643339121875,24.884102,16.781428821875,25.880386,15.633492421875001,26.321901C13.911588921875,26.984171,12.565931521875001,26.911224,10.959205421875,25.893824C10.563380001875,25.632893,10.213172231875,25.308628,9.922607421875,24.934013C11.289380821875,25.634676,12.514101021875,25.621239,14.030604821875,25.037672C15.178541221875001,24.596157,16.040451521875,23.601791,16.443573521875,22.498007C16.696963821875002,21.808861,16.693125221875,21.115877,16.693125221875,20.399857L16.693125221875,0L22.227404421875,0C22.227404421875,0,22.164057421875,0.50678104,22.304188421875,1.2880685L22.302269421875,1.2880685ZM29.879030421875,7.3732805L29.879030421875,8.5096979C29.231639421875,8.362237,28.602626421875,8.1433382,28.003557421875,7.8570261C26.846023421875,7.3003349,25.943798421875,6.4000301,25.767192421875002,6.2176666C25.972593421875,6.346282,26.185672421875,6.463378,26.404508421875,6.5689578C27.811594421875,7.2408271,29.195644421875,7.4423871,29.879030421875,7.3752003L29.879030421875,7.3732805Z" fill="#33F3ED" fill-opacity="1" style="mix-blend-mode:passthrough"/></g></g></svg>