<svg xmlns="http://www.w3.org/2000/svg" xmlns:xlink="http://www.w3.org/1999/xlink" fill="none" version="1.1" width="365" height="80" viewBox="0 0 365 80"><g><g><g><path d="M51.730358,0L0,80L19.767857,80L57.592525,17.99855L64.497429,49.493282L68.677658,51.678177C70.195625,49.974457,72.368896,49.000031,74.650757,49.000031C74.907059,49.000031,75.1632,49.012344,75.418312,49.036938L80.166809,41.212704L70.037498,0L51.730358,0ZM82.864227,52.187576L81.941795,53.707497C82.409081,54.742264,82.650757,55.864647,82.650757,57.000031C82.650757,61.418308,79.069031,65.000031,74.650757,65.000031C71.366409,65.000031,68.415733,62.992645,67.209671,59.937752L66.732605,59.6884L71.185715,80L89.700005,80L82.864227,52.187576Z" fill-rule="evenodd" fill="#171922" fill-opacity="1"/></g><g><path d="M92.3131103515625,35Q92.4849473515625,35,92.6565853515625,34.991568Q92.8282163515625,34.983135000000004,92.99923335156251,34.966291999999996Q93.17024235156251,34.949449,93.34022535156251,34.924234Q93.5102003515625,34.899018999999996,93.67874135156251,34.865496Q93.8472783515625,34.83197,94.01396935156251,34.790217Q94.1806563515625,34.748464,94.34510035156251,34.698582Q94.5095363515625,34.648699,94.67133335156251,34.590806Q94.8331303515625,34.532915,94.9918863515625,34.467155Q95.1506463515625,34.401393999999996,95.30598835156249,34.327923Q95.4613343515625,34.254452,95.6128843515625,34.173448Q95.7644343515625,34.092443,95.9118273515625,34.004099Q96.0592153515625,33.915755000000004,96.20209535156249,33.820285999999996Q96.3449743515625,33.724816000000004,96.4829983515625,33.622451999999996Q96.62102535156251,33.520086,96.75386035156251,33.411073Q96.8866963515625,33.302058,97.0140223515625,33.186657Q97.1413423515625,33.071257,97.26285535156251,32.949747Q97.38436135156249,32.828238,97.4997633515625,32.700912Q97.6151653515625,32.573587,97.72418635156251,32.440753Q97.8331983515625,32.307918,97.93556235156251,32.169893Q98.0379253515625,32.03187,98.13339635156251,31.88899Q98.2288663515625,31.746111,98.3172073515625,31.598719Q98.4055523515625,31.451326,98.48655735156251,31.299777Q98.5675623515625,31.148228,98.64102935156251,30.9928856Q98.71450035156249,30.837543500000002,98.7802623515625,30.6787834Q98.84602335156251,30.5200233,98.9039113515625,30.358228699999998Q98.9618073515625,30.196434,99.0116883515625,30.0319929Q99.0615693515625,29.8675518,99.1033253515625,29.700861Q99.1450733515625,29.5341702,99.1786003515625,29.3656311Q99.2121273515625,29.197093000000002,99.2373423515625,29.027113Q99.26255835156249,28.8571329,99.27940335156251,28.68612Q99.2962453515625,28.5151072,99.3046763515625,28.3434734Q99.3131103515625,28.1718402,99.3131103515625,28Q99.3131103515625,27.8281598,99.3046803515625,27.6565266Q99.2962453515625,27.4848933,99.27940335156251,27.313880400000002Q99.26255835156249,27.1428671,99.23734635156251,26.9728866Q99.2121273515625,26.802906,99.1786043515625,26.6343675Q99.1450803515625,26.465828899999998,99.1033253515625,26.299138499999998Q99.0615693515625,26.1324482,99.0116883515625,25.9680071Q98.9618073515625,25.803566,98.9039113515625,25.6417708Q98.84602335156251,25.4799757,98.7802623515625,25.321215600000002Q98.71450035156249,25.1624556,98.64102935156251,25.0071144Q98.5675623515625,24.8517723,98.48655735156251,24.700223Q98.4055483515625,24.5486732,98.3172073515625,24.4012804Q98.2288593515625,24.2538881,98.13339235156249,24.1110082Q98.0379253515625,23.9681282,97.93555835156249,23.8301048Q97.8331943515625,23.6920815,97.72418235156249,23.559247Q97.6151653515625,23.4264126,97.4997633515625,23.299087Q97.38436135156249,23.171762,97.26285535156251,23.0502524Q97.1413423515625,22.9287429,97.0140193515625,22.813342Q96.8866963515625,22.6979411,96.7538643515625,22.5889268Q96.62102535156251,22.4799124,96.4830013515625,22.3775473Q96.3449783515625,22.275182,96.2020983515625,22.1797127Q96.05921935156249,22.0842432,95.9118273515625,21.99589968Q95.7644343515625,21.90755606,95.6128843515625,21.82655108Q95.4613343515625,21.74554604,95.30599235156251,21.67207485Q95.15065035156249,21.59860361,94.9918903515625,21.53284317Q94.8331303515625,21.46708274,94.67133335156251,21.40919149Q94.50954435156251,21.35130021,94.3451043515625,21.30141759Q94.1806603515625,21.25153497,94.01396535156249,21.20978118Q93.8472743515625,21.16802739,93.6787373515625,21.13450301Q93.5102003515625,21.10097862,93.3402173515625,21.075764418Q93.17024235156251,21.0505502,92.99923335156251,21.033706907Q92.8282163515625,21.016863609,92.6565853515625,21.0084318044Q92.4849473515625,21,92.3131103515625,21Q92.1412663515625,21,91.9696353515625,21.0084318044Q91.7980043515625,21.016863609,91.6269953515625,21.033706907Q91.45597835156249,21.0505502,91.28599535156249,21.07576441Q91.1160123515625,21.10097862,90.9474753515625,21.13450301Q90.7789383515625,21.16802739,90.6122433515625,21.20978117Q90.4455563515625,21.25153497,90.2811163515625,21.30141759Q90.11667635156249,21.35130021,89.9548793515625,21.40919146Q89.7930833515625,21.46708274,89.6343233515625,21.53284317Q89.4755633515625,21.59860361,89.32022135156251,21.67207479Q89.16487835156249,21.74554598,89.0133283515625,21.82655102Q88.86177835156249,21.90755594,88.7143863515625,21.99589956Q88.5669933515625,22.0842431,88.42411435156251,22.1797125Q88.2812343515625,22.2751819,88.1432113515625,22.3775471Q88.00518835156251,22.4799123,87.8723563515625,22.5889268Q87.7395213515625,22.6979411,87.6121943515625,22.8133421Q87.4848713515625,22.9287429,87.3633613515625,23.0502524Q87.2418513515625,23.171762,87.1264533515625,23.299087Q87.0110553515625,23.4264126,86.90203835156251,23.559247Q86.7930223515625,23.6920815,86.6906543515625,23.8301048Q86.5882873515625,23.9681282,86.4928203515625,24.1110082Q86.3973503515625,24.2538881,86.30900535156249,24.4012806Q86.2206653515625,24.5486729,86.1396603515625,24.7002227Q86.0586543515625,24.8517723,85.9851833515625,25.0071139Q85.9117123515625,25.1624556,85.84595135156249,25.321215600000002Q85.7801893515625,25.4799757,85.7222973515625,25.6417708Q85.6644053515625,25.803566,85.6145243515625,25.9680071Q85.56464435156249,26.1324482,85.5228883515625,26.299138499999998Q85.48113235156251,26.465828899999998,85.4476093515625,26.6343675Q85.4140853515625,26.802906,85.3888703515625,26.9728866Q85.36365935156249,27.1428671,85.34681735156249,27.31388Q85.3299713515625,27.4848928,85.3215403515625,27.6565266Q85.3131103515625,27.8281598,85.3131103515625,28Q85.3131103515625,28.5937223,85.4131083515625,29.1789618Q85.5131073515625,29.7642021,85.7102393515625,30.3242397Q85.90737535156251,30.8842783,86.1960223515625,31.403114000000002Q86.4846613515625,31.921948999999998,86.8565633515625,32.384759L76.07257435156251,50.153839000000005Q75.3509443515625,50,74.6130983515625,50Q74.2014963515625,50,73.7927283515625,50.048238999999995Q73.38396035156251,50.096478000000005,72.9836613515625,50.192289Q72.5833663515625,50.288101,72.1970553515625,50.430164000000005Q71.8107453515625,50.572227,71.4437443515625,50.758587Q71.0767483515625,50.944948,70.7341193515625,51.173035Q70.39149135156251,51.401121,70.0779533515625,51.667789Q69.7644153515625,51.93446,69.4842933515625,52.236038Q69.2041703515625,52.537615,68.96131935156251,52.869942L63.312624351562505,49.917513Q63.310615351562504,49.746975,63.3003023515625,49.576738Q63.2899893515625,49.4065,63.2713963515625,49.236965Q63.252807351562495,49.067432,63.2259783515625,48.899006Q63.1991543515625,48.730579,63.1641583515625,48.563658000000004Q63.1291613515625,48.396738,63.0860783515625,48.231718Q63.042995351562496,48.0667,62.9919243515625,47.903975Q62.9408573515625,47.741248999999996,62.8819213515625,47.581205Q62.8229883515625,47.421161999999995,62.7563303515625,47.264175Q62.6896743515625,47.107192999999995,62.6154513515625,46.95364Q62.5412273515625,46.800087000000005,62.459613351562496,46.65033Q62.3780023515625,46.500575999999995,62.289192351562505,46.354973Q62.200382351562496,46.20937,62.1045873515625,46.068264Q62.0087933515625,45.927158,61.9062403515625,45.790886Q61.8036883515625,45.654613,61.6946203515625,45.523495Q61.5855523515625,45.392378,61.4702283515625,45.266727Q61.354904351562496,45.141079000000005,61.2335963515625,45.021194Q61.1122933515625,44.901309999999995,60.9852903515625,44.787476Q60.8582913515625,44.673641,60.7258963515625,44.566126Q60.593506351562496,44.458612,60.456033351562496,44.357674Q60.3185613515625,44.256733,60.1763383515625,44.162609Q60.0341143515625,44.068484999999995,59.8874743515625,43.981398Q59.7408333515625,43.894310000000004,59.5901243515625,43.814465999999996Q59.4394183515625,43.734625,59.2850013515625,43.662216Q59.130584351562504,43.589809,58.9728243515625,43.525005Q58.815065351562495,43.460205,58.6543373515625,43.403161999999995Q58.493610351562495,43.346119,58.3302933515625,43.296972Q58.1669773515625,43.247826,58.0014613515625,43.206689999999995Q57.835947351562496,43.165555999999995,57.6686253515625,43.13253Q57.501304351562496,43.099503999999996,57.3325733515625,43.074664999999996Q57.163841351562496,43.049828000000005,56.9940983515625,43.033234Q56.824358351562495,43.016644,56.654010351562505,43.008337Q56.4836613515625,43.000031,56.3131103515625,43.000031Q56.1412693515625,43.000031,55.9696363515625,43.008461Q55.7980033515625,43.016892999999996,55.6269913515625,43.033737Q55.4559783515625,43.050579,55.2859963515625,43.075794Q55.1160163515625,43.101006999999996,54.9474773515625,43.134533000000005Q54.7789383515625,43.168056,54.6122483515625,43.209810000000004Q54.4455573515625,43.251564,54.2811173515625,43.301449000000005Q54.116676351562504,43.351330000000004,53.9548803515625,43.409222Q53.793085351562496,43.467112,53.6343253515625,43.532871Q53.4755653515625,43.598633,53.320223351562504,43.672106Q53.1648823515625,43.745577,53.0133323515625,43.826582Q52.861782351562496,43.907585,52.7143893515625,43.99593Q52.5669973515625,44.084272,52.4241173515625,44.179743Q52.2812363515625,44.275211,52.1432143515625,44.377577Q52.005190351562504,44.479944,51.8723563515625,44.588959Q51.7395213515625,44.697970999999995,51.6121973515625,44.813372Q51.484871351562504,44.928771999999995,51.3633623515625,45.050281999999996Q51.2418523515625,45.171791,51.1264513515625,45.299118Q51.0110513515625,45.426443,50.9020373515625,45.559278Q50.7930223515625,45.692112,50.6906563515625,45.830135Q50.5882913515625,45.968159,50.4928213515625,46.111038Q50.3973523515625,46.253918,50.3090095515625,46.401309999999995Q50.2206649515625,46.548702,50.139660851562496,46.700253000000004Q50.0586557515625,46.851800999999995,49.9851846515625,47.007143Q49.9117135515625,47.162483,49.8459529515625,47.321242999999996Q49.7801933515625,47.480002999999996,49.7223014515625,47.6418Q49.6644096515625,47.803595,49.6145277515625,47.968036999999995Q49.5646448515625,48.132477,49.522891051562496,48.299168Q49.4811372515625,48.465858,49.4476127515625,48.634398000000004Q49.414088251562504,48.802937,49.388874051562496,48.972918Q49.3636598515625,49.142899,49.346817051562496,49.313911000000004Q49.3299732515625,49.484924,49.3215417515625,49.656555Q49.3131103515625,49.82819,49.3131103515625,50.000031Q49.3131103515625,50.866434,49.5243473515625,51.706692000000004Q49.7355842515625,52.546951,50.1453094515625,53.310352L40.7418623015625,68.954494L40.7423758515625,68.954803Q40.5320152615625,69.304771,40.4228627415625,69.698242Q40.3137102127125,70.09170499999999,40.3137102127125,70.500031Q40.3137102127625,70.647385,40.3281531425625,70.794022Q40.3425960725625,70.940662,40.3713428375625,71.085178Q40.4000896065625,71.229698,40.4428633615625,71.370705Q40.4856371315625,71.51171099999999,40.5420259215625,71.647846Q40.5984147515625,71.783985,40.6678755915625,71.91394Q40.7373364015625,72.043892,40.8192002215625,72.166405Q40.9010641615625,72.288925,40.9945426615625,72.40283199999999Q41.0880212215625,72.516735,41.1922141315625,72.620926Q41.2964071015625,72.725121,41.4103111515625,72.818596Q41.5242149515625,72.912075,41.6467328515625,72.993935Q41.769250851562504,73.07580200000001,41.8992028515625,73.14526000000001Q42.0291547515625,73.214722,42.1652894515625,73.27111099999999Q42.3014242515625,73.32750300000001,42.4424304515625,73.370277Q42.5834364515625,73.413052,42.7279562515625,73.441795Q42.8724760515625,73.47054299999999,43.0191178515625,73.484989Q43.1657595515625,73.499432,43.3131103515625,73.499432Q43.5063848515625,73.499428,43.698060951562496,73.474625Q43.8897371515625,73.449821,44.0766446515625,73.400623Q44.2635521515625,73.351418,44.4425992515625,73.278637Q44.6216464515625,73.205856,44.7898716515625,73.11069499999999Q44.9580974515625,73.015533,45.1127185515625,72.899574Q45.2673397515625,72.78361100000001,45.4057989515625,72.648766Q45.5442581515625,72.513916,45.6642661515625,72.36241100000001Q45.7842740515625,72.21090699999999,45.8838448515625,72.04525799999999L45.8843584515625,72.045567L55.0024113515625,56.876225Q55.6519133515625,57.000031,56.3131103515625,57.000031Q56.9232803515625,57.000031,57.5242483515625,56.894455Q58.1252173515625,56.788887,58.6988543515625,56.580925Q59.2724933515625,56.372967,59.801500351562495,56.068893Q60.3305073515625,55.76482,60.7989253515625,55.373806L67.9370023515625,59.104694Q68.0202753515625,59.368832,68.1241533515625,59.625565Q68.22803135156249,59.882294,68.3518673515625,60.130013Q68.4757043515625,60.377739,68.61872435156249,60.614902Q68.7617453515625,60.852066,68.9230573515625,61.077187Q69.0843693515625,61.302307,69.2629603515625,61.513985Q69.4415553515625,61.725662,69.6363143515625,61.922565Q69.83107335156251,62.119469,70.04077935156249,62.300369Q70.2504843515625,62.48127,70.4738273515625,62.645039Q70.6971703515625,62.808807,70.9327523515625,62.954422Q71.1683353515625,63.100029,71.4146843515625,63.226574Q71.66103335156251,63.353119,71.91661235156249,63.459801Q72.17218935156251,63.566483,72.4353983515625,63.652641Q72.6986043515625,63.7388,72.9677963515625,63.803902Q73.2369883515625,63.868996,73.5104823515625,63.912617Q73.78397335156251,63.956238,74.0600623515625,63.978119Q74.3361473515625,64,74.6130983515625,64Q74.7849353515625,64,74.95656935156251,63.99157Q75.1282043515625,63.983139,75.2992173515625,63.966297Q75.47023035156249,63.949448,75.6402093515625,63.924232Q75.8101883515625,63.899017,75.9787253515625,63.865498Q76.1472623515625,63.83197,76.3139533515625,63.790218Q76.4806443515625,63.748466,76.64508835156249,63.698586Q76.8095243515625,63.648701,76.9713213515625,63.590805Q77.1331173515625,63.532913,77.2918773515625,63.467155Q77.4506373515625,63.401394,77.6059803515625,63.327923Q77.7613223515625,63.254452,77.9128723515625,63.173447Q78.0644223515625,63.092442,78.2118153515625,63.004097Q78.3592073515625,62.915756,78.5020863515625,62.820286Q78.6449663515625,62.724815,78.78299335156251,62.622452Q78.9210163515625,62.520088,79.0538523515625,62.411072Q79.1866833515625,62.302055,79.3140103515625,62.186657Q79.44133335156249,62.071255,79.56284335156249,61.949745Q79.6843563515625,61.828236,79.7997593515625,61.700909Q79.9151613515625,61.573586,80.0241733515625,61.44075Q80.1331863515625,61.307915,80.2355503515625,61.169891Q80.33791335156249,61.031868,80.4333843515625,60.888988Q80.5288543515625,60.746109,80.6171953515625,60.598717Q80.70553935156249,60.451324,80.7865443515625,60.299774Q80.8675503515625,60.148224,80.9410213515625,59.992882Q81.0144883515625,59.83754,81.0802493515625,59.67878Q81.14601135156249,59.52002,81.2039033515625,59.358227Q81.2617953515625,59.196434,81.3116763515625,59.031994Q81.36155735156251,58.867554,81.4033123515625,58.700863Q81.4450683515625,58.534172,81.4785923515625,58.365631Q81.5121153515625,58.19709,81.53733435156249,58.027111Q81.5625453515625,57.857132,81.57939135156249,57.686119Q81.5962333515625,57.515106,81.6046633515625,57.343472Q81.6130983515625,57.171837,81.6130983515625,57Q81.6130983515625,56.175247,81.4214133515625,55.373085Q81.2297283515625,54.570919,80.8568533515625,53.83527L92.2879373515625,34.999955Q92.30052135156251,35,92.3131103515625,35Z" fill-rule="evenodd" fill="#3C6EFF" fill-opacity="1"/></g></g><g><path d="M116.68858698095703,80Q110.46372798095703,80,105.10858598095703,77.151787Q99.75344368095703,74.303581,96.53249408095704,68.890251Q93.31311798095703,63.476913,93.31311798095703,55.809853Q93.31311798095703,48.965343,95.59672068095703,43.228031Q97.88189598095703,37.490711,101.98828988095703,33.242775Q106.09625898095703,28.994837,111.53161098095703,26.660904Q116.96853598095703,24.325401,123.27203798095704,24.325401Q129.59754898095701,24.325401,134.23867398095703,26.522507Q138.88137098095703,28.718035,141.43862898095705,33.278946Q143.99588398095705,37.838284,143.99588398095705,44.862095Q143.99588398095705,52.211449,142.20297198095705,58.612465Q140.41006098095704,65.011894,136.88557798095704,69.810287Q133.36109198095704,74.608688,128.28589298095704,77.304352Q123.21226898095703,80,116.68858698095703,80ZM121.54045698095703,67.062737Q126.19887898095703,67.062737,129.748530980957,64.804298Q133.29975498095703,62.54586,135.34744298095703,58.543262Q137.39513798095703,54.540668,137.39513798095703,49.25787Q137.39513798095703,43.732876,134.16789998095703,40.497772Q130.94222998095702,37.261097,125.05236198095703,37.261097Q120.49301898095703,37.261097,116.89147198095704,39.519535Q113.29149598095702,41.777973,111.24380298095703,45.780571Q109.19610898095704,49.783157,109.19610898095704,55.06596Q109.19610898095704,60.592522,112.42177598095702,63.827637Q115.64901498095703,67.062737,121.54045698095703,67.062737ZM132.23973498095702,79.235657L134.41796498095704,68.446747L137.83864998095703,52.384464L139.96812098095702,36.281288L146.31409498095704,4.5499091L162.01621198095702,4.5499091L147.11932798095702,79.235657L132.23973498095702,79.235657ZM180.10260798095703,80Q173.87773898095702,80,168.52259798095702,77.151787Q163.16744998095703,74.303581,159.94650998095705,68.890251Q156.72713098095704,63.476913,156.72713098095704,55.809853Q156.72713098095704,48.965343,159.01072698095703,43.228031Q161.29590598095703,37.490711,165.40229798095703,33.242775Q169.51027698095703,28.994837,174.94561798095702,26.660904Q180.38254498095705,24.325401,186.68604298095704,24.325401Q193.37013798095703,24.325401,198.19213798095703,26.82132Q203.01412798095703,29.315666,205.41096798095703,34.595318Q207.80936798095703,39.874973,207.12996798095702,48.254467Q206.57163798095704,57.841831,203.16824798095703,65.013466Q199.76643798095705,72.183548,193.94418798095703,76.091774Q188.12194098095705,80,180.10260798095703,80ZM184.95446798095702,67.062737Q189.61289198095704,67.062737,193.16254398095703,64.804298Q196.71377798095705,62.54586,198.76144798095703,58.543262Q200.81071798095704,54.540668,200.81071798095704,49.25787Q200.81071798095704,43.732876,197.583477980957,40.497772Q194.35622798095704,37.261097,188.46637698095702,37.261097Q183.90703598095703,37.261097,180.30548898095702,39.519535Q176.70550498095702,41.777973,174.65780598095705,45.780571Q172.61012298095704,49.783157,172.61012298095704,55.06596Q172.61012298095704,60.592522,175.83734898095702,63.827637Q179.06460598095703,67.062737,184.95446798095702,67.062737ZM195.69463798095703,79.235657L197.87128798095705,68.446747L201.35331798095703,52.384464L203.42146798095703,36.281288L205.66100798095704,25.088175L221.36314798095702,25.088175L210.57420798095703,79.235657L195.69463798095703,79.235657ZM239.35199798095704,79.235657L250.14093798095703,25.088175L265.803717980957,25.088175L255.01482798095702,79.235657L239.35199798095704,79.235657ZM260.65778798095704,17.562666Q256.48059798095704,17.562666,253.97995798095704,15.172117Q251.47932798095704,12.779997,251.47932798095704,9.403347Q251.47932798095704,5.4054685,254.33069798095704,2.7035215Q257.183617980957,0,261.843607980957,0Q266.02078798095704,0,268.551287980957,2.2505746Q271.08336798095706,4.5011492,271.08336798095706,7.8762288Q271.08336798095706,12.177638,268.23047798095706,14.870156Q265.379097980957,17.562666,260.65778798095704,17.562666ZM342.28082798095704,24.325401Q349.108037980957,24.325401,353.838817980957,27.164175Q358.569587980957,30.001379,360.560647980957,35.567261Q362.553287980957,41.133152,360.90350798095704,49.262585L354.92401798095705,79.235657L339.22186798095703,79.235657L345.001657980957,50.360359Q346.25037798095707,44.273895,344.1429379809571,41.068676Q342.03548798095704,37.861877,336.82817798095704,37.861877Q331.337807980957,37.861877,327.717387980957,41.119003Q324.096947980957,44.376118,322.624867980957,51.472275L317.06842798095704,79.235657L301.36629798095703,79.235657L307.144497980957,50.360359Q308.39479798095704,44.273895,306.28577798095705,41.068676Q304.17833798095705,37.861877,298.970997980957,37.861877Q293.482217980957,37.861877,289.84134798095704,41.159893Q286.200457980957,44.456326,284.728397980957,51.632687L279.21123798095704,79.235657L263.50911798095706,79.235657L274.298057980957,25.088175L289.17761798095705,25.088175L286.437947980957,38.910892L283.96719798095705,35.774868Q287.69139798095705,29.899151,293.217977980957,27.112278Q298.74452798095706,24.325401,305.048057980957,24.325401Q310.063487980957,24.325401,314.10066798095704,26.116737Q318.13783798095704,27.908075,320.673087980957,31.481316Q323.20836798095706,35.054562,323.65027798095707,40.348358L317.6518979809571,38.860565Q321.59947798095703,31.753399,327.9013579809571,28.040186Q334.20488798095704,24.325401,342.28082798095704,24.325401ZM226.18040798095703,80Q222.16363798095702,80,219.54034798095705,77.447464Q216.91860798095703,74.894928,216.91860798095703,70.936371Q216.91860798095703,66.235481,220.00272798095705,63.352673Q223.08685798095703,60.468277,227.38512798095704,60.468277Q231.44275798095703,60.468277,233.99371798095703,63.000385Q236.54626798095703,65.532478,236.54626798095703,69.59169Q236.54626798095703,72.726128,235.11980798095703,75.056915Q233.69333798095704,77.387703,231.35310798095702,78.694641Q229.01291798095704,80,226.18040798095703,80Z" fill="#171922" fill-opacity="1"/></g></g></svg>